{
	"asset":{
		"generator":"Khronos glTF Blender I/O v5.1.19",
		"version":"2.0"
	},
	"scene":0,
	"scenes":[
		{
			"name":"lvl7_mesh",
			"nodes":[
				15
			]
		}
	],
	"nodes":[
		{
			"mesh":0,
			"name":"walls-col.003",
			"rotation":[
				0,
				0.7071068286895752,
				0,
				0.7071068286895752
			],
			"translation":[
				-20,
				3.406614065170288,
				0
			]
		},
		{
			"mesh":1,
			"name":"walls.002-col.004",
			"rotation":[
				0,
				-1,
				0,
				1.6292068494294654e-07
			],
			"translation":[
				0,
				3.406614065170288,
				20
			]
		},
		{
			"children":[
				0,
				1
			],
			"name":"walls.008"
		},
		{
			"mesh":2,
			"name":"ground.008",
			"rotation":[
				-1,
				0,
				0,
				1.6292068494294654e-07
			],
			"translation":[
				0,
				-0.04777282476425171,
				0
			]
		},
		{
			"children":[
				3
			],
			"name":"ground.008"
		},
		{
			"mesh":3,
			"name":"ground_prop.008",
			"rotation":[
				0,
				0.7071067094802856,
				0,
				0.7071068286895752
			],
			"translation":[
				-0.2960183620452881,
				-0.1441401094198227,
				-0.3651001453399658
			]
		},
		{
			"children":[
				5
			],
			"name":"ground_prop.008"
		},
		{
			"mesh":4,
			"name":"ceiling-col.003"
		},
		{
			"children":[
				7
			],
			"name":"ceiling.008"
		},
		{
			"children":[
				6,
				8
			],
			"name":"props.008"
		},
		{
			"name":"props_affecting_nav_mesh.008"
		},
		{
			"mesh":5,
			"name":"ground_coll-colonly.003"
		},
		{
			"children":[
				11
			],
			"name":"ground_coll.008"
		},
		{
			"name":"Empty.001",
			"translation":[
				-20.500003814697266,
				0,
				0
			]
		},
		{
			"children":[
				13
			],
			"name":"entery_markers.001"
		},
		{
			"children":[
				2,
				4,
				9,
				10,
				12,
				14
			],
			"name":"lvl7_mesh"
		}
	],
	"materials":[
		{
			"doubleSided":true,
			"name":"M_support_walls",
			"pbrMetallicRoughness":{
				"baseColorTexture":{
					"index":0
				},
				"metallicFactor":0
			}
		},
		{
			"doubleSided":true,
			"name":"M_rock_face_03",
			"normalTexture":{
				"index":1
			},
			"pbrMetallicRoughness":{
				"baseColorTexture":{
					"index":2
				},
				"metallicFactor":0,
				"metallicRoughnessTexture":{
					"index":3
				}
			}
		},
		{
			"doubleSided":true,
			"name":"M_rock_face_03.007",
			"normalTexture":{
				"index":4
			},
			"pbrMetallicRoughness":{
				"baseColorTexture":{
					"index":5
				},
				"metallicFactor":0,
				"metallicRoughnessTexture":{
					"index":6
				}
			}
		}
	],
	"meshes":[
		{
			"name":"walls.002-col.002",
			"primitives":[
				{
					"attributes":{
						"POSITION":0,
						"NORMAL":1,
						"TEXCOORD_0":2
					},
					"indices":3,
					"material":0
				},
				{
					"attributes":{
						"POSITION":4,
						"NORMAL":5,
						"TEXCOORD_0":6
					},
					"indices":7,
					"material":1
				}
			]
		},
		{
			"name":"walls.002-col.002",
			"primitives":[
				{
					"attributes":{
						"POSITION":8,
						"NORMAL":9,
						"TEXCOORD_0":10
					},
					"indices":3,
					"material":0
				},
				{
					"attributes":{
						"POSITION":11,
						"NORMAL":12,
						"TEXCOORD_0":13
					},
					"indices":7,
					"material":1
				}
			]
		},
		{
			"name":"ground.007",
			"primitives":[
				{
					"attributes":{
						"POSITION":14,
						"NORMAL":15,
						"TEXCOORD_0":16
					},
					"indices":17,
					"material":2
				}
			]
		},
		{
			"name":"ground_prop.008",
			"primitives":[
				{
					"attributes":{
						"POSITION":18,
						"NORMAL":19,
						"TEXCOORD_0":20
					},
					"indices":21,
					"material":1
				}
			]
		},
		{
			"name":"ceiling-col.003",
			"primitives":[
				{
					"attributes":{
						"POSITION":22,
						"NORMAL":23,
						"TEXCOORD_0":24
					},
					"indices":25,
					"material":1
				}
			]
		},
		{
			"name":"ground_coll-colonly.003",
			"primitives":[
				{
					"attributes":{
						"POSITION":26,
						"NORMAL":27,
						"TEXCOORD_0":28
					},
					"indices":29
				}
			]
		}
	],
	"textures":[
		{
			"sampler":0,
			"source":0
		},
		{
			"sampler":0,
			"source":1
		},
		{
			"sampler":0,
			"source":2
		},
		{
			"sampler":0,
			"source":3
		},
		{
			"sampler":0,
			"source":1
		},
		{
			"sampler":0,
			"source":2
		},
		{
			"sampler":0,
			"source":3
		}
	],
	"images":[
		{
			"mimeType":"image/png",
			"name":"support_walls",
			"uri":"../../textures/support_walls.png"
		},
		{
			"mimeType":"image/png",
			"name":"T_rock_face_03_normal",
			"uri":"../../textures/T_rock_face_03_normal.png"
		},
		{
			"mimeType":"image/png",
			"name":"T_rock_face_03_basecolor",
			"uri":"../../textures/T_rock_face_03_basecolor.png"
		},
		{
			"mimeType":"image/png",
			"name":"T_rock_face_03_roughness",
			"uri":"../../textures/T_rock_face_03_roughness.png"
		}
	],
	"accessors":[
		{
			"bufferView":0,
			"componentType":5126,
			"count":56,
			"max":[
				20,
				0.3471536636352539,
				1.6332823038101196
			],
			"min":[
				-20,
				-3.406614065170288,
				-0.5000038146972656
			],
			"type":"VEC3"
		},
		{
			"bufferView":1,
			"componentType":5126,
			"count":56,
			"type":"VEC3"
		},
		{
			"bufferView":2,
			"componentType":5126,
			"count":56,
			"type":"VEC2"
		},
		{
			"bufferView":3,
			"componentType":5123,
			"count":84,
			"type":"SCALAR"
		},
		{
			"bufferView":4,
			"componentType":5126,
			"count":34,
			"max":[
				2.5190422534942627,
				0.3471536636352539,
				1.6332836151123047
			],
			"min":[
				-2.5190422534942627,
				-0.971207857131958,
				-1.9073486328125e-06
			],
			"type":"VEC3"
		},
		{
			"bufferView":5,
			"componentType":5126,
			"count":34,
			"type":"VEC3"
		},
		{
			"bufferView":6,
			"componentType":5126,
			"count":34,
			"type":"VEC2"
		},
		{
			"bufferView":7,
			"componentType":5123,
			"count":42,
			"type":"SCALAR"
		},
		{
			"bufferView":8,
			"componentType":5126,
			"count":56,
			"max":[
				20,
				0.3471536636352539,
				1.6332823038101196
			],
			"min":[
				-20,
				-3.406614065170288,
				-0.5000038146972656
			],
			"type":"VEC3"
		},
		{
			"bufferView":9,
			"componentType":5126,
			"count":56,
			"type":"VEC3"
		},
		{
			"bufferView":10,
			"componentType":5126,
			"count":56,
			"type":"VEC2"
		},
		{
			"bufferView":11,
			"componentType":5126,
			"count":34,
			"max":[
				2.5190422534942627,
				0.3471536636352539,
				1.6332836151123047
			],
			"min":[
				-2.5190422534942627,
				-0.971207857131958,
				-1.9073486328125e-06
			],
			"type":"VEC3"
		},
		{
			"bufferView":12,
			"componentType":5126,
			"count":34,
			"type":"VEC3"
		},
		{
			"bufferView":13,
			"componentType":5126,
			"count":34,
			"type":"VEC2"
		},
		{
			"bufferView":14,
			"componentType":5126,
			"count":4,
			"max":[
				20.5,
				-0.04776614159345627,
				20.500001907348633
			],
			"min":[
				-20.5,
				-0.04777950793504715,
				-20.500001907348633
			],
			"type":"VEC3"
		},
		{
			"bufferView":15,
			"componentType":5126,
			"count":4,
			"type":"VEC3"
		},
		{
			"bufferView":16,
			"componentType":5126,
			"count":4,
			"type":"VEC2"
		},
		{
			"bufferView":17,
			"componentType":5123,
			"count":6,
			"type":"SCALAR"
		},
		{
			"bufferView":18,
			"componentType":5126,
			"count":672,
			"max":[
				4.5777974128723145,
				1.5081406831741333,
				5.301491737365723
			],
			"min":[
				-10.800461769104004,
				-0.2625533938407898,
				-15.344756126403809
			],
			"type":"VEC3"
		},
		{
			"bufferView":19,
			"componentType":5126,
			"count":672,
			"type":"VEC3"
		},
		{
			"bufferView":20,
			"componentType":5126,
			"count":672,
			"type":"VEC2"
		},
		{
			"bufferView":21,
			"componentType":5123,
			"count":1008,
			"type":"SCALAR"
		},
		{
			"bufferView":22,
			"componentType":5126,
			"count":303,
			"max":[
				5.05037784576416,
				6.132778644561768,
				20.07149887084961
			],
			"min":[
				-20.000003814697266,
				-0.0852818563580513,
				-5.6151652336120605
			],
			"type":"VEC3"
		},
		{
			"bufferView":23,
			"componentType":5126,
			"count":303,
			"type":"VEC3"
		},
		{
			"bufferView":24,
			"componentType":5126,
			"count":303,
			"type":"VEC2"
		},
		{
			"bufferView":25,
			"componentType":5123,
			"count":1578,
			"type":"SCALAR"
		},
		{
			"bufferView":26,
			"componentType":5126,
			"count":4,
			"max":[
				20.5,
				0,
				20.5
			],
			"min":[
				-20.5,
				0,
				-20.5
			],
			"type":"VEC3"
		},
		{
			"bufferView":27,
			"componentType":5126,
			"count":4,
			"type":"VEC3"
		},
		{
			"bufferView":28,
			"componentType":5126,
			"count":4,
			"type":"VEC2"
		},
		{
			"bufferView":29,
			"componentType":5123,
			"count":6,
			"type":"SCALAR"
		}
	],
	"bufferViews":[
		{
			"buffer":0,
			"byteLength":672,
			"byteOffset":0,
			"target":34962
		},
		{
			"buffer":0,
			"byteLength":672,
			"byteOffset":672,
			"target":34962
		},
		{
			"buffer":0,
			"byteLength":448,
			"byteOffset":1344,
			"target":34962
		},
		{
			"buffer":0,
			"byteLength":168,
			"byteOffset":1792,
			"target":34963
		},
		{
			"buffer":0,
			"byteLength":408,
			"byteOffset":1960,
			"target":34962
		},
		{
			"buffer":0,
			"byteLength":408,
			"byteOffset":2368,
			"target":34962
		},
		{
			"buffer":0,
			"byteLength":272,
			"byteOffset":2776,
			"target":34962
		},
		{
			"buffer":0,
			"byteLength":84,
			"byteOffset":3048,
			"target":34963
		},
		{
			"buffer":0,
			"byteLength":672,
			"byteOffset":3132,
			"target":34962
		},
		{
			"buffer":0,
			"byteLength":672,
			"byteOffset":3804,
			"target":34962
		},
		{
			"buffer":0,
			"byteLength":448,
			"byteOffset":4476,
			"target":34962
		},
		{
			"buffer":0,
			"byteLength":408,
			"byteOffset":4924,
			"target":34962
		},
		{
			"buffer":0,
			"byteLength":408,
			"byteOffset":5332,
			"target":34962
		},
		{
			"buffer":0,
			"byteLength":272,
			"byteOffset":5740,
			"target":34962
		},
		{
			"buffer":0,
			"byteLength":48,
			"byteOffset":6012,
			"target":34962
		},
		{
			"buffer":0,
			"byteLength":48,
			"byteOffset":6060,
			"target":34962
		},
		{
			"buffer":0,
			"byteLength":32,
			"byteOffset":6108,
			"target":34962
		},
		{
			"buffer":0,
			"byteLength":12,
			"byteOffset":6140,
			"target":34963
		},
		{
			"buffer":0,
			"byteLength":8064,
			"byteOffset":6152,
			"target":34962
		},
		{
			"buffer":0,
			"byteLength":8064,
			"byteOffset":14216,
			"target":34962
		},
		{
			"buffer":0,
			"byteLength":5376,
			"byteOffset":22280,
			"target":34962
		},
		{
			"buffer":0,
			"byteLength":2016,
			"byteOffset":27656,
			"target":34963
		},
		{
			"buffer":0,
			"byteLength":3636,
			"byteOffset":29672,
			"target":34962
		},
		{
			"buffer":0,
			"byteLength":3636,
			"byteOffset":33308,
			"target":34962
		},
		{
			"buffer":0,
			"byteLength":2424,
			"byteOffset":36944,
			"target":34962
		},
		{
			"buffer":0,
			"byteLength":3156,
			"byteOffset":39368,
			"target":34963
		},
		{
			"buffer":0,
			"byteLength":48,
			"byteOffset":42524,
			"target":34962
		},
		{
			"buffer":0,
			"byteLength":48,
			"byteOffset":42572,
			"target":34962
		},
		{
			"buffer":0,
			"byteLength":32,
			"byteOffset":42620,
			"target":34962
		},
		{
			"buffer":0,
			"byteLength":12,
			"byteOffset":42652,
			"target":34963
		}
	],
	"samplers":[
		{
			"magFilter":9728,
			"minFilter":9984
		}
	],
	"buffers":[
		{
			"byteLength":42664,
			"uri":"lvl7_mesh.bin"
		}
	]
}
