{
	"asset":{
		"generator":"Khronos glTF Blender I/O v5.1.19",
		"version":"2.0"
	},
	"scene":0,
	"scenes":[
		{
			"name":"lvl8_mesh",
			"nodes":[
				17
			]
		}
	],
	"nodes":[
		{
			"mesh":0,
			"name":"walls-col.006",
			"translation":[
				0,
				3.406614065170288,
				-20
			]
		},
		{
			"mesh":1,
			"name":"walls.002-col.005",
			"rotation":[
				0,
				-1,
				0,
				1.6292068494294654e-07
			],
			"translation":[
				0,
				3.406614065170288,
				20
			]
		},
		{
			"mesh":2,
			"name":"ceiling-col.005"
		},
		{
			"children":[
				0,
				1,
				2
			],
			"name":"walls.009"
		},
		{
			"mesh":3,
			"name":"ground.009",
			"rotation":[
				-1,
				0,
				0,
				1.6292068494294654e-07
			],
			"translation":[
				0,
				-0.04777282476425171,
				0
			]
		},
		{
			"children":[
				4
			],
			"name":"ground.009"
		},
		{
			"name":"NurbsPath.010",
			"translation":[
				11.156477928161621,
				0.04662102088332176,
				-1.9807968139648438
			]
		},
		{
			"mesh":4,
			"name":"ground_prop.006",
			"rotation":[
				0,
				0.7071067094802856,
				0,
				0.7071068286895752
			],
			"translation":[
				-0.2960183620452881,
				-0.1441401094198227,
				-0.3651001453399658
			]
		},
		{
			"mesh":5,
			"name":"rails_carts.005-convcol.013",
			"rotation":[
				-0.007604828104376793,
				0.5236022472381592,
				-0.0440019890666008,
				0.8507918119430542
			],
			"translation":[
				0.12610045075416565,
				0.1826293170452118,
				-10.669999122619629
			]
		},
		{
			"mesh":5,
			"name":"rails_carts.005-convcol.015",
			"rotation":[
				-0.024666378274559975,
				0.8216675519943237,
				-0.03722335025668144,
				0.5682151317596436
			],
			"translation":[
				1.4081225395202637,
				0.1704380214214325,
				-11.617513656616211
			]
		},
		{
			"children":[
				7,
				8,
				9
			],
			"name":"ground_prop.006"
		},
		{
			"children":[
				6,
				10
			],
			"name":"props.009"
		},
		{
			"name":"props_affecting_nav_mesh.009"
		},
		{
			"mesh":6,
			"name":"ground_coll-colonly.005"
		},
		{
			"children":[
				13
			],
			"name":"ground_coll.009"
		},
		{
			"mesh":7,
			"name":"door_closed.006",
			"scale":[
				2.131930112838745,
				2.1319327354431152,
				2.1319327354431152
			],
			"translation":[
				17.548797607421875,
				0.02338150143623352,
				-2.137690544128418
			]
		},
		{
			"children":[
				15
			],
			"name":"door_closed.004"
		},
		{
			"children":[
				3,
				5,
				11,
				12,
				14,
				16
			],
			"name":"lvl8_mesh"
		}
	],
	"materials":[
		{
			"doubleSided":true,
			"name":"M_support_walls",
			"pbrMetallicRoughness":{
				"baseColorTexture":{
					"index":0
				},
				"metallicFactor":0
			}
		},
		{
			"doubleSided":true,
			"name":"M_rock_face_03",
			"normalTexture":{
				"index":1
			},
			"pbrMetallicRoughness":{
				"baseColorTexture":{
					"index":2
				},
				"metallicFactor":0,
				"metallicRoughnessTexture":{
					"index":3
				}
			}
		},
		{
			"doubleSided":true,
			"name":"M_rock_face_03.006",
			"normalTexture":{
				"index":4
			},
			"pbrMetallicRoughness":{
				"baseColorTexture":{
					"index":5
				},
				"metallicFactor":0,
				"metallicRoughnessTexture":{
					"index":6
				}
			}
		},
		{
			"doubleSided":true,
			"name":"M_support_walls.002",
			"pbrMetallicRoughness":{
				"baseColorTexture":{
					"index":7
				},
				"metallicFactor":0
			}
		},
		{
			"doubleSided":true,
			"name":"M_rusty_metal_grid.001",
			"normalTexture":{
				"index":8
			},
			"pbrMetallicRoughness":{
				"baseColorTexture":{
					"index":9
				},
				"metallicFactor":0,
				"metallicRoughnessTexture":{
					"index":10
				}
			}
		}
	],
	"meshes":[
		{
			"name":"walls.002-col.005",
			"primitives":[
				{
					"attributes":{
						"POSITION":0,
						"NORMAL":1,
						"TEXCOORD_0":2
					},
					"indices":3,
					"material":0
				},
				{
					"attributes":{
						"POSITION":4,
						"NORMAL":5,
						"TEXCOORD_0":6
					},
					"indices":7,
					"material":1
				}
			]
		},
		{
			"name":"walls.002-col.005",
			"primitives":[
				{
					"attributes":{
						"POSITION":8,
						"NORMAL":9,
						"TEXCOORD_0":10
					},
					"indices":3,
					"material":0
				},
				{
					"attributes":{
						"POSITION":11,
						"NORMAL":12,
						"TEXCOORD_0":13
					},
					"indices":7,
					"material":1
				}
			]
		},
		{
			"name":"ceiling-col.005",
			"primitives":[
				{
					"attributes":{
						"POSITION":14,
						"NORMAL":15,
						"TEXCOORD_0":16
					},
					"indices":17,
					"material":2
				}
			]
		},
		{
			"name":"ground.010",
			"primitives":[
				{
					"attributes":{
						"POSITION":18,
						"NORMAL":19,
						"TEXCOORD_0":20
					},
					"indices":21,
					"material":1
				}
			]
		},
		{
			"name":"ground_prop.009",
			"primitives":[
				{
					"attributes":{
						"POSITION":22,
						"NORMAL":23,
						"TEXCOORD_0":24
					},
					"indices":25,
					"material":1
				}
			]
		},
		{
			"name":"rails_carts.005-convcol.003",
			"primitives":[
				{
					"attributes":{
						"POSITION":26,
						"NORMAL":27,
						"TEXCOORD_0":28
					},
					"indices":29,
					"material":3
				},
				{
					"attributes":{
						"POSITION":30,
						"NORMAL":31,
						"TEXCOORD_0":32
					},
					"indices":33,
					"material":4
				}
			]
		},
		{
			"name":"ground_coll-colonly.006",
			"primitives":[
				{
					"attributes":{
						"POSITION":34,
						"NORMAL":35,
						"TEXCOORD_0":36
					},
					"indices":37
				}
			]
		},
		{
			"name":"door_closed.004",
			"primitives":[
				{
					"attributes":{
						"POSITION":38,
						"NORMAL":39,
						"TEXCOORD_0":40
					},
					"indices":41,
					"material":0
				}
			]
		}
	],
	"textures":[
		{
			"sampler":0,
			"source":0
		},
		{
			"sampler":0,
			"source":1
		},
		{
			"sampler":0,
			"source":2
		},
		{
			"sampler":0,
			"source":3
		},
		{
			"sampler":0,
			"source":1
		},
		{
			"sampler":0,
			"source":2
		},
		{
			"sampler":0,
			"source":3
		},
		{
			"sampler":0,
			"source":4
		},
		{
			"sampler":0,
			"source":5
		},
		{
			"sampler":0,
			"source":6
		},
		{
			"sampler":0,
			"source":7
		}
	],
	"images":[
		{
			"mimeType":"image/png",
			"name":"support_walls",
			"uri":"../../textures/support_walls.png"
		},
		{
			"mimeType":"image/png",
			"name":"T_rock_face_03_normal",
			"uri":"../../textures/T_rock_face_03_normal.png"
		},
		{
			"mimeType":"image/png",
			"name":"T_rock_face_03_basecolor",
			"uri":"../../textures/T_rock_face_03_basecolor.png"
		},
		{
			"mimeType":"image/png",
			"name":"T_rock_face_03_roughness",
			"uri":"../../textures/T_rock_face_03_roughness.png"
		},
		{
			"mimeType":"image/png",
			"name":"support_walls.png",
			"uri":"../../textures/support_walls.png.png"
		},
		{
			"mimeType":"image/png",
			"name":"T_rusty_metal_grid_normal",
			"uri":"../../textures/T_rusty_metal_grid_normal.png"
		},
		{
			"mimeType":"image/png",
			"name":"T_rusty_metal_grid_basecolor",
			"uri":"../../textures/T_rusty_metal_grid_basecolor.png"
		},
		{
			"mimeType":"image/png",
			"name":"T_rusty_metal_grid_roughness",
			"uri":"../../textures/T_rusty_metal_grid_roughness.png"
		}
	],
	"accessors":[
		{
			"bufferView":0,
			"componentType":5126,
			"count":56,
			"max":[
				20,
				0.3471536636352539,
				1.6332823038101196
			],
			"min":[
				-20,
				-3.406614065170288,
				-0.5000038146972656
			],
			"type":"VEC3"
		},
		{
			"bufferView":1,
			"componentType":5126,
			"count":56,
			"type":"VEC3"
		},
		{
			"bufferView":2,
			"componentType":5126,
			"count":56,
			"type":"VEC2"
		},
		{
			"bufferView":3,
			"componentType":5123,
			"count":84,
			"type":"SCALAR"
		},
		{
			"bufferView":4,
			"componentType":5126,
			"count":34,
			"max":[
				2.5190422534942627,
				0.3471536636352539,
				1.6332836151123047
			],
			"min":[
				-2.5190422534942627,
				-0.971207857131958,
				-1.9073486328125e-06
			],
			"type":"VEC3"
		},
		{
			"bufferView":5,
			"componentType":5126,
			"count":34,
			"type":"VEC3"
		},
		{
			"bufferView":6,
			"componentType":5126,
			"count":34,
			"type":"VEC2"
		},
		{
			"bufferView":7,
			"componentType":5123,
			"count":42,
			"type":"SCALAR"
		},
		{
			"bufferView":8,
			"componentType":5126,
			"count":56,
			"max":[
				20,
				0.3471536636352539,
				1.6332823038101196
			],
			"min":[
				-20,
				-3.406614065170288,
				-0.5000038146972656
			],
			"type":"VEC3"
		},
		{
			"bufferView":9,
			"componentType":5126,
			"count":56,
			"type":"VEC3"
		},
		{
			"bufferView":10,
			"componentType":5126,
			"count":56,
			"type":"VEC2"
		},
		{
			"bufferView":11,
			"componentType":5126,
			"count":34,
			"max":[
				2.5190422534942627,
				0.3471536636352539,
				1.6332836151123047
			],
			"min":[
				-2.5190422534942627,
				-0.971207857131958,
				-1.9073486328125e-06
			],
			"type":"VEC3"
		},
		{
			"bufferView":12,
			"componentType":5126,
			"count":34,
			"type":"VEC3"
		},
		{
			"bufferView":13,
			"componentType":5126,
			"count":34,
			"type":"VEC2"
		},
		{
			"bufferView":14,
			"componentType":5126,
			"count":505,
			"max":[
				4.4554362297058105,
				6.234963417053223,
				20.071500778198242
			],
			"min":[
				-9.74001407623291,
				-0.17362244427204132,
				-20.071500778198242
			],
			"type":"VEC3"
		},
		{
			"bufferView":15,
			"componentType":5126,
			"count":505,
			"type":"VEC3"
		},
		{
			"bufferView":16,
			"componentType":5126,
			"count":505,
			"type":"VEC2"
		},
		{
			"bufferView":17,
			"componentType":5123,
			"count":1716,
			"type":"SCALAR"
		},
		{
			"bufferView":18,
			"componentType":5126,
			"count":1089,
			"max":[
				20.500003814697266,
				-0.04776614159345627,
				20.500003814697266
			],
			"min":[
				-20.500001907348633,
				-0.04777951538562775,
				-20.500003814697266
			],
			"type":"VEC3"
		},
		{
			"bufferView":19,
			"componentType":5126,
			"count":1089,
			"type":"VEC3"
		},
		{
			"bufferView":20,
			"componentType":5126,
			"count":1089,
			"type":"VEC2"
		},
		{
			"bufferView":21,
			"componentType":5123,
			"count":6144,
			"type":"SCALAR"
		},
		{
			"bufferView":22,
			"componentType":5126,
			"count":1176,
			"max":[
				15.059782981872559,
				1.4756734371185303,
				4.843944549560547
			],
			"min":[
				-16.56217384338379,
				-0.2625533938407898,
				-10.995012283325195
			],
			"type":"VEC3"
		},
		{
			"bufferView":23,
			"componentType":5126,
			"count":1176,
			"type":"VEC3"
		},
		{
			"bufferView":24,
			"componentType":5126,
			"count":1176,
			"type":"VEC2"
		},
		{
			"bufferView":25,
			"componentType":5123,
			"count":1764,
			"type":"SCALAR"
		},
		{
			"bufferView":26,
			"componentType":5126,
			"count":1417,
			"max":[
				0.744759738445282,
				0.5991067886352539,
				0.5748096108436584
			],
			"min":[
				-0.9620000123977661,
				-0.18443159759044647,
				-0.5748096108436584
			],
			"type":"VEC3"
		},
		{
			"bufferView":27,
			"componentType":5126,
			"count":1417,
			"type":"VEC3"
		},
		{
			"bufferView":28,
			"componentType":5126,
			"count":1417,
			"type":"VEC2"
		},
		{
			"bufferView":29,
			"componentType":5123,
			"count":3948,
			"type":"SCALAR"
		},
		{
			"bufferView":30,
			"componentType":5126,
			"count":339,
			"max":[
				0.8054825067520142,
				0.7647714614868164,
				0.5915541052818298
			],
			"min":[
				-0.8269897699356079,
				-0.051721177995204926,
				-0.5915541052818298
			],
			"type":"VEC3"
		},
		{
			"bufferView":31,
			"componentType":5126,
			"count":339,
			"type":"VEC3"
		},
		{
			"bufferView":32,
			"componentType":5126,
			"count":339,
			"type":"VEC2"
		},
		{
			"bufferView":33,
			"componentType":5123,
			"count":624,
			"type":"SCALAR"
		},
		{
			"bufferView":34,
			"componentType":5126,
			"count":4,
			"max":[
				20.5,
				0,
				20.5
			],
			"min":[
				-20.5,
				0,
				-20.5
			],
			"type":"VEC3"
		},
		{
			"bufferView":35,
			"componentType":5126,
			"count":4,
			"type":"VEC3"
		},
		{
			"bufferView":36,
			"componentType":5126,
			"count":4,
			"type":"VEC2"
		},
		{
			"bufferView":37,
			"componentType":5123,
			"count":6,
			"type":"SCALAR"
		},
		{
			"bufferView":38,
			"componentType":5126,
			"count":26664,
			"max":[
				-7.6497883796691895,
				0.07751419395208359,
				10.66635513305664
			],
			"min":[
				-10.514684677124023,
				-0.12869210541248322,
				-7.555857181549072
			],
			"type":"VEC3"
		},
		{
			"bufferView":39,
			"componentType":5126,
			"count":26664,
			"type":"VEC3"
		},
		{
			"bufferView":40,
			"componentType":5126,
			"count":26664,
			"type":"VEC2"
		},
		{
			"bufferView":41,
			"componentType":5123,
			"count":75936,
			"type":"SCALAR"
		}
	],
	"bufferViews":[
		{
			"buffer":0,
			"byteLength":672,
			"byteOffset":0,
			"target":34962
		},
		{
			"buffer":0,
			"byteLength":672,
			"byteOffset":672,
			"target":34962
		},
		{
			"buffer":0,
			"byteLength":448,
			"byteOffset":1344,
			"target":34962
		},
		{
			"buffer":0,
			"byteLength":168,
			"byteOffset":1792,
			"target":34963
		},
		{
			"buffer":0,
			"byteLength":408,
			"byteOffset":1960,
			"target":34962
		},
		{
			"buffer":0,
			"byteLength":408,
			"byteOffset":2368,
			"target":34962
		},
		{
			"buffer":0,
			"byteLength":272,
			"byteOffset":2776,
			"target":34962
		},
		{
			"buffer":0,
			"byteLength":84,
			"byteOffset":3048,
			"target":34963
		},
		{
			"buffer":0,
			"byteLength":672,
			"byteOffset":3132,
			"target":34962
		},
		{
			"buffer":0,
			"byteLength":672,
			"byteOffset":3804,
			"target":34962
		},
		{
			"buffer":0,
			"byteLength":448,
			"byteOffset":4476,
			"target":34962
		},
		{
			"buffer":0,
			"byteLength":408,
			"byteOffset":4924,
			"target":34962
		},
		{
			"buffer":0,
			"byteLength":408,
			"byteOffset":5332,
			"target":34962
		},
		{
			"buffer":0,
			"byteLength":272,
			"byteOffset":5740,
			"target":34962
		},
		{
			"buffer":0,
			"byteLength":6060,
			"byteOffset":6012,
			"target":34962
		},
		{
			"buffer":0,
			"byteLength":6060,
			"byteOffset":12072,
			"target":34962
		},
		{
			"buffer":0,
			"byteLength":4040,
			"byteOffset":18132,
			"target":34962
		},
		{
			"buffer":0,
			"byteLength":3432,
			"byteOffset":22172,
			"target":34963
		},
		{
			"buffer":0,
			"byteLength":13068,
			"byteOffset":25604,
			"target":34962
		},
		{
			"buffer":0,
			"byteLength":13068,
			"byteOffset":38672,
			"target":34962
		},
		{
			"buffer":0,
			"byteLength":8712,
			"byteOffset":51740,
			"target":34962
		},
		{
			"buffer":0,
			"byteLength":12288,
			"byteOffset":60452,
			"target":34963
		},
		{
			"buffer":0,
			"byteLength":14112,
			"byteOffset":72740,
			"target":34962
		},
		{
			"buffer":0,
			"byteLength":14112,
			"byteOffset":86852,
			"target":34962
		},
		{
			"buffer":0,
			"byteLength":9408,
			"byteOffset":100964,
			"target":34962
		},
		{
			"buffer":0,
			"byteLength":3528,
			"byteOffset":110372,
			"target":34963
		},
		{
			"buffer":0,
			"byteLength":17004,
			"byteOffset":113900,
			"target":34962
		},
		{
			"buffer":0,
			"byteLength":17004,
			"byteOffset":130904,
			"target":34962
		},
		{
			"buffer":0,
			"byteLength":11336,
			"byteOffset":147908,
			"target":34962
		},
		{
			"buffer":0,
			"byteLength":7896,
			"byteOffset":159244,
			"target":34963
		},
		{
			"buffer":0,
			"byteLength":4068,
			"byteOffset":167140,
			"target":34962
		},
		{
			"buffer":0,
			"byteLength":4068,
			"byteOffset":171208,
			"target":34962
		},
		{
			"buffer":0,
			"byteLength":2712,
			"byteOffset":175276,
			"target":34962
		},
		{
			"buffer":0,
			"byteLength":1248,
			"byteOffset":177988,
			"target":34963
		},
		{
			"buffer":0,
			"byteLength":48,
			"byteOffset":179236,
			"target":34962
		},
		{
			"buffer":0,
			"byteLength":48,
			"byteOffset":179284,
			"target":34962
		},
		{
			"buffer":0,
			"byteLength":32,
			"byteOffset":179332,
			"target":34962
		},
		{
			"buffer":0,
			"byteLength":12,
			"byteOffset":179364,
			"target":34963
		},
		{
			"buffer":0,
			"byteLength":319968,
			"byteOffset":179376,
			"target":34962
		},
		{
			"buffer":0,
			"byteLength":319968,
			"byteOffset":499344,
			"target":34962
		},
		{
			"buffer":0,
			"byteLength":213312,
			"byteOffset":819312,
			"target":34962
		},
		{
			"buffer":0,
			"byteLength":151872,
			"byteOffset":1032624,
			"target":34963
		}
	],
	"samplers":[
		{
			"magFilter":9728,
			"minFilter":9984
		}
	],
	"buffers":[
		{
			"byteLength":1184496,
			"uri":"lvl8_mesh.bin"
		}
	]
}
