{
	"asset":{
		"generator":"Khronos glTF Blender I/O v5.1.19",
		"version":"2.0"
	},
	"scene":0,
	"scenes":[
		{
			"name":"lvl9_nav_mesh",
			"nodes":[
				1
			]
		}
	],
	"nodes":[
		{
			"mesh":0,
			"name":"lvl9_nav_mesh.005",
			"translation":[
				0,
				-0.08528178185224533,
				0
			]
		},
		{
			"children":[
				0
			],
			"name":"lvl9_nav_mesh"
		}
	],
	"meshes":[
		{
			"name":"lvl9_nav_mesh.005",
			"primitives":[
				{
					"attributes":{
						"POSITION":0,
						"NORMAL":1,
						"TEXCOORD_0":2
					},
					"indices":3
				}
			]
		}
	],
	"accessors":[
		{
			"bufferView":0,
			"componentType":5126,
			"count":10,
			"max":[
				20.500001907348633,
				-1.4901161193847656e-08,
				20.500003814697266
			],
			"min":[
				-20.500001907348633,
				-1.4901161193847656e-08,
				-2.5190439224243164
			],
			"type":"VEC3"
		},
		{
			"bufferView":1,
			"componentType":5126,
			"count":10,
			"type":"VEC3"
		},
		{
			"bufferView":2,
			"componentType":5126,
			"count":10,
			"type":"VEC2"
		},
		{
			"bufferView":3,
			"componentType":5123,
			"count":24,
			"type":"SCALAR"
		}
	],
	"bufferViews":[
		{
			"buffer":0,
			"byteLength":120,
			"byteOffset":0,
			"target":34962
		},
		{
			"buffer":0,
			"byteLength":120,
			"byteOffset":120,
			"target":34962
		},
		{
			"buffer":0,
			"byteLength":80,
			"byteOffset":240,
			"target":34962
		},
		{
			"buffer":0,
			"byteLength":48,
			"byteOffset":320,
			"target":34963
		}
	],
	"buffers":[
		{
			"byteLength":368,
			"uri":"lvl9_nav_mesh.bin"
		}
	]
}
