{
	"asset":{
		"generator":"Khronos glTF Blender I/O v5.1.19",
		"version":"2.0"
	},
	"scene":0,
	"scenes":[
		{
			"name":"lvl9_mesh",
			"nodes":[
				21
			]
		}
	],
	"nodes":[
		{
			"mesh":0,
			"name":"walls-col.005",
			"rotation":[
				0,
				0.7071068286895752,
				0,
				0.7071068286895752
			],
			"translation":[
				-20,
				3.406614065170288,
				0
			]
		},
		{
			"mesh":1,
			"name":"walls.001-col.004",
			"rotation":[
				0,
				-0.7071068286895752,
				0,
				0.7071068286895752
			],
			"translation":[
				20,
				3.406614065170288,
				0
			]
		},
		{
			"mesh":2,
			"name":"walls.002-col.006",
			"rotation":[
				0,
				-1,
				0,
				1.6292068494294654e-07
			],
			"translation":[
				0,
				3.406614065170288,
				20
			]
		},
		{
			"mesh":3,
			"name":"ceiling-col.007"
		},
		{
			"children":[
				0,
				1,
				2,
				3
			],
			"name":"walls.010"
		},
		{
			"mesh":4,
			"name":"ground.010",
			"rotation":[
				-1,
				0,
				0,
				1.6292068494294654e-07
			],
			"translation":[
				0,
				-0.04777282476425171,
				0
			]
		},
		{
			"children":[
				5
			],
			"name":"ground.010"
		},
		{
			"mesh":5,
			"name":"ground_prop.009",
			"rotation":[
				0,
				0.7071067094802856,
				0,
				0.7071068286895752
			],
			"translation":[
				5.344171524047852,
				0.28701263666152954,
				5.4860615730285645
			]
		},
		{
			"mesh":6,
			"name":"ground_prop.010",
			"rotation":[
				0,
				0.7071067094802856,
				0,
				0.7071068286895752
			],
			"translation":[
				11.02205753326416,
				0.28701263666152954,
				4.814421653747559
			]
		},
		{
			"mesh":7,
			"name":"ground_prop.011",
			"rotation":[
				0.02713894657790661,
				0.6936604380607605,
				-0.08131003379821777,
				0.7151834964752197
			],
			"translation":[
				-5.132530212402344,
				0.28701263666152954,
				4.730735778808594
			]
		},
		{
			"mesh":8,
			"name":"ground_prop.012",
			"rotation":[
				0,
				0.7071067094802856,
				0,
				0.7071068286895752
			],
			"translation":[
				-4.239030361175537,
				0.28701263666152954,
				16.630451202392578
			]
		},
		{
			"mesh":9,
			"name":"ground_prop.013",
			"rotation":[
				0,
				0.7071067094802856,
				0,
				0.7071068286895752
			],
			"translation":[
				5.653005599975586,
				0.6253876090049744,
				-7.049585342407227
			]
		},
		{
			"mesh":10,
			"name":"ground_prop.014",
			"rotation":[
				0,
				0.3826834261417389,
				0,
				0.9238795638084412
			],
			"translation":[
				-3.8219966888427734,
				0.6185091733932495,
				-7.8623762130737305
			]
		},
		{
			"mesh":11,
			"name":"ground_prop.015",
			"rotation":[
				0,
				0.9762960076332092,
				0,
				0.2164396345615387
			],
			"translation":[
				-0.5905876159667969,
				0.28701263666152954,
				-8.246850967407227
			]
		},
		{
			"mesh":9,
			"name":"ground_prop.016-convcol",
			"rotation":[
				0.7337725162506104,
				0.1351393759250641,
				0.6033374071121216,
				0.2816011607646942
			],
			"translation":[
				5.587177276611328,
				3.388038396835327,
				-5.533658027648926
			]
		},
		{
			"mesh":9,
			"name":"ground_prop.017-convcol",
			"rotation":[
				-0.7740960717201233,
				-0.05027776211500168,
				-0.6307739019393921,
				0.019282009452581406
			],
			"translation":[
				-6.128222465515137,
				4.754318714141846,
				-2.506477117538452
			]
		},
		{
			"children":[
				7,
				8,
				9,
				10,
				11,
				12,
				13,
				14,
				15
			],
			"name":"ground_prop.009"
		},
		{
			"children":[
				16
			],
			"name":"props.010"
		},
		{
			"name":"props_affecting_nav_mesh.010"
		},
		{
			"mesh":12,
			"name":"ground_coll-colonly.006"
		},
		{
			"children":[
				19
			],
			"name":"ground_coll.010"
		},
		{
			"children":[
				4,
				6,
				17,
				18,
				20
			],
			"name":"lvl9_mesh"
		}
	],
	"materials":[
		{
			"doubleSided":true,
			"name":"M_support_walls",
			"pbrMetallicRoughness":{
				"baseColorTexture":{
					"index":0
				},
				"metallicFactor":0
			}
		},
		{
			"doubleSided":true,
			"name":"M_rock_face_03",
			"normalTexture":{
				"index":1
			},
			"pbrMetallicRoughness":{
				"baseColorTexture":{
					"index":2
				},
				"metallicFactor":0,
				"metallicRoughnessTexture":{
					"index":3
				}
			}
		},
		{
			"doubleSided":true,
			"name":"M_rock_face_03.009",
			"normalTexture":{
				"index":4
			},
			"pbrMetallicRoughness":{
				"baseColorTexture":{
					"index":5
				},
				"metallicFactor":0,
				"metallicRoughnessTexture":{
					"index":6
				}
			}
		},
		{
			"doubleSided":true,
			"name":"M_rock_face_03.008",
			"normalTexture":{
				"index":7
			},
			"pbrMetallicRoughness":{
				"baseColorTexture":{
					"index":8
				},
				"metallicFactor":0,
				"metallicRoughnessTexture":{
					"index":9
				}
			}
		}
	],
	"meshes":[
		{
			"name":"walls.002-col.004",
			"primitives":[
				{
					"attributes":{
						"POSITION":0,
						"NORMAL":1,
						"TEXCOORD_0":2
					},
					"indices":3,
					"material":0
				},
				{
					"attributes":{
						"POSITION":4,
						"NORMAL":5,
						"TEXCOORD_0":6
					},
					"indices":7,
					"material":1
				}
			]
		},
		{
			"name":"walls.002-col.004",
			"primitives":[
				{
					"attributes":{
						"POSITION":8,
						"NORMAL":9,
						"TEXCOORD_0":10
					},
					"indices":3,
					"material":0
				},
				{
					"attributes":{
						"POSITION":11,
						"NORMAL":12,
						"TEXCOORD_0":13
					},
					"indices":7,
					"material":1
				}
			]
		},
		{
			"name":"walls.002-col.004",
			"primitives":[
				{
					"attributes":{
						"POSITION":14,
						"NORMAL":15,
						"TEXCOORD_0":16
					},
					"indices":3,
					"material":0
				},
				{
					"attributes":{
						"POSITION":17,
						"NORMAL":18,
						"TEXCOORD_0":19
					},
					"indices":7,
					"material":1
				}
			]
		},
		{
			"name":"ceiling-col.008",
			"primitives":[
				{
					"attributes":{
						"POSITION":20,
						"NORMAL":21,
						"TEXCOORD_0":22
					},
					"indices":23,
					"material":2
				}
			]
		},
		{
			"name":"ground.012",
			"primitives":[
				{
					"attributes":{
						"POSITION":24,
						"NORMAL":25,
						"TEXCOORD_0":26
					},
					"indices":27,
					"material":3
				}
			]
		},
		{
			"name":"ground_prop.007",
			"primitives":[
				{
					"attributes":{
						"POSITION":28,
						"NORMAL":29,
						"TEXCOORD_0":30
					},
					"indices":31,
					"material":1
				}
			]
		},
		{
			"name":"ground_prop.010",
			"primitives":[
				{
					"attributes":{
						"POSITION":32,
						"NORMAL":33,
						"TEXCOORD_0":34
					},
					"indices":35,
					"material":1
				}
			]
		},
		{
			"name":"ground_prop.011",
			"primitives":[
				{
					"attributes":{
						"POSITION":36,
						"NORMAL":37,
						"TEXCOORD_0":38
					},
					"indices":35,
					"material":1
				}
			]
		},
		{
			"name":"ground_prop.012",
			"primitives":[
				{
					"attributes":{
						"POSITION":39,
						"NORMAL":40,
						"TEXCOORD_0":41
					},
					"indices":35,
					"material":1
				}
			]
		},
		{
			"name":"ground_prop.016-convcol",
			"primitives":[
				{
					"attributes":{
						"POSITION":42,
						"NORMAL":43,
						"TEXCOORD_0":44
					},
					"indices":35,
					"material":1
				}
			]
		},
		{
			"name":"ground_prop.014",
			"primitives":[
				{
					"attributes":{
						"POSITION":45,
						"NORMAL":46,
						"TEXCOORD_0":47
					},
					"indices":35,
					"material":1
				}
			]
		},
		{
			"name":"ground_prop.015",
			"primitives":[
				{
					"attributes":{
						"POSITION":48,
						"NORMAL":49,
						"TEXCOORD_0":50
					},
					"indices":35,
					"material":1
				}
			]
		},
		{
			"name":"ground_coll-colonly.005",
			"primitives":[
				{
					"attributes":{
						"POSITION":51,
						"NORMAL":52,
						"TEXCOORD_0":53
					},
					"indices":54
				}
			]
		}
	],
	"textures":[
		{
			"sampler":0,
			"source":0
		},
		{
			"sampler":0,
			"source":1
		},
		{
			"sampler":0,
			"source":2
		},
		{
			"sampler":0,
			"source":3
		},
		{
			"sampler":0,
			"source":1
		},
		{
			"sampler":0,
			"source":2
		},
		{
			"sampler":0,
			"source":3
		},
		{
			"sampler":0,
			"source":1
		},
		{
			"sampler":0,
			"source":2
		},
		{
			"sampler":0,
			"source":3
		}
	],
	"images":[
		{
			"mimeType":"image/png",
			"name":"support_walls",
			"uri":"../../textures/support_walls.png"
		},
		{
			"mimeType":"image/png",
			"name":"T_rock_face_03_normal",
			"uri":"../../textures/T_rock_face_03_normal.png"
		},
		{
			"mimeType":"image/png",
			"name":"T_rock_face_03_basecolor",
			"uri":"../../textures/T_rock_face_03_basecolor.png"
		},
		{
			"mimeType":"image/png",
			"name":"T_rock_face_03_roughness",
			"uri":"../../textures/T_rock_face_03_roughness.png"
		}
	],
	"accessors":[
		{
			"bufferView":0,
			"componentType":5126,
			"count":56,
			"max":[
				20,
				0.3471536636352539,
				1.6332823038101196
			],
			"min":[
				-20,
				-3.406614065170288,
				-0.5000038146972656
			],
			"type":"VEC3"
		},
		{
			"bufferView":1,
			"componentType":5126,
			"count":56,
			"type":"VEC3"
		},
		{
			"bufferView":2,
			"componentType":5126,
			"count":56,
			"type":"VEC2"
		},
		{
			"bufferView":3,
			"componentType":5123,
			"count":84,
			"type":"SCALAR"
		},
		{
			"bufferView":4,
			"componentType":5126,
			"count":34,
			"max":[
				2.5190422534942627,
				0.3471536636352539,
				1.6332836151123047
			],
			"min":[
				-2.5190422534942627,
				-0.971207857131958,
				-1.9073486328125e-06
			],
			"type":"VEC3"
		},
		{
			"bufferView":5,
			"componentType":5126,
			"count":34,
			"type":"VEC3"
		},
		{
			"bufferView":6,
			"componentType":5126,
			"count":34,
			"type":"VEC2"
		},
		{
			"bufferView":7,
			"componentType":5123,
			"count":42,
			"type":"SCALAR"
		},
		{
			"bufferView":8,
			"componentType":5126,
			"count":56,
			"max":[
				20,
				0.3471536636352539,
				1.6332823038101196
			],
			"min":[
				-20,
				-3.406614065170288,
				-0.5000038146972656
			],
			"type":"VEC3"
		},
		{
			"bufferView":9,
			"componentType":5126,
			"count":56,
			"type":"VEC3"
		},
		{
			"bufferView":10,
			"componentType":5126,
			"count":56,
			"type":"VEC2"
		},
		{
			"bufferView":11,
			"componentType":5126,
			"count":34,
			"max":[
				2.5190422534942627,
				0.3471536636352539,
				1.6332836151123047
			],
			"min":[
				-2.5190422534942627,
				-0.971207857131958,
				-1.9073486328125e-06
			],
			"type":"VEC3"
		},
		{
			"bufferView":12,
			"componentType":5126,
			"count":34,
			"type":"VEC3"
		},
		{
			"bufferView":13,
			"componentType":5126,
			"count":34,
			"type":"VEC2"
		},
		{
			"bufferView":14,
			"componentType":5126,
			"count":56,
			"max":[
				20,
				0.3471536636352539,
				1.6332823038101196
			],
			"min":[
				-20,
				-3.406614065170288,
				-0.5000038146972656
			],
			"type":"VEC3"
		},
		{
			"bufferView":15,
			"componentType":5126,
			"count":56,
			"type":"VEC3"
		},
		{
			"bufferView":16,
			"componentType":5126,
			"count":56,
			"type":"VEC2"
		},
		{
			"bufferView":17,
			"componentType":5126,
			"count":34,
			"max":[
				2.5190422534942627,
				0.3471536636352539,
				1.6332836151123047
			],
			"min":[
				-2.5190422534942627,
				-0.971207857131958,
				-1.9073486328125e-06
			],
			"type":"VEC3"
		},
		{
			"bufferView":18,
			"componentType":5126,
			"count":34,
			"type":"VEC3"
		},
		{
			"bufferView":19,
			"componentType":5126,
			"count":34,
			"type":"VEC2"
		},
		{
			"bufferView":20,
			"componentType":5126,
			"count":386,
			"max":[
				20.000003814697266,
				6.225185394287109,
				20.071500778198242
			],
			"min":[
				-20.000003814697266,
				-0.1736224740743637,
				-10.240191459655762
			],
			"type":"VEC3"
		},
		{
			"bufferView":21,
			"componentType":5126,
			"count":386,
			"type":"VEC3"
		},
		{
			"bufferView":22,
			"componentType":5126,
			"count":386,
			"type":"VEC2"
		},
		{
			"bufferView":23,
			"componentType":5123,
			"count":1902,
			"type":"SCALAR"
		},
		{
			"bufferView":24,
			"componentType":5126,
			"count":1089,
			"max":[
				20.500003814697266,
				-0.04776614159345627,
				20.500003814697266
			],
			"min":[
				-20.500001907348633,
				-0.04777951538562775,
				-20.500003814697266
			],
			"type":"VEC3"
		},
		{
			"bufferView":25,
			"componentType":5126,
			"count":1089,
			"type":"VEC3"
		},
		{
			"bufferView":26,
			"componentType":5126,
			"count":1089,
			"type":"VEC2"
		},
		{
			"bufferView":27,
			"componentType":5123,
			"count":6144,
			"type":"SCALAR"
		},
		{
			"bufferView":28,
			"componentType":5126,
			"count":168,
			"max":[
				2.4965620040893555,
				0.6937061548233032,
				2.508535385131836
			],
			"min":[
				-2.4965620040893555,
				-0.6937061548233032,
				-2.508535385131836
			],
			"type":"VEC3"
		},
		{
			"bufferView":29,
			"componentType":5126,
			"count":168,
			"type":"VEC3"
		},
		{
			"bufferView":30,
			"componentType":5126,
			"count":168,
			"type":"VEC2"
		},
		{
			"bufferView":31,
			"componentType":5123,
			"count":252,
			"type":"SCALAR"
		},
		{
			"bufferView":32,
			"componentType":5126,
			"count":168,
			"max":[
				2.4965620040893555,
				0.6937061548233032,
				2.508535385131836
			],
			"min":[
				-2.4965620040893555,
				-0.6937061548233032,
				-2.508535385131836
			],
			"type":"VEC3"
		},
		{
			"bufferView":33,
			"componentType":5126,
			"count":168,
			"type":"VEC3"
		},
		{
			"bufferView":34,
			"componentType":5126,
			"count":168,
			"type":"VEC2"
		},
		{
			"bufferView":35,
			"componentType":5123,
			"count":252,
			"type":"SCALAR"
		},
		{
			"bufferView":36,
			"componentType":5126,
			"count":168,
			"max":[
				2.4965620040893555,
				0.6937061548233032,
				2.508535385131836
			],
			"min":[
				-2.4965620040893555,
				-0.6937061548233032,
				-2.508535385131836
			],
			"type":"VEC3"
		},
		{
			"bufferView":37,
			"componentType":5126,
			"count":168,
			"type":"VEC3"
		},
		{
			"bufferView":38,
			"componentType":5126,
			"count":168,
			"type":"VEC2"
		},
		{
			"bufferView":39,
			"componentType":5126,
			"count":168,
			"max":[
				2.4965620040893555,
				0.6937061548233032,
				2.508535146713257
			],
			"min":[
				-2.496562957763672,
				-0.6937061548233032,
				-2.508535385131836
			],
			"type":"VEC3"
		},
		{
			"bufferView":40,
			"componentType":5126,
			"count":168,
			"type":"VEC3"
		},
		{
			"bufferView":41,
			"componentType":5126,
			"count":168,
			"type":"VEC2"
		},
		{
			"bufferView":42,
			"componentType":5126,
			"count":168,
			"max":[
				2.4965620040893555,
				0.6937061548233032,
				2.508535385131836
			],
			"min":[
				-2.4965620040893555,
				-0.6937061548233032,
				-2.508535385131836
			],
			"type":"VEC3"
		},
		{
			"bufferView":43,
			"componentType":5126,
			"count":168,
			"type":"VEC3"
		},
		{
			"bufferView":44,
			"componentType":5126,
			"count":168,
			"type":"VEC2"
		},
		{
			"bufferView":45,
			"componentType":5126,
			"count":168,
			"max":[
				2.4965620040893555,
				0.6937061548233032,
				2.508535623550415
			],
			"min":[
				-2.4965620040893555,
				-0.6937061548233032,
				-2.508535385131836
			],
			"type":"VEC3"
		},
		{
			"bufferView":46,
			"componentType":5126,
			"count":168,
			"type":"VEC3"
		},
		{
			"bufferView":47,
			"componentType":5126,
			"count":168,
			"type":"VEC2"
		},
		{
			"bufferView":48,
			"componentType":5126,
			"count":168,
			"max":[
				2.4965620040893555,
				0.6937061548233032,
				2.508535385131836
			],
			"min":[
				-2.4965620040893555,
				-0.6937061548233032,
				-2.508535385131836
			],
			"type":"VEC3"
		},
		{
			"bufferView":49,
			"componentType":5126,
			"count":168,
			"type":"VEC3"
		},
		{
			"bufferView":50,
			"componentType":5126,
			"count":168,
			"type":"VEC2"
		},
		{
			"bufferView":51,
			"componentType":5126,
			"count":4,
			"max":[
				20.5,
				0,
				20.5
			],
			"min":[
				-20.5,
				0,
				-20.5
			],
			"type":"VEC3"
		},
		{
			"bufferView":52,
			"componentType":5126,
			"count":4,
			"type":"VEC3"
		},
		{
			"bufferView":53,
			"componentType":5126,
			"count":4,
			"type":"VEC2"
		},
		{
			"bufferView":54,
			"componentType":5123,
			"count":6,
			"type":"SCALAR"
		}
	],
	"bufferViews":[
		{
			"buffer":0,
			"byteLength":672,
			"byteOffset":0,
			"target":34962
		},
		{
			"buffer":0,
			"byteLength":672,
			"byteOffset":672,
			"target":34962
		},
		{
			"buffer":0,
			"byteLength":448,
			"byteOffset":1344,
			"target":34962
		},
		{
			"buffer":0,
			"byteLength":168,
			"byteOffset":1792,
			"target":34963
		},
		{
			"buffer":0,
			"byteLength":408,
			"byteOffset":1960,
			"target":34962
		},
		{
			"buffer":0,
			"byteLength":408,
			"byteOffset":2368,
			"target":34962
		},
		{
			"buffer":0,
			"byteLength":272,
			"byteOffset":2776,
			"target":34962
		},
		{
			"buffer":0,
			"byteLength":84,
			"byteOffset":3048,
			"target":34963
		},
		{
			"buffer":0,
			"byteLength":672,
			"byteOffset":3132,
			"target":34962
		},
		{
			"buffer":0,
			"byteLength":672,
			"byteOffset":3804,
			"target":34962
		},
		{
			"buffer":0,
			"byteLength":448,
			"byteOffset":4476,
			"target":34962
		},
		{
			"buffer":0,
			"byteLength":408,
			"byteOffset":4924,
			"target":34962
		},
		{
			"buffer":0,
			"byteLength":408,
			"byteOffset":5332,
			"target":34962
		},
		{
			"buffer":0,
			"byteLength":272,
			"byteOffset":5740,
			"target":34962
		},
		{
			"buffer":0,
			"byteLength":672,
			"byteOffset":6012,
			"target":34962
		},
		{
			"buffer":0,
			"byteLength":672,
			"byteOffset":6684,
			"target":34962
		},
		{
			"buffer":0,
			"byteLength":448,
			"byteOffset":7356,
			"target":34962
		},
		{
			"buffer":0,
			"byteLength":408,
			"byteOffset":7804,
			"target":34962
		},
		{
			"buffer":0,
			"byteLength":408,
			"byteOffset":8212,
			"target":34962
		},
		{
			"buffer":0,
			"byteLength":272,
			"byteOffset":8620,
			"target":34962
		},
		{
			"buffer":0,
			"byteLength":4632,
			"byteOffset":8892,
			"target":34962
		},
		{
			"buffer":0,
			"byteLength":4632,
			"byteOffset":13524,
			"target":34962
		},
		{
			"buffer":0,
			"byteLength":3088,
			"byteOffset":18156,
			"target":34962
		},
		{
			"buffer":0,
			"byteLength":3804,
			"byteOffset":21244,
			"target":34963
		},
		{
			"buffer":0,
			"byteLength":13068,
			"byteOffset":25048,
			"target":34962
		},
		{
			"buffer":0,
			"byteLength":13068,
			"byteOffset":38116,
			"target":34962
		},
		{
			"buffer":0,
			"byteLength":8712,
			"byteOffset":51184,
			"target":34962
		},
		{
			"buffer":0,
			"byteLength":12288,
			"byteOffset":59896,
			"target":34963
		},
		{
			"buffer":0,
			"byteLength":2016,
			"byteOffset":72184,
			"target":34962
		},
		{
			"buffer":0,
			"byteLength":2016,
			"byteOffset":74200,
			"target":34962
		},
		{
			"buffer":0,
			"byteLength":1344,
			"byteOffset":76216,
			"target":34962
		},
		{
			"buffer":0,
			"byteLength":504,
			"byteOffset":77560,
			"target":34963
		},
		{
			"buffer":0,
			"byteLength":2016,
			"byteOffset":78064,
			"target":34962
		},
		{
			"buffer":0,
			"byteLength":2016,
			"byteOffset":80080,
			"target":34962
		},
		{
			"buffer":0,
			"byteLength":1344,
			"byteOffset":82096,
			"target":34962
		},
		{
			"buffer":0,
			"byteLength":504,
			"byteOffset":83440,
			"target":34963
		},
		{
			"buffer":0,
			"byteLength":2016,
			"byteOffset":83944,
			"target":34962
		},
		{
			"buffer":0,
			"byteLength":2016,
			"byteOffset":85960,
			"target":34962
		},
		{
			"buffer":0,
			"byteLength":1344,
			"byteOffset":87976,
			"target":34962
		},
		{
			"buffer":0,
			"byteLength":2016,
			"byteOffset":89320,
			"target":34962
		},
		{
			"buffer":0,
			"byteLength":2016,
			"byteOffset":91336,
			"target":34962
		},
		{
			"buffer":0,
			"byteLength":1344,
			"byteOffset":93352,
			"target":34962
		},
		{
			"buffer":0,
			"byteLength":2016,
			"byteOffset":94696,
			"target":34962
		},
		{
			"buffer":0,
			"byteLength":2016,
			"byteOffset":96712,
			"target":34962
		},
		{
			"buffer":0,
			"byteLength":1344,
			"byteOffset":98728,
			"target":34962
		},
		{
			"buffer":0,
			"byteLength":2016,
			"byteOffset":100072,
			"target":34962
		},
		{
			"buffer":0,
			"byteLength":2016,
			"byteOffset":102088,
			"target":34962
		},
		{
			"buffer":0,
			"byteLength":1344,
			"byteOffset":104104,
			"target":34962
		},
		{
			"buffer":0,
			"byteLength":2016,
			"byteOffset":105448,
			"target":34962
		},
		{
			"buffer":0,
			"byteLength":2016,
			"byteOffset":107464,
			"target":34962
		},
		{
			"buffer":0,
			"byteLength":1344,
			"byteOffset":109480,
			"target":34962
		},
		{
			"buffer":0,
			"byteLength":48,
			"byteOffset":110824,
			"target":34962
		},
		{
			"buffer":0,
			"byteLength":48,
			"byteOffset":110872,
			"target":34962
		},
		{
			"buffer":0,
			"byteLength":32,
			"byteOffset":110920,
			"target":34962
		},
		{
			"buffer":0,
			"byteLength":12,
			"byteOffset":110952,
			"target":34963
		}
	],
	"samplers":[
		{
			"magFilter":9728,
			"minFilter":9984
		}
	],
	"buffers":[
		{
			"byteLength":110964,
			"uri":"lvl9_mesh.bin"
		}
	]
}
