{
	"asset":{
		"generator":"Khronos glTF Blender I/O v5.1.18",
		"version":"2.0"
	},
	"scene":0,
	"scenes":[
		{
			"name":"door_open",
			"nodes":[
				0,
				1,
				2,
				3,
				4,
				5,
				6,
				7,
				8,
				9,
				10,
				11,
				12,
				13
			]
		}
	],
	"nodes":[
		{
			"mesh":0,
			"name":"door_frame",
			"translation":[
				0,
				-0.009252604097127914,
				3.24249267578125e-05
			]
		},
		{
			"mesh":1,
			"name":"door_frame.001-colonly",
			"rotation":[
				0.7071068286895752,
				0,
				0,
				0.7071068286895752
			],
			"translation":[
				0,
				0.9943146705627441,
				0
			]
		},
		{
			"mesh":2,
			"name":"door_planks",
			"rotation":[
				-0.006438399199396372,
				0.025383230298757553,
				0.06451291590929031,
				0.9975732564926147
			],
			"translation":[
				-0.2511679530143738,
				0.34785720705986023,
				0.07274055480957031
			]
		},
		{
			"mesh":3,
			"name":"door_planks.001",
			"rotation":[
				0.04025740921497345,
				-0.07626549899578094,
				-0.5492123961448669,
				0.8312212228775024
			],
			"translation":[
				-0.32499003410339355,
				0.4826281666755676,
				0.08629989624023438
			]
		},
		{
			"mesh":4,
			"name":"door_planks.002",
			"rotation":[
				0.007155437953770161,
				-0.0012517905561253428,
				0.032284390181303024,
				0.9994523525238037
			],
			"translation":[
				-0.22472596168518066,
				0.8605221509933472,
				0.06645584106445312
			]
		},
		{
			"mesh":5,
			"name":"door_planks.003",
			"rotation":[
				-0.0030658638570457697,
				0.026006946340203285,
				-0.0664125382900238,
				0.9974486231803894
			],
			"translation":[
				-0.2510411739349365,
				1.1976979970932007,
				0.07274055480957031
			]
		},
		{
			"mesh":6,
			"name":"door_planks.004",
			"rotation":[
				-0.008165758103132248,
				0.029102886095643044,
				-0.1572498083114624,
				0.9870961904525757
			],
			"translation":[
				-0.23096130788326263,
				0.14443010091781616,
				0.06970977783203125
			]
		},
		{
			"mesh":7,
			"name":"door_planks.005",
			"rotation":[
				-0.007374770939350128,
				0.00773185258731246,
				0.05963115766644478,
				0.9981632828712463
			],
			"translation":[
				-0.251705527305603,
				0.7285357117652893,
				0.09059715270996094
			]
		},
		{
			"mesh":8,
			"name":"door_planks.006",
			"rotation":[
				-0.006438399199396372,
				0.025383230298757553,
				0.06451291590929031,
				0.9975732564926147
			],
			"translation":[
				0.17450545728206635,
				0.40303802490234375,
				0.050617218017578125
			]
		},
		{
			"mesh":9,
			"name":"door_planks.007",
			"rotation":[
				-0.035140711814165115,
				0.05511584132909775,
				0.17133933305740356,
				0.9830414056777954
			],
			"translation":[
				0.18164213001728058,
				0.5821137428283691,
				0.07213973999023438
			]
		},
		{
			"mesh":10,
			"name":"door_planks.008",
			"rotation":[
				-0.011344178579747677,
				0.0015252088196575642,
				0.13365687429904938,
				0.9909615516662598
			],
			"translation":[
				0.1691758632659912,
				0.9883095026016235,
				0.05988311767578125
			]
		},
		{
			"mesh":11,
			"name":"door_planks.009",
			"rotation":[
				-0.0030658638570457697,
				0.026006946340203285,
				-0.0664125382900238,
				0.9974486231803894
			],
			"translation":[
				0.17439088225364685,
				1.140686273574829,
				0.050617218017578125
			]
		},
		{
			"mesh":12,
			"name":"door_planks.010",
			"rotation":[
				5.283000064082444e-06,
				0.024218590930104256,
				0.06374146789312363,
				0.9976725578308105
			],
			"translation":[
				0.19521397352218628,
				0.11045639961957932,
				0.04705619812011719
			]
		},
		{
			"mesh":13,
			"name":"door_planks.011",
			"rotation":[
				-0.007374770939350128,
				0.00773185258731246,
				0.05963115766644478,
				0.9981632828712463
			],
			"translation":[
				0.17499127984046936,
				0.7796520590782166,
				0.08358573913574219
			]
		}
	],
	"materials":[
		{
			"alphaMode":"BLEND",
			"doubleSided":true,
			"name":"M_rusty_fance",
			"pbrMetallicRoughness":{
				"baseColorTexture":{
					"index":0
				},
				"metallicFactor":0,
				"roughnessFactor":0.5
			}
		},
		{
			"doubleSided":true,
			"name":"M_support_walls",
			"pbrMetallicRoughness":{
				"baseColorTexture":{
					"index":1
				},
				"metallicFactor":0
			}
		},
		{
			"doubleSided":true,
			"name":"M_raw_plank_wall",
			"normalTexture":{
				"index":2
			},
			"pbrMetallicRoughness":{
				"baseColorTexture":{
					"index":3
				},
				"metallicFactor":0,
				"metallicRoughnessTexture":{
					"index":4
				}
			}
		}
	],
	"meshes":[
		{
			"name":"door_frame.002",
			"primitives":[
				{
					"attributes":{
						"POSITION":0,
						"NORMAL":1,
						"TEXCOORD_0":2
					},
					"indices":3,
					"material":0
				},
				{
					"attributes":{
						"POSITION":4,
						"NORMAL":5,
						"TEXCOORD_0":6
					},
					"indices":7,
					"material":1
				}
			]
		},
		{
			"name":"door_frame.001-colonly",
			"primitives":[
				{
					"attributes":{
						"POSITION":8,
						"NORMAL":9,
						"TEXCOORD_0":10
					},
					"indices":11
				}
			]
		},
		{
			"name":"door_planks",
			"primitives":[
				{
					"attributes":{
						"POSITION":12,
						"NORMAL":13,
						"TEXCOORD_0":14
					},
					"indices":15,
					"material":2
				}
			]
		},
		{
			"name":"door_planks.001",
			"primitives":[
				{
					"attributes":{
						"POSITION":16,
						"NORMAL":17,
						"TEXCOORD_0":18
					},
					"indices":15,
					"material":2
				}
			]
		},
		{
			"name":"door_planks.002",
			"primitives":[
				{
					"attributes":{
						"POSITION":19,
						"NORMAL":20,
						"TEXCOORD_0":21
					},
					"indices":15,
					"material":2
				}
			]
		},
		{
			"name":"door_planks.003",
			"primitives":[
				{
					"attributes":{
						"POSITION":22,
						"NORMAL":23,
						"TEXCOORD_0":24
					},
					"indices":15,
					"material":2
				}
			]
		},
		{
			"name":"door_planks.004",
			"primitives":[
				{
					"attributes":{
						"POSITION":25,
						"NORMAL":26,
						"TEXCOORD_0":27
					},
					"indices":15,
					"material":2
				}
			]
		},
		{
			"name":"door_planks.005",
			"primitives":[
				{
					"attributes":{
						"POSITION":28,
						"NORMAL":29,
						"TEXCOORD_0":30
					},
					"indices":15,
					"material":2
				}
			]
		},
		{
			"name":"door_planks.006",
			"primitives":[
				{
					"attributes":{
						"POSITION":31,
						"NORMAL":32,
						"TEXCOORD_0":33
					},
					"indices":34,
					"material":2
				}
			]
		},
		{
			"name":"door_planks.007",
			"primitives":[
				{
					"attributes":{
						"POSITION":35,
						"NORMAL":36,
						"TEXCOORD_0":37
					},
					"indices":34,
					"material":2
				}
			]
		},
		{
			"name":"door_planks.008",
			"primitives":[
				{
					"attributes":{
						"POSITION":38,
						"NORMAL":39,
						"TEXCOORD_0":40
					},
					"indices":34,
					"material":2
				}
			]
		},
		{
			"name":"door_planks.009",
			"primitives":[
				{
					"attributes":{
						"POSITION":41,
						"NORMAL":42,
						"TEXCOORD_0":43
					},
					"indices":34,
					"material":2
				}
			]
		},
		{
			"name":"door_planks.010",
			"primitives":[
				{
					"attributes":{
						"POSITION":44,
						"NORMAL":45,
						"TEXCOORD_0":46
					},
					"indices":34,
					"material":2
				}
			]
		},
		{
			"name":"door_planks.011",
			"primitives":[
				{
					"attributes":{
						"POSITION":47,
						"NORMAL":48,
						"TEXCOORD_0":49
					},
					"indices":34,
					"material":2
				}
			]
		}
	],
	"textures":[
		{
			"sampler":0,
			"source":0
		},
		{
			"sampler":1,
			"source":1
		},
		{
			"sampler":1,
			"source":2
		},
		{
			"sampler":1,
			"source":3
		},
		{
			"sampler":1,
			"source":4
		}
	],
	"images":[
		{
			"mimeType":"image/png",
			"name":"T_rusty_fence_seamless_256",
			"uri":"../texture/T_rusty_fence_seamless_256.png"
		},
		{
			"mimeType":"image/png",
			"name":"support_walls",
			"uri":"../texture/support_walls.png"
		},
		{
			"mimeType":"image/png",
			"name":"T_raw_plank_wall_normal",
			"uri":"../texture/T_raw_plank_wall_normal.png"
		},
		{
			"mimeType":"image/png",
			"name":"T_raw_plank_wall_basecolor",
			"uri":"../texture/T_raw_plank_wall_basecolor.png"
		},
		{
			"mimeType":"image/png",
			"name":"T_raw_plank_wall_roughness",
			"uri":"../texture/T_raw_plank_wall_roughness.png"
		}
	],
	"accessors":[
		{
			"bufferView":0,
			"componentType":5126,
			"count":13,
			"max":[
				2.373647928237915,
				2.789498805999756,
				0
			],
			"min":[
				-2.373647928237915,
				0.001181108644232154,
				0
			],
			"type":"VEC3"
		},
		{
			"bufferView":1,
			"componentType":5126,
			"count":13,
			"type":"VEC3"
		},
		{
			"bufferView":2,
			"componentType":5126,
			"count":13,
			"type":"VEC2"
		},
		{
			"bufferView":3,
			"componentType":5123,
			"count":30,
			"type":"SCALAR"
		},
		{
			"bufferView":4,
			"componentType":5126,
			"count":210,
			"max":[
				2.519038677215576,
				2.9903602600097656,
				0.2591152787208557
			],
			"min":[
				-2.519038677215576,
				0,
				-0.25918012857437134
			],
			"type":"VEC3"
		},
		{
			"bufferView":5,
			"componentType":5126,
			"count":210,
			"type":"VEC3"
		},
		{
			"bufferView":6,
			"componentType":5126,
			"count":210,
			"type":"VEC2"
		},
		{
			"bufferView":7,
			"componentType":5123,
			"count":408,
			"type":"SCALAR"
		},
		{
			"bufferView":8,
			"componentType":5126,
			"count":12,
			"max":[
				2.519038677215576,
				0,
				1
			],
			"min":[
				-2.519038677215576,
				-4.313409363021492e-08,
				-1.986793041229248
			],
			"type":"VEC3"
		},
		{
			"bufferView":9,
			"componentType":5126,
			"count":12,
			"type":"VEC3"
		},
		{
			"bufferView":10,
			"componentType":5126,
			"count":12,
			"type":"VEC2"
		},
		{
			"bufferView":11,
			"componentType":5123,
			"count":30,
			"type":"SCALAR"
		},
		{
			"bufferView":12,
			"componentType":5126,
			"count":48,
			"max":[
				0.2870292365550995,
				0.06122902035713196,
				0.01166624203324318
			],
			"min":[
				-0.2870292365550995,
				-0.06122902035713196,
				-0.01166624203324318
			],
			"type":"VEC3"
		},
		{
			"bufferView":13,
			"componentType":5126,
			"count":48,
			"type":"VEC3"
		},
		{
			"bufferView":14,
			"componentType":5126,
			"count":48,
			"type":"VEC2"
		},
		{
			"bufferView":15,
			"componentType":5123,
			"count":84,
			"type":"SCALAR"
		},
		{
			"bufferView":16,
			"componentType":5126,
			"count":48,
			"max":[
				0.2870292365550995,
				0.06122902035713196,
				0.01166624203324318
			],
			"min":[
				-0.2870292365550995,
				-0.06122902035713196,
				-0.01166624203324318
			],
			"type":"VEC3"
		},
		{
			"bufferView":17,
			"componentType":5126,
			"count":48,
			"type":"VEC3"
		},
		{
			"bufferView":18,
			"componentType":5126,
			"count":48,
			"type":"VEC2"
		},
		{
			"bufferView":19,
			"componentType":5126,
			"count":48,
			"max":[
				0.2870292365550995,
				0.06122902035713196,
				0.01166624203324318
			],
			"min":[
				-0.2870292365550995,
				-0.06122902035713196,
				-0.01166624203324318
			],
			"type":"VEC3"
		},
		{
			"bufferView":20,
			"componentType":5126,
			"count":48,
			"type":"VEC3"
		},
		{
			"bufferView":21,
			"componentType":5126,
			"count":48,
			"type":"VEC2"
		},
		{
			"bufferView":22,
			"componentType":5126,
			"count":48,
			"max":[
				0.2870292365550995,
				0.06122902035713196,
				0.01166624203324318
			],
			"min":[
				-0.2870292365550995,
				-0.06122902035713196,
				-0.01166624203324318
			],
			"type":"VEC3"
		},
		{
			"bufferView":23,
			"componentType":5126,
			"count":48,
			"type":"VEC3"
		},
		{
			"bufferView":24,
			"componentType":5126,
			"count":48,
			"type":"VEC2"
		},
		{
			"bufferView":25,
			"componentType":5126,
			"count":48,
			"max":[
				0.2870292365550995,
				0.06122902035713196,
				0.01166624203324318
			],
			"min":[
				-0.2870292365550995,
				-0.06122902035713196,
				-0.01166624203324318
			],
			"type":"VEC3"
		},
		{
			"bufferView":26,
			"componentType":5126,
			"count":48,
			"type":"VEC3"
		},
		{
			"bufferView":27,
			"componentType":5126,
			"count":48,
			"type":"VEC2"
		},
		{
			"bufferView":28,
			"componentType":5126,
			"count":48,
			"max":[
				0.2870292365550995,
				0.06122902035713196,
				0.01166624203324318
			],
			"min":[
				-0.2870292365550995,
				-0.06122902035713196,
				-0.01166624203324318
			],
			"type":"VEC3"
		},
		{
			"bufferView":29,
			"componentType":5126,
			"count":48,
			"type":"VEC3"
		},
		{
			"bufferView":30,
			"componentType":5126,
			"count":48,
			"type":"VEC2"
		},
		{
			"bufferView":31,
			"componentType":5126,
			"count":48,
			"max":[
				0.30875736474990845,
				0.06122902035713196,
				0.01166624203324318
			],
			"min":[
				-0.30875739455223083,
				-0.06122902035713196,
				-0.01166624203324318
			],
			"type":"VEC3"
		},
		{
			"bufferView":32,
			"componentType":5126,
			"count":48,
			"type":"VEC3"
		},
		{
			"bufferView":33,
			"componentType":5126,
			"count":48,
			"type":"VEC2"
		},
		{
			"bufferView":34,
			"componentType":5123,
			"count":84,
			"type":"SCALAR"
		},
		{
			"bufferView":35,
			"componentType":5126,
			"count":48,
			"max":[
				0.30875736474990845,
				0.06122902035713196,
				0.01166624203324318
			],
			"min":[
				-0.30875739455223083,
				-0.06122902035713196,
				-0.01166624203324318
			],
			"type":"VEC3"
		},
		{
			"bufferView":36,
			"componentType":5126,
			"count":48,
			"type":"VEC3"
		},
		{
			"bufferView":37,
			"componentType":5126,
			"count":48,
			"type":"VEC2"
		},
		{
			"bufferView":38,
			"componentType":5126,
			"count":48,
			"max":[
				0.30875736474990845,
				0.06122902035713196,
				0.01166624203324318
			],
			"min":[
				-0.30875739455223083,
				-0.06122902035713196,
				-0.01166624203324318
			],
			"type":"VEC3"
		},
		{
			"bufferView":39,
			"componentType":5126,
			"count":48,
			"type":"VEC3"
		},
		{
			"bufferView":40,
			"componentType":5126,
			"count":48,
			"type":"VEC2"
		},
		{
			"bufferView":41,
			"componentType":5126,
			"count":48,
			"max":[
				0.30875736474990845,
				0.06122902035713196,
				0.01166624203324318
			],
			"min":[
				-0.30875739455223083,
				-0.06122902035713196,
				-0.01166624203324318
			],
			"type":"VEC3"
		},
		{
			"bufferView":42,
			"componentType":5126,
			"count":48,
			"type":"VEC3"
		},
		{
			"bufferView":43,
			"componentType":5126,
			"count":48,
			"type":"VEC2"
		},
		{
			"bufferView":44,
			"componentType":5126,
			"count":48,
			"max":[
				0.30875736474990845,
				0.06122902035713196,
				0.01166624203324318
			],
			"min":[
				-0.30875739455223083,
				-0.06122902035713196,
				-0.01166624203324318
			],
			"type":"VEC3"
		},
		{
			"bufferView":45,
			"componentType":5126,
			"count":48,
			"type":"VEC3"
		},
		{
			"bufferView":46,
			"componentType":5126,
			"count":48,
			"type":"VEC2"
		},
		{
			"bufferView":47,
			"componentType":5126,
			"count":48,
			"max":[
				0.30875736474990845,
				0.06122902035713196,
				0.01166624203324318
			],
			"min":[
				-0.30875736474990845,
				-0.06122902035713196,
				-0.01166624203324318
			],
			"type":"VEC3"
		},
		{
			"bufferView":48,
			"componentType":5126,
			"count":48,
			"type":"VEC3"
		},
		{
			"bufferView":49,
			"componentType":5126,
			"count":48,
			"type":"VEC2"
		}
	],
	"bufferViews":[
		{
			"buffer":0,
			"byteLength":156,
			"byteOffset":0,
			"target":34962
		},
		{
			"buffer":0,
			"byteLength":156,
			"byteOffset":156,
			"target":34962
		},
		{
			"buffer":0,
			"byteLength":104,
			"byteOffset":312,
			"target":34962
		},
		{
			"buffer":0,
			"byteLength":60,
			"byteOffset":416,
			"target":34963
		},
		{
			"buffer":0,
			"byteLength":2520,
			"byteOffset":476,
			"target":34962
		},
		{
			"buffer":0,
			"byteLength":2520,
			"byteOffset":2996,
			"target":34962
		},
		{
			"buffer":0,
			"byteLength":1680,
			"byteOffset":5516,
			"target":34962
		},
		{
			"buffer":0,
			"byteLength":816,
			"byteOffset":7196,
			"target":34963
		},
		{
			"buffer":0,
			"byteLength":144,
			"byteOffset":8012,
			"target":34962
		},
		{
			"buffer":0,
			"byteLength":144,
			"byteOffset":8156,
			"target":34962
		},
		{
			"buffer":0,
			"byteLength":96,
			"byteOffset":8300,
			"target":34962
		},
		{
			"buffer":0,
			"byteLength":60,
			"byteOffset":8396,
			"target":34963
		},
		{
			"buffer":0,
			"byteLength":576,
			"byteOffset":8456,
			"target":34962
		},
		{
			"buffer":0,
			"byteLength":576,
			"byteOffset":9032,
			"target":34962
		},
		{
			"buffer":0,
			"byteLength":384,
			"byteOffset":9608,
			"target":34962
		},
		{
			"buffer":0,
			"byteLength":168,
			"byteOffset":9992,
			"target":34963
		},
		{
			"buffer":0,
			"byteLength":576,
			"byteOffset":10160,
			"target":34962
		},
		{
			"buffer":0,
			"byteLength":576,
			"byteOffset":10736,
			"target":34962
		},
		{
			"buffer":0,
			"byteLength":384,
			"byteOffset":11312,
			"target":34962
		},
		{
			"buffer":0,
			"byteLength":576,
			"byteOffset":11696,
			"target":34962
		},
		{
			"buffer":0,
			"byteLength":576,
			"byteOffset":12272,
			"target":34962
		},
		{
			"buffer":0,
			"byteLength":384,
			"byteOffset":12848,
			"target":34962
		},
		{
			"buffer":0,
			"byteLength":576,
			"byteOffset":13232,
			"target":34962
		},
		{
			"buffer":0,
			"byteLength":576,
			"byteOffset":13808,
			"target":34962
		},
		{
			"buffer":0,
			"byteLength":384,
			"byteOffset":14384,
			"target":34962
		},
		{
			"buffer":0,
			"byteLength":576,
			"byteOffset":14768,
			"target":34962
		},
		{
			"buffer":0,
			"byteLength":576,
			"byteOffset":15344,
			"target":34962
		},
		{
			"buffer":0,
			"byteLength":384,
			"byteOffset":15920,
			"target":34962
		},
		{
			"buffer":0,
			"byteLength":576,
			"byteOffset":16304,
			"target":34962
		},
		{
			"buffer":0,
			"byteLength":576,
			"byteOffset":16880,
			"target":34962
		},
		{
			"buffer":0,
			"byteLength":384,
			"byteOffset":17456,
			"target":34962
		},
		{
			"buffer":0,
			"byteLength":576,
			"byteOffset":17840,
			"target":34962
		},
		{
			"buffer":0,
			"byteLength":576,
			"byteOffset":18416,
			"target":34962
		},
		{
			"buffer":0,
			"byteLength":384,
			"byteOffset":18992,
			"target":34962
		},
		{
			"buffer":0,
			"byteLength":168,
			"byteOffset":19376,
			"target":34963
		},
		{
			"buffer":0,
			"byteLength":576,
			"byteOffset":19544,
			"target":34962
		},
		{
			"buffer":0,
			"byteLength":576,
			"byteOffset":20120,
			"target":34962
		},
		{
			"buffer":0,
			"byteLength":384,
			"byteOffset":20696,
			"target":34962
		},
		{
			"buffer":0,
			"byteLength":576,
			"byteOffset":21080,
			"target":34962
		},
		{
			"buffer":0,
			"byteLength":576,
			"byteOffset":21656,
			"target":34962
		},
		{
			"buffer":0,
			"byteLength":384,
			"byteOffset":22232,
			"target":34962
		},
		{
			"buffer":0,
			"byteLength":576,
			"byteOffset":22616,
			"target":34962
		},
		{
			"buffer":0,
			"byteLength":576,
			"byteOffset":23192,
			"target":34962
		},
		{
			"buffer":0,
			"byteLength":384,
			"byteOffset":23768,
			"target":34962
		},
		{
			"buffer":0,
			"byteLength":576,
			"byteOffset":24152,
			"target":34962
		},
		{
			"buffer":0,
			"byteLength":576,
			"byteOffset":24728,
			"target":34962
		},
		{
			"buffer":0,
			"byteLength":384,
			"byteOffset":25304,
			"target":34962
		},
		{
			"buffer":0,
			"byteLength":576,
			"byteOffset":25688,
			"target":34962
		},
		{
			"buffer":0,
			"byteLength":576,
			"byteOffset":26264,
			"target":34962
		},
		{
			"buffer":0,
			"byteLength":384,
			"byteOffset":26840,
			"target":34962
		}
	],
	"samplers":[
		{
			"magFilter":9729,
			"minFilter":9987
		},
		{
			"magFilter":9728,
			"minFilter":9984
		}
	],
	"buffers":[
		{
			"byteLength":27224,
			"uri":"door_open.bin"
		}
	]
}
