{
	"asset":{
		"generator":"Khronos glTF Blender I/O v5.1.18",
		"version":"2.0"
	},
	"scene":0,
	"scenes":[
		{
			"name":"door_open",
			"nodes":[
				0,
				1,
				13,
				14
			]
		}
	],
	"nodes":[
		{
			"mesh":0,
			"name":"door_frame",
			"translation":[
				0,
				-0.009252604097127914,
				3.24249267578125e-05
			]
		},
		{
			"mesh":1,
			"name":"door_frame.001-colonly",
			"rotation":[
				0.7071068286895752,
				0,
				0,
				0.7071068286895752
			],
			"translation":[
				0,
				0.9943146705627441,
				0
			]
		},
		{
			"mesh":2,
			"name":"door_planks.001",
			"rotation":[
				0.04025743156671524,
				-0.07626552134752274,
				-0.5492123961448669,
				0.8312212228775024
			],
			"scale":[
				1.5807119607925415,
				1.5807114839553833,
				1.580711841583252
			],
			"translation":[
				-0.5137157440185547,
				0.7775218486785889,
				0.13636401295661926
			]
		},
		{
			"mesh":3,
			"name":"door_planks.002",
			"rotation":[
				0.00715543981641531,
				-0.0012517906725406647,
				0.03228440508246422,
				0.9994524121284485
			],
			"scale":[
				1.5807113647460938,
				1.580711841583252,
				1.5807112455368042
			],
			"translation":[
				-0.3552270829677582,
				1.3748632669448853,
				0.10499629378318787
			]
		},
		{
			"mesh":4,
			"name":"door_planks.003",
			"rotation":[
				-0.003065862925723195,
				0.026006948202848434,
				-0.0664125308394432,
				0.9974485635757446
			],
			"scale":[
				1.5807119607925415,
				1.5807121992111206,
				1.5807119607925415
			],
			"translation":[
				-0.3968238830566406,
				1.9078412055969238,
				0.11493060737848282
			]
		},
		{
			"mesh":5,
			"name":"door_planks.004",
			"rotation":[
				-0.008165758103132248,
				0.029102886095643044,
				-0.1572498083114624,
				0.9870961904525757
			],
			"scale":[
				1.5807119607925415,
				1.5807116031646729,
				1.5807119607925415
			],
			"translation":[
				-0.36508339643478394,
				0.24292808771133423,
				0.11013980954885483
			]
		},
		{
			"mesh":6,
			"name":"door_planks.005",
			"rotation":[
				-0.007374770939350128,
				0.00773185258731246,
				0.05963115766644478,
				0.9981632828712463
			],
			"scale":[
				1.5807119607925415,
				1.5807119607925415,
				1.580711841583252
			],
			"translation":[
				-0.39787402749061584,
				1.1662307977676392,
				0.1431567370891571
			]
		},
		{
			"mesh":7,
			"name":"door_planks.006",
			"rotation":[
				-0.0064383987337350845,
				0.025383232161402702,
				0.06451293081045151,
				0.9975732564926147
			],
			"scale":[
				1.5807100534439087,
				1.5807113647460938,
				1.580712080001831
			],
			"translation":[
				0.2758427858352661,
				0.6517127752304077,
				0.07995998859405518
			]
		},
		{
			"mesh":8,
			"name":"door_planks.007",
			"rotation":[
				-0.035140715539455414,
				0.05511583387851715,
				0.17133936285972595,
				0.9830412864685059
			],
			"scale":[
				1.580712080001831,
				1.580711841583252,
				1.580712080001831
			],
			"translation":[
				0.28712379932403564,
				0.9347798824310303,
				0.11398088932037354
			]
		},
		{
			"mesh":9,
			"name":"door_planks.008",
			"rotation":[
				-0.011344177648425102,
				0.0015252088196575642,
				0.13365687429904938,
				0.9909615516662598
			],
			"scale":[
				1.580711841583252,
				1.580711841583252,
				1.5807121992111206
			],
			"translation":[
				0.26741823554039,
				1.5768581628799438,
				0.09460670500993729
			]
		},
		{
			"mesh":10,
			"name":"door_planks.009",
			"rotation":[
				-0.003065862925723195,
				0.026006948202848434,
				-0.0664125308394432,
				0.9974485635757446
			],
			"scale":[
				1.5807119607925415,
				1.5807121992111206,
				1.5807119607925415
			],
			"translation":[
				0.2756616771221161,
				1.8177220821380615,
				0.07995998859405518
			]
		},
		{
			"mesh":11,
			"name":"door_planks.010",
			"rotation":[
				5.282883648760617e-06,
				0.024218598380684853,
				0.06374146789312363,
				0.9976726174354553
			],
			"scale":[
				1.5807119607925415,
				1.580711841583252,
				1.580711841583252
			],
			"translation":[
				0.30857694149017334,
				0.1892254501581192,
				0.07433104515075684
			]
		},
		{
			"mesh":12,
			"name":"door_planks.011",
			"rotation":[
				-0.007374770939350128,
				0.00773185258731246,
				0.05963115766644478,
				0.9981632828712463
			],
			"scale":[
				1.5807119607925415,
				1.5807119607925415,
				1.580711841583252
			],
			"translation":[
				0.27661073207855225,
				1.2470309734344482,
				0.13207371532917023
			]
		},
		{
			"children":[
				2,
				3,
				4,
				5,
				6,
				7,
				8,
				9,
				10,
				11,
				12
			],
			"mesh":13,
			"name":"door_frame.001",
			"scale":[
				1.190106749534607,
				1.190106749534607,
				1.190106749534607
			],
			"translation":[
				0,
				-0.009252604097127914,
				3.24249267578125e-05
			]
		},
		{
			"mesh":14,
			"name":"door_planks",
			"rotation":[
				0.0001657355751376599,
				-0.035522159188985825,
				-0.005983979441225529,
				0.9993509650230408
			],
			"scale":[
				1.6928951740264893,
				1.6928951740264893,
				1.6928950548171997
			],
			"translation":[
				-0.44174787402153015,
				0.721035897731781,
				0.11856581270694733
			]
		}
	],
	"materials":[
		{
			"alphaMode":"BLEND",
			"doubleSided":true,
			"name":"M_rusty_fance",
			"pbrMetallicRoughness":{
				"baseColorTexture":{
					"index":0
				},
				"metallicFactor":0,
				"roughnessFactor":0.5
			}
		},
		{
			"doubleSided":true,
			"name":"M_support_walls",
			"pbrMetallicRoughness":{
				"baseColorTexture":{
					"index":1
				},
				"metallicFactor":0
			}
		},
		{
			"doubleSided":true,
			"name":"M_raw_plank_wall",
			"normalTexture":{
				"index":2
			},
			"pbrMetallicRoughness":{
				"baseColorTexture":{
					"index":3
				},
				"metallicFactor":0,
				"metallicRoughnessTexture":{
					"index":4
				}
			}
		}
	],
	"meshes":[
		{
			"name":"door_frame.002",
			"primitives":[
				{
					"attributes":{
						"POSITION":0,
						"NORMAL":1,
						"TEXCOORD_0":2
					},
					"indices":3,
					"material":0
				},
				{
					"attributes":{
						"POSITION":4,
						"NORMAL":5,
						"TEXCOORD_0":6
					},
					"indices":7,
					"material":1
				}
			]
		},
		{
			"name":"door_frame.001-colonly",
			"primitives":[
				{
					"attributes":{
						"POSITION":8,
						"NORMAL":9,
						"TEXCOORD_0":10
					},
					"indices":11
				}
			]
		},
		{
			"name":"door_planks.001",
			"primitives":[
				{
					"attributes":{
						"POSITION":12,
						"NORMAL":13,
						"TEXCOORD_0":14
					},
					"indices":15,
					"material":2
				}
			]
		},
		{
			"name":"door_planks.002",
			"primitives":[
				{
					"attributes":{
						"POSITION":16,
						"NORMAL":17,
						"TEXCOORD_0":18
					},
					"indices":15,
					"material":2
				}
			]
		},
		{
			"name":"door_planks.003",
			"primitives":[
				{
					"attributes":{
						"POSITION":19,
						"NORMAL":20,
						"TEXCOORD_0":21
					},
					"indices":15,
					"material":2
				}
			]
		},
		{
			"name":"door_planks.004",
			"primitives":[
				{
					"attributes":{
						"POSITION":22,
						"NORMAL":23,
						"TEXCOORD_0":24
					},
					"indices":15,
					"material":2
				}
			]
		},
		{
			"name":"door_planks.005",
			"primitives":[
				{
					"attributes":{
						"POSITION":25,
						"NORMAL":26,
						"TEXCOORD_0":27
					},
					"indices":15,
					"material":2
				}
			]
		},
		{
			"name":"door_planks.006",
			"primitives":[
				{
					"attributes":{
						"POSITION":28,
						"NORMAL":29,
						"TEXCOORD_0":30
					},
					"indices":31,
					"material":2
				}
			]
		},
		{
			"name":"door_planks.007",
			"primitives":[
				{
					"attributes":{
						"POSITION":32,
						"NORMAL":33,
						"TEXCOORD_0":34
					},
					"indices":31,
					"material":2
				}
			]
		},
		{
			"name":"door_planks.008",
			"primitives":[
				{
					"attributes":{
						"POSITION":35,
						"NORMAL":36,
						"TEXCOORD_0":37
					},
					"indices":31,
					"material":2
				}
			]
		},
		{
			"name":"door_planks.009",
			"primitives":[
				{
					"attributes":{
						"POSITION":38,
						"NORMAL":39,
						"TEXCOORD_0":40
					},
					"indices":31,
					"material":2
				}
			]
		},
		{
			"name":"door_planks.010",
			"primitives":[
				{
					"attributes":{
						"POSITION":41,
						"NORMAL":42,
						"TEXCOORD_0":43
					},
					"indices":31,
					"material":2
				}
			]
		},
		{
			"name":"door_planks.011",
			"primitives":[
				{
					"attributes":{
						"POSITION":44,
						"NORMAL":45,
						"TEXCOORD_0":46
					},
					"indices":31,
					"material":2
				}
			]
		},
		{
			"name":"door_frame.003",
			"primitives":[
				{
					"attributes":{
						"POSITION":47,
						"NORMAL":48,
						"TEXCOORD_0":49
					},
					"indices":50,
					"material":1
				}
			]
		},
		{
			"name":"door_planks",
			"primitives":[
				{
					"attributes":{
						"POSITION":51,
						"NORMAL":52,
						"TEXCOORD_0":53
					},
					"indices":15,
					"material":2
				}
			]
		}
	],
	"textures":[
		{
			"sampler":0,
			"source":0
		},
		{
			"sampler":1,
			"source":1
		},
		{
			"sampler":1,
			"source":2
		},
		{
			"sampler":1,
			"source":3
		},
		{
			"sampler":1,
			"source":4
		}
	],
	"images":[
		{
			"mimeType":"image/png",
			"name":"T_rusty_fence_seamless_256",
			"uri":"../texture/T_rusty_fence_seamless_256.png"
		},
		{
			"mimeType":"image/png",
			"name":"support_walls",
			"uri":"../texture/support_walls.png"
		},
		{
			"mimeType":"image/png",
			"name":"T_raw_plank_wall_normal",
			"uri":"../texture/T_raw_plank_wall_normal.png"
		},
		{
			"mimeType":"image/png",
			"name":"T_raw_plank_wall_basecolor",
			"uri":"../texture/T_raw_plank_wall_basecolor.png"
		},
		{
			"mimeType":"image/png",
			"name":"T_raw_plank_wall_roughness",
			"uri":"../texture/T_raw_plank_wall_roughness.png"
		}
	],
	"accessors":[
		{
			"bufferView":0,
			"componentType":5126,
			"count":20,
			"max":[
				2.373647928237915,
				2.789498805999756,
				0
			],
			"min":[
				-2.373647928237915,
				0.001181108644232154,
				0
			],
			"type":"VEC3"
		},
		{
			"bufferView":1,
			"componentType":5126,
			"count":20,
			"type":"VEC3"
		},
		{
			"bufferView":2,
			"componentType":5126,
			"count":20,
			"type":"VEC2"
		},
		{
			"bufferView":3,
			"componentType":5123,
			"count":30,
			"type":"SCALAR"
		},
		{
			"bufferView":4,
			"componentType":5126,
			"count":142,
			"max":[
				2.519038677215576,
				2.9903602600097656,
				0.2591152787208557
			],
			"min":[
				-2.519038677215576,
				0.009252604097127914,
				-0.25918012857437134
			],
			"type":"VEC3"
		},
		{
			"bufferView":5,
			"componentType":5126,
			"count":142,
			"type":"VEC3"
		},
		{
			"bufferView":6,
			"componentType":5126,
			"count":142,
			"type":"VEC2"
		},
		{
			"bufferView":7,
			"componentType":5123,
			"count":252,
			"type":"SCALAR"
		},
		{
			"bufferView":8,
			"componentType":5126,
			"count":12,
			"max":[
				2.519038677215576,
				0,
				1
			],
			"min":[
				-2.519038677215576,
				-4.313409363021492e-08,
				-1.986793041229248
			],
			"type":"VEC3"
		},
		{
			"bufferView":9,
			"componentType":5126,
			"count":12,
			"type":"VEC3"
		},
		{
			"bufferView":10,
			"componentType":5126,
			"count":12,
			"type":"VEC2"
		},
		{
			"bufferView":11,
			"componentType":5123,
			"count":30,
			"type":"SCALAR"
		},
		{
			"bufferView":12,
			"componentType":5126,
			"count":48,
			"max":[
				0.2870292365550995,
				0.06122902035713196,
				0.01166624203324318
			],
			"min":[
				-0.2870292365550995,
				-0.06122902035713196,
				-0.01166624203324318
			],
			"type":"VEC3"
		},
		{
			"bufferView":13,
			"componentType":5126,
			"count":48,
			"type":"VEC3"
		},
		{
			"bufferView":14,
			"componentType":5126,
			"count":48,
			"type":"VEC2"
		},
		{
			"bufferView":15,
			"componentType":5123,
			"count":84,
			"type":"SCALAR"
		},
		{
			"bufferView":16,
			"componentType":5126,
			"count":48,
			"max":[
				0.2870292365550995,
				0.06122902035713196,
				0.01166624203324318
			],
			"min":[
				-0.2870292365550995,
				-0.06122902035713196,
				-0.01166624203324318
			],
			"type":"VEC3"
		},
		{
			"bufferView":17,
			"componentType":5126,
			"count":48,
			"type":"VEC3"
		},
		{
			"bufferView":18,
			"componentType":5126,
			"count":48,
			"type":"VEC2"
		},
		{
			"bufferView":19,
			"componentType":5126,
			"count":48,
			"max":[
				0.2870292365550995,
				0.06122902035713196,
				0.01166624203324318
			],
			"min":[
				-0.2870292365550995,
				-0.06122902035713196,
				-0.01166624203324318
			],
			"type":"VEC3"
		},
		{
			"bufferView":20,
			"componentType":5126,
			"count":48,
			"type":"VEC3"
		},
		{
			"bufferView":21,
			"componentType":5126,
			"count":48,
			"type":"VEC2"
		},
		{
			"bufferView":22,
			"componentType":5126,
			"count":48,
			"max":[
				0.2870292365550995,
				0.06122902035713196,
				0.01166624203324318
			],
			"min":[
				-0.2870292365550995,
				-0.06122902035713196,
				-0.01166624203324318
			],
			"type":"VEC3"
		},
		{
			"bufferView":23,
			"componentType":5126,
			"count":48,
			"type":"VEC3"
		},
		{
			"bufferView":24,
			"componentType":5126,
			"count":48,
			"type":"VEC2"
		},
		{
			"bufferView":25,
			"componentType":5126,
			"count":48,
			"max":[
				0.2870292365550995,
				0.06122902035713196,
				0.01166624203324318
			],
			"min":[
				-0.2870292365550995,
				-0.06122902035713196,
				-0.01166624203324318
			],
			"type":"VEC3"
		},
		{
			"bufferView":26,
			"componentType":5126,
			"count":48,
			"type":"VEC3"
		},
		{
			"bufferView":27,
			"componentType":5126,
			"count":48,
			"type":"VEC2"
		},
		{
			"bufferView":28,
			"componentType":5126,
			"count":48,
			"max":[
				0.30875736474990845,
				0.06122902035713196,
				0.01166624203324318
			],
			"min":[
				-0.30875739455223083,
				-0.06122902035713196,
				-0.01166624203324318
			],
			"type":"VEC3"
		},
		{
			"bufferView":29,
			"componentType":5126,
			"count":48,
			"type":"VEC3"
		},
		{
			"bufferView":30,
			"componentType":5126,
			"count":48,
			"type":"VEC2"
		},
		{
			"bufferView":31,
			"componentType":5123,
			"count":84,
			"type":"SCALAR"
		},
		{
			"bufferView":32,
			"componentType":5126,
			"count":48,
			"max":[
				0.30875736474990845,
				0.06122902035713196,
				0.01166624203324318
			],
			"min":[
				-0.30875739455223083,
				-0.06122902035713196,
				-0.01166624203324318
			],
			"type":"VEC3"
		},
		{
			"bufferView":33,
			"componentType":5126,
			"count":48,
			"type":"VEC3"
		},
		{
			"bufferView":34,
			"componentType":5126,
			"count":48,
			"type":"VEC2"
		},
		{
			"bufferView":35,
			"componentType":5126,
			"count":48,
			"max":[
				0.30875736474990845,
				0.06122902035713196,
				0.01166624203324318
			],
			"min":[
				-0.30875739455223083,
				-0.06122902035713196,
				-0.01166624203324318
			],
			"type":"VEC3"
		},
		{
			"bufferView":36,
			"componentType":5126,
			"count":48,
			"type":"VEC3"
		},
		{
			"bufferView":37,
			"componentType":5126,
			"count":48,
			"type":"VEC2"
		},
		{
			"bufferView":38,
			"componentType":5126,
			"count":48,
			"max":[
				0.30875736474990845,
				0.06122902035713196,
				0.01166624203324318
			],
			"min":[
				-0.30875739455223083,
				-0.06122902035713196,
				-0.01166624203324318
			],
			"type":"VEC3"
		},
		{
			"bufferView":39,
			"componentType":5126,
			"count":48,
			"type":"VEC3"
		},
		{
			"bufferView":40,
			"componentType":5126,
			"count":48,
			"type":"VEC2"
		},
		{
			"bufferView":41,
			"componentType":5126,
			"count":48,
			"max":[
				0.30875736474990845,
				0.06122902035713196,
				0.01166624203324318
			],
			"min":[
				-0.30875739455223083,
				-0.06122902035713196,
				-0.01166624203324318
			],
			"type":"VEC3"
		},
		{
			"bufferView":42,
			"componentType":5126,
			"count":48,
			"type":"VEC3"
		},
		{
			"bufferView":43,
			"componentType":5126,
			"count":48,
			"type":"VEC2"
		},
		{
			"bufferView":44,
			"componentType":5126,
			"count":48,
			"max":[
				0.30875736474990845,
				0.06122902035713196,
				0.01166624203324318
			],
			"min":[
				-0.30875736474990845,
				-0.06122902035713196,
				-0.01166624203324318
			],
			"type":"VEC3"
		},
		{
			"bufferView":45,
			"componentType":5126,
			"count":48,
			"type":"VEC3"
		},
		{
			"bufferView":46,
			"componentType":5126,
			"count":48,
			"type":"VEC2"
		},
		{
			"bufferView":47,
			"componentType":5126,
			"count":48,
			"max":[
				0.6874303221702576,
				2.0375804901123047,
				0.06080964580178261
			],
			"min":[
				-0.6928540468215942,
				0,
				-0.060912150889635086
			],
			"type":"VEC3"
		},
		{
			"bufferView":48,
			"componentType":5126,
			"count":48,
			"type":"VEC3"
		},
		{
			"bufferView":49,
			"componentType":5126,
			"count":48,
			"type":"VEC2"
		},
		{
			"bufferView":50,
			"componentType":5123,
			"count":72,
			"type":"SCALAR"
		},
		{
			"bufferView":51,
			"componentType":5126,
			"count":48,
			"max":[
				0.2870292365550995,
				0.06122902035713196,
				0.01166624203324318
			],
			"min":[
				-0.2870292365550995,
				-0.06122902035713196,
				-0.01166624203324318
			],
			"type":"VEC3"
		},
		{
			"bufferView":52,
			"componentType":5126,
			"count":48,
			"type":"VEC3"
		},
		{
			"bufferView":53,
			"componentType":5126,
			"count":48,
			"type":"VEC2"
		}
	],
	"bufferViews":[
		{
			"buffer":0,
			"byteLength":240,
			"byteOffset":0,
			"target":34962
		},
		{
			"buffer":0,
			"byteLength":240,
			"byteOffset":240,
			"target":34962
		},
		{
			"buffer":0,
			"byteLength":160,
			"byteOffset":480,
			"target":34962
		},
		{
			"buffer":0,
			"byteLength":60,
			"byteOffset":640,
			"target":34963
		},
		{
			"buffer":0,
			"byteLength":1704,
			"byteOffset":700,
			"target":34962
		},
		{
			"buffer":0,
			"byteLength":1704,
			"byteOffset":2404,
			"target":34962
		},
		{
			"buffer":0,
			"byteLength":1136,
			"byteOffset":4108,
			"target":34962
		},
		{
			"buffer":0,
			"byteLength":504,
			"byteOffset":5244,
			"target":34963
		},
		{
			"buffer":0,
			"byteLength":144,
			"byteOffset":5748,
			"target":34962
		},
		{
			"buffer":0,
			"byteLength":144,
			"byteOffset":5892,
			"target":34962
		},
		{
			"buffer":0,
			"byteLength":96,
			"byteOffset":6036,
			"target":34962
		},
		{
			"buffer":0,
			"byteLength":60,
			"byteOffset":6132,
			"target":34963
		},
		{
			"buffer":0,
			"byteLength":576,
			"byteOffset":6192,
			"target":34962
		},
		{
			"buffer":0,
			"byteLength":576,
			"byteOffset":6768,
			"target":34962
		},
		{
			"buffer":0,
			"byteLength":384,
			"byteOffset":7344,
			"target":34962
		},
		{
			"buffer":0,
			"byteLength":168,
			"byteOffset":7728,
			"target":34963
		},
		{
			"buffer":0,
			"byteLength":576,
			"byteOffset":7896,
			"target":34962
		},
		{
			"buffer":0,
			"byteLength":576,
			"byteOffset":8472,
			"target":34962
		},
		{
			"buffer":0,
			"byteLength":384,
			"byteOffset":9048,
			"target":34962
		},
		{
			"buffer":0,
			"byteLength":576,
			"byteOffset":9432,
			"target":34962
		},
		{
			"buffer":0,
			"byteLength":576,
			"byteOffset":10008,
			"target":34962
		},
		{
			"buffer":0,
			"byteLength":384,
			"byteOffset":10584,
			"target":34962
		},
		{
			"buffer":0,
			"byteLength":576,
			"byteOffset":10968,
			"target":34962
		},
		{
			"buffer":0,
			"byteLength":576,
			"byteOffset":11544,
			"target":34962
		},
		{
			"buffer":0,
			"byteLength":384,
			"byteOffset":12120,
			"target":34962
		},
		{
			"buffer":0,
			"byteLength":576,
			"byteOffset":12504,
			"target":34962
		},
		{
			"buffer":0,
			"byteLength":576,
			"byteOffset":13080,
			"target":34962
		},
		{
			"buffer":0,
			"byteLength":384,
			"byteOffset":13656,
			"target":34962
		},
		{
			"buffer":0,
			"byteLength":576,
			"byteOffset":14040,
			"target":34962
		},
		{
			"buffer":0,
			"byteLength":576,
			"byteOffset":14616,
			"target":34962
		},
		{
			"buffer":0,
			"byteLength":384,
			"byteOffset":15192,
			"target":34962
		},
		{
			"buffer":0,
			"byteLength":168,
			"byteOffset":15576,
			"target":34963
		},
		{
			"buffer":0,
			"byteLength":576,
			"byteOffset":15744,
			"target":34962
		},
		{
			"buffer":0,
			"byteLength":576,
			"byteOffset":16320,
			"target":34962
		},
		{
			"buffer":0,
			"byteLength":384,
			"byteOffset":16896,
			"target":34962
		},
		{
			"buffer":0,
			"byteLength":576,
			"byteOffset":17280,
			"target":34962
		},
		{
			"buffer":0,
			"byteLength":576,
			"byteOffset":17856,
			"target":34962
		},
		{
			"buffer":0,
			"byteLength":384,
			"byteOffset":18432,
			"target":34962
		},
		{
			"buffer":0,
			"byteLength":576,
			"byteOffset":18816,
			"target":34962
		},
		{
			"buffer":0,
			"byteLength":576,
			"byteOffset":19392,
			"target":34962
		},
		{
			"buffer":0,
			"byteLength":384,
			"byteOffset":19968,
			"target":34962
		},
		{
			"buffer":0,
			"byteLength":576,
			"byteOffset":20352,
			"target":34962
		},
		{
			"buffer":0,
			"byteLength":576,
			"byteOffset":20928,
			"target":34962
		},
		{
			"buffer":0,
			"byteLength":384,
			"byteOffset":21504,
			"target":34962
		},
		{
			"buffer":0,
			"byteLength":576,
			"byteOffset":21888,
			"target":34962
		},
		{
			"buffer":0,
			"byteLength":576,
			"byteOffset":22464,
			"target":34962
		},
		{
			"buffer":0,
			"byteLength":384,
			"byteOffset":23040,
			"target":34962
		},
		{
			"buffer":0,
			"byteLength":576,
			"byteOffset":23424,
			"target":34962
		},
		{
			"buffer":0,
			"byteLength":576,
			"byteOffset":24000,
			"target":34962
		},
		{
			"buffer":0,
			"byteLength":384,
			"byteOffset":24576,
			"target":34962
		},
		{
			"buffer":0,
			"byteLength":144,
			"byteOffset":24960,
			"target":34963
		},
		{
			"buffer":0,
			"byteLength":576,
			"byteOffset":25104,
			"target":34962
		},
		{
			"buffer":0,
			"byteLength":576,
			"byteOffset":25680,
			"target":34962
		},
		{
			"buffer":0,
			"byteLength":384,
			"byteOffset":26256,
			"target":34962
		}
	],
	"samplers":[
		{
			"magFilter":9729,
			"minFilter":9987
		},
		{
			"magFilter":9728,
			"minFilter":9984
		}
	],
	"buffers":[
		{
			"byteLength":26640,
			"uri":"door_open.bin"
		}
	]
}
