{
	"asset":{
		"generator":"Khronos glTF Blender I/O v5.1.18",
		"version":"2.0"
	},
	"scene":0,
	"scenes":[
		{
			"name":"door_closed",
			"nodes":[
				1
			]
		}
	],
	"nodes":[
		{
			"mesh":0,
			"name":"Cube-convcolonly",
			"translation":[
				-1.7595367431640625,
				0,
				-0.046028733253479004
			]
		},
		{
			"children":[
				0
			],
			"mesh":1,
			"name":"door_closed"
		}
	],
	"materials":[
		{
			"doubleSided":true,
			"name":"M_rock_face_03",
			"normalTexture":{
				"index":0
			},
			"pbrMetallicRoughness":{
				"baseColorTexture":{
					"index":1
				},
				"metallicFactor":0,
				"metallicRoughnessTexture":{
					"index":2
				}
			}
		},
		{
			"doubleSided":true,
			"name":"M_support_walls",
			"pbrMetallicRoughness":{
				"baseColorTexture":{
					"index":3
				},
				"metallicFactor":0
			}
		}
	],
	"meshes":[
		{
			"name":"Cube-convcolonly",
			"primitives":[
				{
					"attributes":{
						"POSITION":0,
						"NORMAL":1,
						"TEXCOORD_0":2
					},
					"indices":3
				}
			]
		},
		{
			"name":"door_closed",
			"primitives":[
				{
					"attributes":{
						"POSITION":4,
						"NORMAL":5,
						"TEXCOORD_0":6
					},
					"indices":7,
					"material":0
				},
				{
					"attributes":{
						"POSITION":8,
						"NORMAL":9,
						"TEXCOORD_0":10
					},
					"indices":11,
					"material":1
				}
			]
		}
	],
	"textures":[
		{
			"sampler":0,
			"source":0
		},
		{
			"sampler":0,
			"source":1
		},
		{
			"sampler":0,
			"source":2
		},
		{
			"sampler":0,
			"source":3
		}
	],
	"images":[
		{
			"mimeType":"image/png",
			"name":"T_rock_face_03_normal",
			"uri":"../texture/T_rock_face_03_normal.png"
		},
		{
			"mimeType":"image/png",
			"name":"T_rock_face_03_basecolor",
			"uri":"../texture/T_rock_face_03_basecolor.png"
		},
		{
			"mimeType":"image/png",
			"name":"T_rock_face_03_roughness",
			"uri":"../texture/T_rock_face_03_roughness.png"
		},
		{
			"mimeType":"image/png",
			"name":"support_walls",
			"uri":"../texture/support_walls.png"
		}
	],
	"accessors":[
		{
			"bufferView":0,
			"componentType":5126,
			"count":28,
			"max":[
				5.318722724914551,
				3.531853437423706,
				1.7700706720352173
			],
			"min":[
				-1.8263452053070068,
				-0.3318229913711548,
				-0.9023581147193909
			],
			"type":"VEC3"
		},
		{
			"bufferView":1,
			"componentType":5126,
			"count":28,
			"type":"VEC3"
		},
		{
			"bufferView":2,
			"componentType":5126,
			"count":28,
			"type":"VEC2"
		},
		{
			"bufferView":3,
			"componentType":5123,
			"count":42,
			"type":"SCALAR"
		},
		{
			"bufferView":4,
			"componentType":5126,
			"count":138,
			"max":[
				2.923246145248413,
				3.20003080368042,
				2.4537229537963867
			],
			"min":[
				-3.0099611282348633,
				-0.017718685790896416,
				-1.548943042755127
			],
			"type":"VEC3"
		},
		{
			"bufferView":5,
			"componentType":5126,
			"count":138,
			"type":"VEC3"
		},
		{
			"bufferView":6,
			"componentType":5126,
			"count":138,
			"type":"VEC2"
		},
		{
			"bufferView":7,
			"componentType":5123,
			"count":216,
			"type":"SCALAR"
		},
		{
			"bufferView":8,
			"componentType":5126,
			"count":288,
			"max":[
				2.202366828918457,
				2.013353109359741,
				2.3944501876831055
			],
			"min":[
				-3.109464645385742,
				-0.5463235378265381,
				-2.1772122383117676
			],
			"type":"VEC3"
		},
		{
			"bufferView":9,
			"componentType":5126,
			"count":288,
			"type":"VEC3"
		},
		{
			"bufferView":10,
			"componentType":5126,
			"count":288,
			"type":"VEC2"
		},
		{
			"bufferView":11,
			"componentType":5123,
			"count":528,
			"type":"SCALAR"
		}
	],
	"bufferViews":[
		{
			"buffer":0,
			"byteLength":336,
			"byteOffset":0,
			"target":34962
		},
		{
			"buffer":0,
			"byteLength":336,
			"byteOffset":336,
			"target":34962
		},
		{
			"buffer":0,
			"byteLength":224,
			"byteOffset":672,
			"target":34962
		},
		{
			"buffer":0,
			"byteLength":84,
			"byteOffset":896,
			"target":34963
		},
		{
			"buffer":0,
			"byteLength":1656,
			"byteOffset":980,
			"target":34962
		},
		{
			"buffer":0,
			"byteLength":1656,
			"byteOffset":2636,
			"target":34962
		},
		{
			"buffer":0,
			"byteLength":1104,
			"byteOffset":4292,
			"target":34962
		},
		{
			"buffer":0,
			"byteLength":432,
			"byteOffset":5396,
			"target":34963
		},
		{
			"buffer":0,
			"byteLength":3456,
			"byteOffset":5828,
			"target":34962
		},
		{
			"buffer":0,
			"byteLength":3456,
			"byteOffset":9284,
			"target":34962
		},
		{
			"buffer":0,
			"byteLength":2304,
			"byteOffset":12740,
			"target":34962
		},
		{
			"buffer":0,
			"byteLength":1056,
			"byteOffset":15044,
			"target":34963
		}
	],
	"samplers":[
		{
			"magFilter":9728,
			"minFilter":9984
		}
	],
	"buffers":[
		{
			"byteLength":16100,
			"uri":"door_closed.bin"
		}
	]
}
