{
	"asset":{
		"generator":"Khronos glTF Blender I/O v5.1.18",
		"version":"2.0"
	},
	"scene":0,
	"scenes":[
		{
			"name":"lvl1",
			"nodes":[
				0,
				1,
				2,
				3,
				4,
				5,
				6,
				7,
				8,
				9,
				10
			]
		}
	],
	"nodes":[
		{
			"mesh":0,
			"name":"walls-col.001",
			"rotation":[
				0,
				0.7071068286895752,
				0,
				0.7071068286895752
			],
			"translation":[
				-20,
				3.406614065170288,
				0
			]
		},
		{
			"mesh":1,
			"name":"walls-col",
			"translation":[
				0,
				3.406614065170288,
				-20
			]
		},
		{
			"mesh":2,
			"name":"walls-col.002",
			"rotation":[
				0,
				-0.7071068286895752,
				0,
				0.7071068286895752
			],
			"translation":[
				20,
				3.406614065170288,
				0
			]
		},
		{
			"mesh":3,
			"name":"walls-col.003",
			"rotation":[
				0,
				-1,
				0,
				1.6292068494294654e-07
			],
			"translation":[
				0,
				3.406614065170288,
				20
			]
		},
		{
			"mesh":4,
			"name":"ground",
			"rotation":[
				-1,
				0,
				0,
				1.6292068494294654e-07
			],
			"translation":[
				0,
				-0.04777282476425171,
				0
			]
		},
		{
			"mesh":5,
			"name":"props",
			"rotation":[
				0,
				0,
				-0.7071068286895752,
				0.7071068286895752
			],
			"translation":[
				20.53170394897461,
				1.1988990306854248,
				0.049428462982177734
			]
		},
		{
			"mesh":6,
			"name":"pillar-col.001",
			"translation":[
				0,
				-0.12399125099182129,
				-0.008360475301742554
			]
		},
		{
			"mesh":7,
			"name":"ground_prop",
			"rotation":[
				0,
				0.7071067094802856,
				0,
				0.7071068286895752
			],
			"translation":[
				-0.2960183620452881,
				-0.1441401094198227,
				-0.3651001453399658
			]
		},
		{
			"mesh":8,
			"name":"ceiling-col"
		},
		{
			"mesh":9,
			"name":"nav_mesh",
			"translation":[
				0,
				-0.08528178185224533,
				0
			]
		},
		{
			"mesh":10,
			"name":"ground_coll-colonly",
			"scale":[
				20.5,
				20.827922821044922,
				20.5
			]
		}
	],
	"materials":[
		{
			"doubleSided":true,
			"name":"M_support_walls",
			"normalTexture":{
				"index":0
			},
			"pbrMetallicRoughness":{
				"baseColorTexture":{
					"index":1
				},
				"metallicFactor":0,
				"metallicRoughnessTexture":{
					"index":2
				}
			}
		},
		{
			"doubleSided":true,
			"name":"M_rock_face_03",
			"normalTexture":{
				"index":3
			},
			"pbrMetallicRoughness":{
				"baseColorTexture":{
					"index":4
				},
				"metallicFactor":0,
				"metallicRoughnessTexture":{
					"index":5
				}
			}
		}
	],
	"meshes":[
		{
			"name":"walls-col",
			"primitives":[
				{
					"attributes":{
						"POSITION":0,
						"NORMAL":1,
						"TEXCOORD_0":2
					},
					"indices":3,
					"material":0
				},
				{
					"attributes":{
						"POSITION":4,
						"NORMAL":5,
						"TEXCOORD_0":6
					},
					"indices":7,
					"material":1
				}
			]
		},
		{
			"name":"walls-col",
			"primitives":[
				{
					"attributes":{
						"POSITION":8,
						"NORMAL":9,
						"TEXCOORD_0":10
					},
					"indices":3,
					"material":0
				},
				{
					"attributes":{
						"POSITION":11,
						"NORMAL":12,
						"TEXCOORD_0":13
					},
					"indices":7,
					"material":1
				}
			]
		},
		{
			"name":"walls-col",
			"primitives":[
				{
					"attributes":{
						"POSITION":14,
						"NORMAL":15,
						"TEXCOORD_0":16
					},
					"indices":3,
					"material":0
				},
				{
					"attributes":{
						"POSITION":17,
						"NORMAL":18,
						"TEXCOORD_0":19
					},
					"indices":7,
					"material":1
				}
			]
		},
		{
			"name":"walls-col",
			"primitives":[
				{
					"attributes":{
						"POSITION":20,
						"NORMAL":21,
						"TEXCOORD_0":22
					},
					"indices":3,
					"material":0
				},
				{
					"attributes":{
						"POSITION":23,
						"NORMAL":24,
						"TEXCOORD_0":25
					},
					"indices":7,
					"material":1
				}
			]
		},
		{
			"name":"ground",
			"primitives":[
				{
					"attributes":{
						"POSITION":26,
						"NORMAL":27,
						"TEXCOORD_0":28
					},
					"indices":29,
					"material":1
				}
			]
		},
		{
			"name":"props",
			"primitives":[
				{
					"attributes":{
						"POSITION":30,
						"NORMAL":31,
						"TEXCOORD_0":32
					},
					"indices":33,
					"material":1
				}
			]
		},
		{
			"name":"pillar-col.001",
			"primitives":[
				{
					"attributes":{
						"POSITION":34,
						"NORMAL":35,
						"TEXCOORD_0":36
					},
					"indices":37,
					"material":1
				}
			]
		},
		{
			"name":"ground_prop",
			"primitives":[
				{
					"attributes":{
						"POSITION":38,
						"NORMAL":39,
						"TEXCOORD_0":40
					},
					"indices":41,
					"material":1
				}
			]
		},
		{
			"name":"ceiling-col",
			"primitives":[
				{
					"attributes":{
						"POSITION":42,
						"NORMAL":43,
						"TEXCOORD_0":44
					},
					"indices":45,
					"material":1
				}
			]
		},
		{
			"name":"nav_mesh",
			"primitives":[
				{
					"attributes":{
						"POSITION":46,
						"NORMAL":47,
						"TEXCOORD_0":48
					},
					"indices":49
				}
			]
		},
		{
			"name":"ground_coll-colonly",
			"primitives":[
				{
					"attributes":{
						"POSITION":50,
						"NORMAL":51,
						"TEXCOORD_0":52
					},
					"indices":53
				}
			]
		}
	],
	"textures":[
		{
			"sampler":0,
			"source":0
		},
		{
			"sampler":0,
			"source":1
		},
		{
			"sampler":0,
			"source":2
		},
		{
			"sampler":0,
			"source":0
		},
		{
			"sampler":0,
			"source":3
		},
		{
			"sampler":0,
			"source":2
		}
	],
	"images":[
		{
			"mimeType":"image/png",
			"name":"T_rock_face_03_normal",
			"uri":"../texture/T_rock_face_03_normal.png"
		},
		{
			"mimeType":"image/png",
			"name":"support_walls",
			"uri":"../texture/support_walls.png"
		},
		{
			"mimeType":"image/png",
			"name":"T_rock_face_03_roughness",
			"uri":"../texture/T_rock_face_03_roughness.png"
		},
		{
			"mimeType":"image/png",
			"name":"T_rock_face_03_basecolor",
			"uri":"../texture/T_rock_face_03_basecolor.png"
		}
	],
	"accessors":[
		{
			"bufferView":0,
			"componentType":5126,
			"count":56,
			"max":[
				20,
				0.3471536636352539,
				1.6332823038101196
			],
			"min":[
				-20,
				-3.406614065170288,
				-0.5000038146972656
			],
			"type":"VEC3"
		},
		{
			"bufferView":1,
			"componentType":5126,
			"count":56,
			"type":"VEC3"
		},
		{
			"bufferView":2,
			"componentType":5126,
			"count":56,
			"type":"VEC2"
		},
		{
			"bufferView":3,
			"componentType":5123,
			"count":84,
			"type":"SCALAR"
		},
		{
			"bufferView":4,
			"componentType":5126,
			"count":34,
			"max":[
				2.5190422534942627,
				0.3471536636352539,
				1.6332836151123047
			],
			"min":[
				-2.5190422534942627,
				-0.971207857131958,
				-1.9073486328125e-06
			],
			"type":"VEC3"
		},
		{
			"bufferView":5,
			"componentType":5126,
			"count":34,
			"type":"VEC3"
		},
		{
			"bufferView":6,
			"componentType":5126,
			"count":34,
			"type":"VEC2"
		},
		{
			"bufferView":7,
			"componentType":5123,
			"count":42,
			"type":"SCALAR"
		},
		{
			"bufferView":8,
			"componentType":5126,
			"count":56,
			"max":[
				20,
				0.3471536636352539,
				1.6332823038101196
			],
			"min":[
				-20,
				-3.406614065170288,
				-0.5000038146972656
			],
			"type":"VEC3"
		},
		{
			"bufferView":9,
			"componentType":5126,
			"count":56,
			"type":"VEC3"
		},
		{
			"bufferView":10,
			"componentType":5126,
			"count":56,
			"type":"VEC2"
		},
		{
			"bufferView":11,
			"componentType":5126,
			"count":34,
			"max":[
				2.5190422534942627,
				0.3471536636352539,
				1.6332836151123047
			],
			"min":[
				-2.5190422534942627,
				-0.971207857131958,
				-1.9073486328125e-06
			],
			"type":"VEC3"
		},
		{
			"bufferView":12,
			"componentType":5126,
			"count":34,
			"type":"VEC3"
		},
		{
			"bufferView":13,
			"componentType":5126,
			"count":34,
			"type":"VEC2"
		},
		{
			"bufferView":14,
			"componentType":5126,
			"count":56,
			"max":[
				20,
				0.3471536636352539,
				1.6332823038101196
			],
			"min":[
				-20,
				-3.406614065170288,
				-0.5000038146972656
			],
			"type":"VEC3"
		},
		{
			"bufferView":15,
			"componentType":5126,
			"count":56,
			"type":"VEC3"
		},
		{
			"bufferView":16,
			"componentType":5126,
			"count":56,
			"type":"VEC2"
		},
		{
			"bufferView":17,
			"componentType":5126,
			"count":34,
			"max":[
				2.5190422534942627,
				0.3471536636352539,
				1.6332836151123047
			],
			"min":[
				-2.5190422534942627,
				-0.971207857131958,
				-1.9073486328125e-06
			],
			"type":"VEC3"
		},
		{
			"bufferView":18,
			"componentType":5126,
			"count":34,
			"type":"VEC3"
		},
		{
			"bufferView":19,
			"componentType":5126,
			"count":34,
			"type":"VEC2"
		},
		{
			"bufferView":20,
			"componentType":5126,
			"count":56,
			"max":[
				20,
				0.3471536636352539,
				1.6332823038101196
			],
			"min":[
				-20,
				-3.406614065170288,
				-0.5000038146972656
			],
			"type":"VEC3"
		},
		{
			"bufferView":21,
			"componentType":5126,
			"count":56,
			"type":"VEC3"
		},
		{
			"bufferView":22,
			"componentType":5126,
			"count":56,
			"type":"VEC2"
		},
		{
			"bufferView":23,
			"componentType":5126,
			"count":34,
			"max":[
				2.5190422534942627,
				0.3471536636352539,
				1.6332836151123047
			],
			"min":[
				-2.5190422534942627,
				-0.971207857131958,
				-1.9073486328125e-06
			],
			"type":"VEC3"
		},
		{
			"bufferView":24,
			"componentType":5126,
			"count":34,
			"type":"VEC3"
		},
		{
			"bufferView":25,
			"componentType":5126,
			"count":34,
			"type":"VEC2"
		},
		{
			"bufferView":26,
			"componentType":5126,
			"count":38195,
			"max":[
				20.500001907348633,
				0.03713399916887283,
				20.500003814697266
			],
			"min":[
				-20.500001907348633,
				-0.12490135431289673,
				-20.500003814697266
			],
			"type":"VEC3"
		},
		{
			"bufferView":27,
			"componentType":5126,
			"count":38195,
			"type":"VEC3"
		},
		{
			"bufferView":28,
			"componentType":5126,
			"count":38195,
			"type":"VEC2"
		},
		{
			"bufferView":29,
			"componentType":5123,
			"count":221184,
			"type":"SCALAR"
		},
		{
			"bufferView":30,
			"componentType":5126,
			"count":51,
			"max":[
				2.149481773376465,
				2.2354977130889893,
				2.8790998458862305
			],
			"min":[
				-2.028153419494629,
				0.06961682438850403,
				-2.94197154045105
			],
			"type":"VEC3"
		},
		{
			"bufferView":31,
			"componentType":5126,
			"count":51,
			"type":"VEC3"
		},
		{
			"bufferView":32,
			"componentType":5126,
			"count":51,
			"type":"VEC2"
		},
		{
			"bufferView":33,
			"componentType":5123,
			"count":216,
			"type":"SCALAR"
		},
		{
			"bufferView":34,
			"componentType":5126,
			"count":4480,
			"max":[
				16.339263916015625,
				10.825477600097656,
				16.03853416442871
			],
			"min":[
				-17.8421573638916,
				-4.809418678283691,
				-15.67075252532959
			],
			"type":"VEC3"
		},
		{
			"bufferView":35,
			"componentType":5126,
			"count":4480,
			"type":"VEC3"
		},
		{
			"bufferView":36,
			"componentType":5126,
			"count":4480,
			"type":"VEC2"
		},
		{
			"bufferView":37,
			"componentType":5123,
			"count":6720,
			"type":"SCALAR"
		},
		{
			"bufferView":38,
			"componentType":5126,
			"count":1176,
			"max":[
				16.627355575561523,
				1.1248588562011719,
				16.09109115600586
			],
			"min":[
				-19.85404396057129,
				-0.003483593463897705,
				-15.515525817871094
			],
			"type":"VEC3"
		},
		{
			"bufferView":39,
			"componentType":5126,
			"count":1176,
			"type":"VEC3"
		},
		{
			"bufferView":40,
			"componentType":5126,
			"count":1176,
			"type":"VEC2"
		},
		{
			"bufferView":41,
			"componentType":5123,
			"count":1764,
			"type":"SCALAR"
		},
		{
			"bufferView":42,
			"componentType":5126,
			"count":2913,
			"max":[
				19.82872200012207,
				9.359457969665527,
				19.829221725463867
			],
			"min":[
				-19.82898712158203,
				3.6533751487731934,
				-19.828493118286133
			],
			"type":"VEC3"
		},
		{
			"bufferView":43,
			"componentType":5126,
			"count":2913,
			"type":"VEC3"
		},
		{
			"bufferView":44,
			"componentType":5126,
			"count":2913,
			"type":"VEC2"
		},
		{
			"bufferView":45,
			"componentType":5123,
			"count":13824,
			"type":"SCALAR"
		},
		{
			"bufferView":46,
			"componentType":5126,
			"count":199,
			"max":[
				20.500003814697266,
				1.7881393432617188e-07,
				20.500001907348633
			],
			"min":[
				-20.500003814697266,
				-2.086162567138672e-07,
				-20.500001907348633
			],
			"type":"VEC3"
		},
		{
			"bufferView":47,
			"componentType":5126,
			"count":199,
			"type":"VEC3"
		},
		{
			"bufferView":48,
			"componentType":5126,
			"count":199,
			"type":"VEC2"
		},
		{
			"bufferView":49,
			"componentType":5123,
			"count":645,
			"type":"SCALAR"
		},
		{
			"bufferView":50,
			"componentType":5126,
			"count":4,
			"max":[
				1,
				0,
				1
			],
			"min":[
				-1,
				0,
				-1
			],
			"type":"VEC3"
		},
		{
			"bufferView":51,
			"componentType":5126,
			"count":4,
			"type":"VEC3"
		},
		{
			"bufferView":52,
			"componentType":5126,
			"count":4,
			"type":"VEC2"
		},
		{
			"bufferView":53,
			"componentType":5123,
			"count":6,
			"type":"SCALAR"
		}
	],
	"bufferViews":[
		{
			"buffer":0,
			"byteLength":672,
			"byteOffset":0,
			"target":34962
		},
		{
			"buffer":0,
			"byteLength":672,
			"byteOffset":672,
			"target":34962
		},
		{
			"buffer":0,
			"byteLength":448,
			"byteOffset":1344,
			"target":34962
		},
		{
			"buffer":0,
			"byteLength":168,
			"byteOffset":1792,
			"target":34963
		},
		{
			"buffer":0,
			"byteLength":408,
			"byteOffset":1960,
			"target":34962
		},
		{
			"buffer":0,
			"byteLength":408,
			"byteOffset":2368,
			"target":34962
		},
		{
			"buffer":0,
			"byteLength":272,
			"byteOffset":2776,
			"target":34962
		},
		{
			"buffer":0,
			"byteLength":84,
			"byteOffset":3048,
			"target":34963
		},
		{
			"buffer":0,
			"byteLength":672,
			"byteOffset":3132,
			"target":34962
		},
		{
			"buffer":0,
			"byteLength":672,
			"byteOffset":3804,
			"target":34962
		},
		{
			"buffer":0,
			"byteLength":448,
			"byteOffset":4476,
			"target":34962
		},
		{
			"buffer":0,
			"byteLength":408,
			"byteOffset":4924,
			"target":34962
		},
		{
			"buffer":0,
			"byteLength":408,
			"byteOffset":5332,
			"target":34962
		},
		{
			"buffer":0,
			"byteLength":272,
			"byteOffset":5740,
			"target":34962
		},
		{
			"buffer":0,
			"byteLength":672,
			"byteOffset":6012,
			"target":34962
		},
		{
			"buffer":0,
			"byteLength":672,
			"byteOffset":6684,
			"target":34962
		},
		{
			"buffer":0,
			"byteLength":448,
			"byteOffset":7356,
			"target":34962
		},
		{
			"buffer":0,
			"byteLength":408,
			"byteOffset":7804,
			"target":34962
		},
		{
			"buffer":0,
			"byteLength":408,
			"byteOffset":8212,
			"target":34962
		},
		{
			"buffer":0,
			"byteLength":272,
			"byteOffset":8620,
			"target":34962
		},
		{
			"buffer":0,
			"byteLength":672,
			"byteOffset":8892,
			"target":34962
		},
		{
			"buffer":0,
			"byteLength":672,
			"byteOffset":9564,
			"target":34962
		},
		{
			"buffer":0,
			"byteLength":448,
			"byteOffset":10236,
			"target":34962
		},
		{
			"buffer":0,
			"byteLength":408,
			"byteOffset":10684,
			"target":34962
		},
		{
			"buffer":0,
			"byteLength":408,
			"byteOffset":11092,
			"target":34962
		},
		{
			"buffer":0,
			"byteLength":272,
			"byteOffset":11500,
			"target":34962
		},
		{
			"buffer":0,
			"byteLength":458340,
			"byteOffset":11772,
			"target":34962
		},
		{
			"buffer":0,
			"byteLength":458340,
			"byteOffset":470112,
			"target":34962
		},
		{
			"buffer":0,
			"byteLength":305560,
			"byteOffset":928452,
			"target":34962
		},
		{
			"buffer":0,
			"byteLength":442368,
			"byteOffset":1234012,
			"target":34963
		},
		{
			"buffer":0,
			"byteLength":612,
			"byteOffset":1676380,
			"target":34962
		},
		{
			"buffer":0,
			"byteLength":612,
			"byteOffset":1676992,
			"target":34962
		},
		{
			"buffer":0,
			"byteLength":408,
			"byteOffset":1677604,
			"target":34962
		},
		{
			"buffer":0,
			"byteLength":432,
			"byteOffset":1678012,
			"target":34963
		},
		{
			"buffer":0,
			"byteLength":53760,
			"byteOffset":1678444,
			"target":34962
		},
		{
			"buffer":0,
			"byteLength":53760,
			"byteOffset":1732204,
			"target":34962
		},
		{
			"buffer":0,
			"byteLength":35840,
			"byteOffset":1785964,
			"target":34962
		},
		{
			"buffer":0,
			"byteLength":13440,
			"byteOffset":1821804,
			"target":34963
		},
		{
			"buffer":0,
			"byteLength":14112,
			"byteOffset":1835244,
			"target":34962
		},
		{
			"buffer":0,
			"byteLength":14112,
			"byteOffset":1849356,
			"target":34962
		},
		{
			"buffer":0,
			"byteLength":9408,
			"byteOffset":1863468,
			"target":34962
		},
		{
			"buffer":0,
			"byteLength":3528,
			"byteOffset":1872876,
			"target":34963
		},
		{
			"buffer":0,
			"byteLength":34956,
			"byteOffset":1876404,
			"target":34962
		},
		{
			"buffer":0,
			"byteLength":34956,
			"byteOffset":1911360,
			"target":34962
		},
		{
			"buffer":0,
			"byteLength":23304,
			"byteOffset":1946316,
			"target":34962
		},
		{
			"buffer":0,
			"byteLength":27648,
			"byteOffset":1969620,
			"target":34963
		},
		{
			"buffer":0,
			"byteLength":2388,
			"byteOffset":1997268,
			"target":34962
		},
		{
			"buffer":0,
			"byteLength":2388,
			"byteOffset":1999656,
			"target":34962
		},
		{
			"buffer":0,
			"byteLength":1592,
			"byteOffset":2002044,
			"target":34962
		},
		{
			"buffer":0,
			"byteLength":1290,
			"byteOffset":2003636,
			"target":34963
		},
		{
			"buffer":0,
			"byteLength":48,
			"byteOffset":2004928,
			"target":34962
		},
		{
			"buffer":0,
			"byteLength":48,
			"byteOffset":2004976,
			"target":34962
		},
		{
			"buffer":0,
			"byteLength":32,
			"byteOffset":2005024,
			"target":34962
		},
		{
			"buffer":0,
			"byteLength":12,
			"byteOffset":2005056,
			"target":34963
		}
	],
	"samplers":[
		{
			"magFilter":9728,
			"minFilter":9984
		}
	],
	"buffers":[
		{
			"byteLength":2005068,
			"uri":"lvl1.bin"
		}
	]
}
