{
	"asset":{
		"generator":"Khronos glTF Blender I/O v5.1.18",
		"version":"2.0"
	},
	"scene":0,
	"scenes":[
		{
			"name":"lvl1_mesh",
			"nodes":[
				0,
				1,
				2,
				3,
				4,
				5,
				6,
				7,
				8,
				9,
				10,
				11,
				12,
				13,
				14,
				15,
				16
			]
		}
	],
	"nodes":[
		{
			"mesh":0,
			"name":"walls-col.002",
			"rotation":[
				0,
				0.7071068286895752,
				0,
				0.7071068286895752
			],
			"translation":[
				-20,
				3.406614065170288,
				0
			]
		},
		{
			"mesh":1,
			"name":"walls-col",
			"translation":[
				0,
				3.406614065170288,
				-20
			]
		},
		{
			"mesh":2,
			"name":"walls.001-col",
			"rotation":[
				0,
				-0.7071068286895752,
				0,
				0.7071068286895752
			],
			"translation":[
				20,
				3.406614065170288,
				0
			]
		},
		{
			"mesh":3,
			"name":"walls.002-col",
			"rotation":[
				0,
				-1,
				0,
				1.6292068494294654e-07
			],
			"translation":[
				0,
				3.406614065170288,
				20
			]
		},
		{
			"mesh":4,
			"name":"ground",
			"rotation":[
				-1,
				0,
				0,
				1.6292068494294654e-07
			],
			"translation":[
				0,
				-0.04777282476425171,
				0
			]
		},
		{
			"name":"NurbsPath",
			"translation":[
				11.156477928161621,
				0.04662102088332176,
				-1.9807968139648438
			]
		},
		{
			"name":"NurbsPath.001",
			"translation":[
				11.156477928161621,
				0.04662102088332176,
				1.0363540649414062
			]
		},
		{
			"mesh":5,
			"name":"ground_prop",
			"rotation":[
				0,
				0.7071067094802856,
				0,
				0.7071068286895752
			],
			"translation":[
				-0.2960183620452881,
				-0.1441401094198227,
				-0.3651001453399658
			]
		},
		{
			"mesh":6,
			"name":"rails_carts.005-convcol.001",
			"rotation":[
				-0.024666378274559975,
				0.8216675519943237,
				-0.03722335025668144,
				0.5682151317596436
			],
			"translation":[
				1.5586708784103394,
				0.1826293170452118,
				-13.195030212402344
			]
		},
		{
			"mesh":6,
			"name":"rails_carts.005-convcol.002",
			"rotation":[
				-0.024666378274559975,
				0.8216675519943237,
				-0.03722335025668144,
				0.5682151317596436
			],
			"translation":[
				2.1173877716064453,
				0.14630243182182312,
				-11.47155475616455
			]
		},
		{
			"mesh":6,
			"name":"rails_carts.005-convcol.003",
			"rotation":[
				-0.03303704410791397,
				0.9358698129653931,
				-0.03004266321659088,
				0.3495049774646759
			],
			"translation":[
				6.460884094238281,
				0.1570906937122345,
				-3.819209337234497
			]
		},
		{
			"mesh":6,
			"name":"rails_carts.005-convcol.004",
			"rotation":[
				-0.07487766444683075,
				0.9806460738182068,
				0.005937373731285334,
				0.18080760538578033
			],
			"translation":[
				-13.166977882385254,
				0.3841039836406708,
				10.87181568145752
			]
		},
		{
			"mesh":7,
			"name":"ceiling-col"
		},
		{
			"mesh":8,
			"name":"pillar-col",
			"translation":[
				-10.824501991271973,
				4.132321357727051,
				-12.988025665283203
			]
		},
		{
			"mesh":9,
			"name":"ground_coll-colonly"
		},
		{
			"mesh":10,
			"name":"door_closed.001",
			"scale":[
				2.131930112838745,
				2.1319327354431152,
				2.1319327354431152
			],
			"translation":[
				17.548797607421875,
				0.02338150143623352,
				-2.137690544128418
			]
		},
		{
			"mesh":11,
			"name":"door_closed.002",
			"scale":[
				2.131930112838745,
				2.131930112838745,
				2.131930112838745
			],
			"translation":[
				28.702838897705078,
				0.00034685246646404266,
				0.879460334777832
			]
		}
	],
	"materials":[
		{
			"doubleSided":true,
			"name":"M_support_walls",
			"pbrMetallicRoughness":{
				"baseColorTexture":{
					"index":0
				},
				"metallicFactor":0
			}
		},
		{
			"doubleSided":true,
			"name":"M_rock_face_03",
			"normalTexture":{
				"index":1
			},
			"pbrMetallicRoughness":{
				"baseColorTexture":{
					"index":2
				},
				"metallicFactor":0,
				"metallicRoughnessTexture":{
					"index":3
				}
			}
		},
		{
			"doubleSided":true,
			"name":"M_support_walls.002",
			"pbrMetallicRoughness":{
				"baseColorTexture":{
					"index":4
				},
				"metallicFactor":0
			}
		},
		{
			"doubleSided":true,
			"name":"M_rusty_metal_grid.001",
			"normalTexture":{
				"index":5
			},
			"pbrMetallicRoughness":{
				"baseColorTexture":{
					"index":6
				},
				"metallicFactor":0,
				"metallicRoughnessTexture":{
					"index":7
				}
			}
		}
	],
	"meshes":[
		{
			"name":"walls.002-col",
			"primitives":[
				{
					"attributes":{
						"POSITION":0,
						"NORMAL":1,
						"TEXCOORD_0":2
					},
					"indices":3,
					"material":0
				},
				{
					"attributes":{
						"POSITION":4,
						"NORMAL":5,
						"TEXCOORD_0":6
					},
					"indices":7,
					"material":1
				}
			]
		},
		{
			"name":"walls.002-col",
			"primitives":[
				{
					"attributes":{
						"POSITION":8,
						"NORMAL":9,
						"TEXCOORD_0":10
					},
					"indices":3,
					"material":0
				},
				{
					"attributes":{
						"POSITION":11,
						"NORMAL":12,
						"TEXCOORD_0":13
					},
					"indices":7,
					"material":1
				}
			]
		},
		{
			"name":"walls.002-col",
			"primitives":[
				{
					"attributes":{
						"POSITION":14,
						"NORMAL":15,
						"TEXCOORD_0":16
					},
					"indices":3,
					"material":0
				},
				{
					"attributes":{
						"POSITION":17,
						"NORMAL":18,
						"TEXCOORD_0":19
					},
					"indices":7,
					"material":1
				}
			]
		},
		{
			"name":"walls.002-col",
			"primitives":[
				{
					"attributes":{
						"POSITION":20,
						"NORMAL":21,
						"TEXCOORD_0":22
					},
					"indices":3,
					"material":0
				},
				{
					"attributes":{
						"POSITION":23,
						"NORMAL":24,
						"TEXCOORD_0":25
					},
					"indices":7,
					"material":1
				}
			]
		},
		{
			"name":"ground",
			"primitives":[
				{
					"attributes":{
						"POSITION":26,
						"NORMAL":27,
						"TEXCOORD_0":28
					},
					"indices":29,
					"material":1
				}
			]
		},
		{
			"name":"ground_prop",
			"primitives":[
				{
					"attributes":{
						"POSITION":30,
						"NORMAL":31,
						"TEXCOORD_0":32
					},
					"indices":33,
					"material":1
				}
			]
		},
		{
			"name":"rails_carts.005-convcol.001",
			"primitives":[
				{
					"attributes":{
						"POSITION":34,
						"NORMAL":35,
						"TEXCOORD_0":36
					},
					"indices":37,
					"material":2
				},
				{
					"attributes":{
						"POSITION":38,
						"NORMAL":39,
						"TEXCOORD_0":40
					},
					"indices":41,
					"material":3
				}
			]
		},
		{
			"name":"ceiling-col",
			"primitives":[
				{
					"attributes":{
						"POSITION":42,
						"NORMAL":43,
						"TEXCOORD_0":44
					},
					"indices":45,
					"material":1
				}
			]
		},
		{
			"name":"pillar-col",
			"primitives":[
				{
					"attributes":{
						"POSITION":46,
						"NORMAL":47,
						"TEXCOORD_0":48
					},
					"indices":49,
					"material":1
				}
			]
		},
		{
			"name":"ground_coll-colonly",
			"primitives":[
				{
					"attributes":{
						"POSITION":50,
						"NORMAL":51,
						"TEXCOORD_0":52
					},
					"indices":53
				}
			]
		},
		{
			"name":"door_closed.001",
			"primitives":[
				{
					"attributes":{
						"POSITION":54,
						"NORMAL":55,
						"TEXCOORD_0":56
					},
					"indices":57,
					"material":0
				}
			]
		},
		{
			"name":"door_closed.001",
			"primitives":[
				{
					"attributes":{
						"POSITION":58,
						"NORMAL":59,
						"TEXCOORD_0":60
					},
					"indices":61,
					"material":0
				}
			]
		}
	],
	"textures":[
		{
			"sampler":0,
			"source":0
		},
		{
			"sampler":0,
			"source":1
		},
		{
			"sampler":0,
			"source":2
		},
		{
			"sampler":0,
			"source":3
		},
		{
			"sampler":0,
			"source":0
		},
		{
			"sampler":0,
			"source":4
		},
		{
			"sampler":0,
			"source":5
		},
		{
			"sampler":0,
			"source":6
		}
	],
	"images":[
		{
			"mimeType":"image/png",
			"name":"support_walls",
			"uri":"../texture/support_walls.png"
		},
		{
			"mimeType":"image/png",
			"name":"T_rock_face_03_normal",
			"uri":"../texture/T_rock_face_03_normal.png"
		},
		{
			"mimeType":"image/png",
			"name":"T_rock_face_03_basecolor",
			"uri":"../texture/T_rock_face_03_basecolor.png"
		},
		{
			"mimeType":"image/png",
			"name":"T_rock_face_03_roughness",
			"uri":"../texture/T_rock_face_03_roughness.png"
		},
		{
			"mimeType":"image/png",
			"name":"T_rusty_metal_grid_normal",
			"uri":"../texture/T_rusty_metal_grid_normal.png"
		},
		{
			"mimeType":"image/png",
			"name":"T_rusty_metal_grid_basecolor",
			"uri":"../texture/T_rusty_metal_grid_basecolor.png"
		},
		{
			"mimeType":"image/png",
			"name":"T_rusty_metal_grid_roughness",
			"uri":"../texture/T_rusty_metal_grid_roughness.png"
		}
	],
	"accessors":[
		{
			"bufferView":0,
			"componentType":5126,
			"count":56,
			"max":[
				20,
				0.3471536636352539,
				1.6332823038101196
			],
			"min":[
				-20,
				-3.406614065170288,
				-0.5000038146972656
			],
			"type":"VEC3"
		},
		{
			"bufferView":1,
			"componentType":5126,
			"count":56,
			"type":"VEC3"
		},
		{
			"bufferView":2,
			"componentType":5126,
			"count":56,
			"type":"VEC2"
		},
		{
			"bufferView":3,
			"componentType":5123,
			"count":84,
			"type":"SCALAR"
		},
		{
			"bufferView":4,
			"componentType":5126,
			"count":34,
			"max":[
				2.5190422534942627,
				0.3471536636352539,
				1.6332836151123047
			],
			"min":[
				-2.5190422534942627,
				-0.971207857131958,
				-1.9073486328125e-06
			],
			"type":"VEC3"
		},
		{
			"bufferView":5,
			"componentType":5126,
			"count":34,
			"type":"VEC3"
		},
		{
			"bufferView":6,
			"componentType":5126,
			"count":34,
			"type":"VEC2"
		},
		{
			"bufferView":7,
			"componentType":5123,
			"count":42,
			"type":"SCALAR"
		},
		{
			"bufferView":8,
			"componentType":5126,
			"count":56,
			"max":[
				20,
				0.3471536636352539,
				1.6332823038101196
			],
			"min":[
				-20,
				-3.406614065170288,
				-0.5000038146972656
			],
			"type":"VEC3"
		},
		{
			"bufferView":9,
			"componentType":5126,
			"count":56,
			"type":"VEC3"
		},
		{
			"bufferView":10,
			"componentType":5126,
			"count":56,
			"type":"VEC2"
		},
		{
			"bufferView":11,
			"componentType":5126,
			"count":34,
			"max":[
				2.5190422534942627,
				0.3471536636352539,
				1.6332836151123047
			],
			"min":[
				-2.5190422534942627,
				-0.971207857131958,
				-1.9073486328125e-06
			],
			"type":"VEC3"
		},
		{
			"bufferView":12,
			"componentType":5126,
			"count":34,
			"type":"VEC3"
		},
		{
			"bufferView":13,
			"componentType":5126,
			"count":34,
			"type":"VEC2"
		},
		{
			"bufferView":14,
			"componentType":5126,
			"count":56,
			"max":[
				20,
				0.3471536636352539,
				1.6332823038101196
			],
			"min":[
				-20,
				-3.406614065170288,
				-0.5000038146972656
			],
			"type":"VEC3"
		},
		{
			"bufferView":15,
			"componentType":5126,
			"count":56,
			"type":"VEC3"
		},
		{
			"bufferView":16,
			"componentType":5126,
			"count":56,
			"type":"VEC2"
		},
		{
			"bufferView":17,
			"componentType":5126,
			"count":34,
			"max":[
				2.5190422534942627,
				0.3471536636352539,
				1.6332836151123047
			],
			"min":[
				-2.5190422534942627,
				-0.971207857131958,
				-1.9073486328125e-06
			],
			"type":"VEC3"
		},
		{
			"bufferView":18,
			"componentType":5126,
			"count":34,
			"type":"VEC3"
		},
		{
			"bufferView":19,
			"componentType":5126,
			"count":34,
			"type":"VEC2"
		},
		{
			"bufferView":20,
			"componentType":5126,
			"count":56,
			"max":[
				20,
				0.3471536636352539,
				1.6332823038101196
			],
			"min":[
				-20,
				-3.406614065170288,
				-0.5000038146972656
			],
			"type":"VEC3"
		},
		{
			"bufferView":21,
			"componentType":5126,
			"count":56,
			"type":"VEC3"
		},
		{
			"bufferView":22,
			"componentType":5126,
			"count":56,
			"type":"VEC2"
		},
		{
			"bufferView":23,
			"componentType":5126,
			"count":34,
			"max":[
				2.5190422534942627,
				0.3471536636352539,
				1.6332836151123047
			],
			"min":[
				-2.5190422534942627,
				-0.971207857131958,
				-1.9073486328125e-06
			],
			"type":"VEC3"
		},
		{
			"bufferView":24,
			"componentType":5126,
			"count":34,
			"type":"VEC3"
		},
		{
			"bufferView":25,
			"componentType":5126,
			"count":34,
			"type":"VEC2"
		},
		{
			"bufferView":26,
			"componentType":5126,
			"count":38180,
			"max":[
				20.500001907348633,
				0.03713398426771164,
				20.500003814697266
			],
			"min":[
				-20.500001907348633,
				-0.12490135431289673,
				-20.500003814697266
			],
			"type":"VEC3"
		},
		{
			"bufferView":27,
			"componentType":5126,
			"count":38180,
			"type":"VEC3"
		},
		{
			"bufferView":28,
			"componentType":5126,
			"count":38180,
			"type":"VEC2"
		},
		{
			"bufferView":29,
			"componentType":5123,
			"count":221184,
			"type":"SCALAR"
		},
		{
			"bufferView":30,
			"componentType":5126,
			"count":1176,
			"max":[
				17.1075439453125,
				1.1248588562011719,
				16.573583602905273
			],
			"min":[
				-20.3342342376709,
				-0.2625533938407898,
				-15.998017311096191
			],
			"type":"VEC3"
		},
		{
			"bufferView":31,
			"componentType":5126,
			"count":1176,
			"type":"VEC3"
		},
		{
			"bufferView":32,
			"componentType":5126,
			"count":1176,
			"type":"VEC2"
		},
		{
			"bufferView":33,
			"componentType":5123,
			"count":1764,
			"type":"SCALAR"
		},
		{
			"bufferView":34,
			"componentType":5126,
			"count":1417,
			"max":[
				0.744759738445282,
				0.5991067886352539,
				0.5748096108436584
			],
			"min":[
				-0.9620000123977661,
				-0.18443159759044647,
				-0.5748096108436584
			],
			"type":"VEC3"
		},
		{
			"bufferView":35,
			"componentType":5126,
			"count":1417,
			"type":"VEC3"
		},
		{
			"bufferView":36,
			"componentType":5126,
			"count":1417,
			"type":"VEC2"
		},
		{
			"bufferView":37,
			"componentType":5123,
			"count":3948,
			"type":"SCALAR"
		},
		{
			"bufferView":38,
			"componentType":5126,
			"count":339,
			"max":[
				0.8054825067520142,
				0.7647714614868164,
				0.5915541052818298
			],
			"min":[
				-0.8269897699356079,
				-0.051721177995204926,
				-0.5915541052818298
			],
			"type":"VEC3"
		},
		{
			"bufferView":39,
			"componentType":5126,
			"count":339,
			"type":"VEC3"
		},
		{
			"bufferView":40,
			"componentType":5126,
			"count":339,
			"type":"VEC2"
		},
		{
			"bufferView":41,
			"componentType":5123,
			"count":624,
			"type":"SCALAR"
		},
		{
			"bufferView":42,
			"componentType":5126,
			"count":2913,
			"max":[
				19.82872200012207,
				9.359457969665527,
				19.829221725463867
			],
			"min":[
				-19.82898712158203,
				3.6533751487731934,
				-19.828493118286133
			],
			"type":"VEC3"
		},
		{
			"bufferView":43,
			"componentType":5126,
			"count":2913,
			"type":"VEC3"
		},
		{
			"bufferView":44,
			"componentType":5126,
			"count":2913,
			"type":"VEC2"
		},
		{
			"bufferView":45,
			"componentType":5123,
			"count":13824,
			"type":"SCALAR"
		},
		{
			"bufferView":46,
			"componentType":5126,
			"count":3494,
			"max":[
				27.16376495361328,
				6.225930213928223,
				29.018198013305664
			],
			"min":[
				-5.770632743835449,
				-9.065731048583984,
				-2.6910877227783203
			],
			"type":"VEC3"
		},
		{
			"bufferView":47,
			"componentType":5126,
			"count":3494,
			"type":"VEC3"
		},
		{
			"bufferView":48,
			"componentType":5126,
			"count":3494,
			"type":"VEC2"
		},
		{
			"bufferView":49,
			"componentType":5123,
			"count":6720,
			"type":"SCALAR"
		},
		{
			"bufferView":50,
			"componentType":5126,
			"count":4,
			"max":[
				20.5,
				0,
				20.5
			],
			"min":[
				-20.5,
				0,
				-20.5
			],
			"type":"VEC3"
		},
		{
			"bufferView":51,
			"componentType":5126,
			"count":4,
			"type":"VEC3"
		},
		{
			"bufferView":52,
			"componentType":5126,
			"count":4,
			"type":"VEC2"
		},
		{
			"bufferView":53,
			"componentType":5123,
			"count":6,
			"type":"SCALAR"
		},
		{
			"bufferView":54,
			"componentType":5126,
			"count":18522,
			"max":[
				0.14998412132263184,
				0.045660242438316345,
				0.90240478515625
			],
			"min":[
				-8.426748275756836,
				-0.15347997844219208,
				-7.648255825042725
			],
			"type":"VEC3"
		},
		{
			"bufferView":55,
			"componentType":5126,
			"count":18522,
			"type":"VEC3"
		},
		{
			"bufferView":56,
			"componentType":5126,
			"count":18522,
			"type":"VEC2"
		},
		{
			"bufferView":57,
			"componentType":5123,
			"count":54240,
			"type":"SCALAR"
		},
		{
			"bufferView":58,
			"componentType":5126,
			"count":19272,
			"max":[
				-5.034198760986328,
				0.05225784704089165,
				3.388676643371582
			],
			"min":[
				-15.815437316894531,
				-0.3305244445800781,
				-1.5547229051589966
			],
			"type":"VEC3"
		},
		{
			"bufferView":59,
			"componentType":5126,
			"count":19272,
			"type":"VEC3"
		},
		{
			"bufferView":60,
			"componentType":5126,
			"count":19272,
			"type":"VEC2"
		},
		{
			"bufferView":61,
			"componentType":5123,
			"count":54240,
			"type":"SCALAR"
		}
	],
	"bufferViews":[
		{
			"buffer":0,
			"byteLength":672,
			"byteOffset":0,
			"target":34962
		},
		{
			"buffer":0,
			"byteLength":672,
			"byteOffset":672,
			"target":34962
		},
		{
			"buffer":0,
			"byteLength":448,
			"byteOffset":1344,
			"target":34962
		},
		{
			"buffer":0,
			"byteLength":168,
			"byteOffset":1792,
			"target":34963
		},
		{
			"buffer":0,
			"byteLength":408,
			"byteOffset":1960,
			"target":34962
		},
		{
			"buffer":0,
			"byteLength":408,
			"byteOffset":2368,
			"target":34962
		},
		{
			"buffer":0,
			"byteLength":272,
			"byteOffset":2776,
			"target":34962
		},
		{
			"buffer":0,
			"byteLength":84,
			"byteOffset":3048,
			"target":34963
		},
		{
			"buffer":0,
			"byteLength":672,
			"byteOffset":3132,
			"target":34962
		},
		{
			"buffer":0,
			"byteLength":672,
			"byteOffset":3804,
			"target":34962
		},
		{
			"buffer":0,
			"byteLength":448,
			"byteOffset":4476,
			"target":34962
		},
		{
			"buffer":0,
			"byteLength":408,
			"byteOffset":4924,
			"target":34962
		},
		{
			"buffer":0,
			"byteLength":408,
			"byteOffset":5332,
			"target":34962
		},
		{
			"buffer":0,
			"byteLength":272,
			"byteOffset":5740,
			"target":34962
		},
		{
			"buffer":0,
			"byteLength":672,
			"byteOffset":6012,
			"target":34962
		},
		{
			"buffer":0,
			"byteLength":672,
			"byteOffset":6684,
			"target":34962
		},
		{
			"buffer":0,
			"byteLength":448,
			"byteOffset":7356,
			"target":34962
		},
		{
			"buffer":0,
			"byteLength":408,
			"byteOffset":7804,
			"target":34962
		},
		{
			"buffer":0,
			"byteLength":408,
			"byteOffset":8212,
			"target":34962
		},
		{
			"buffer":0,
			"byteLength":272,
			"byteOffset":8620,
			"target":34962
		},
		{
			"buffer":0,
			"byteLength":672,
			"byteOffset":8892,
			"target":34962
		},
		{
			"buffer":0,
			"byteLength":672,
			"byteOffset":9564,
			"target":34962
		},
		{
			"buffer":0,
			"byteLength":448,
			"byteOffset":10236,
			"target":34962
		},
		{
			"buffer":0,
			"byteLength":408,
			"byteOffset":10684,
			"target":34962
		},
		{
			"buffer":0,
			"byteLength":408,
			"byteOffset":11092,
			"target":34962
		},
		{
			"buffer":0,
			"byteLength":272,
			"byteOffset":11500,
			"target":34962
		},
		{
			"buffer":0,
			"byteLength":458160,
			"byteOffset":11772,
			"target":34962
		},
		{
			"buffer":0,
			"byteLength":458160,
			"byteOffset":469932,
			"target":34962
		},
		{
			"buffer":0,
			"byteLength":305440,
			"byteOffset":928092,
			"target":34962
		},
		{
			"buffer":0,
			"byteLength":442368,
			"byteOffset":1233532,
			"target":34963
		},
		{
			"buffer":0,
			"byteLength":14112,
			"byteOffset":1675900,
			"target":34962
		},
		{
			"buffer":0,
			"byteLength":14112,
			"byteOffset":1690012,
			"target":34962
		},
		{
			"buffer":0,
			"byteLength":9408,
			"byteOffset":1704124,
			"target":34962
		},
		{
			"buffer":0,
			"byteLength":3528,
			"byteOffset":1713532,
			"target":34963
		},
		{
			"buffer":0,
			"byteLength":17004,
			"byteOffset":1717060,
			"target":34962
		},
		{
			"buffer":0,
			"byteLength":17004,
			"byteOffset":1734064,
			"target":34962
		},
		{
			"buffer":0,
			"byteLength":11336,
			"byteOffset":1751068,
			"target":34962
		},
		{
			"buffer":0,
			"byteLength":7896,
			"byteOffset":1762404,
			"target":34963
		},
		{
			"buffer":0,
			"byteLength":4068,
			"byteOffset":1770300,
			"target":34962
		},
		{
			"buffer":0,
			"byteLength":4068,
			"byteOffset":1774368,
			"target":34962
		},
		{
			"buffer":0,
			"byteLength":2712,
			"byteOffset":1778436,
			"target":34962
		},
		{
			"buffer":0,
			"byteLength":1248,
			"byteOffset":1781148,
			"target":34963
		},
		{
			"buffer":0,
			"byteLength":34956,
			"byteOffset":1782396,
			"target":34962
		},
		{
			"buffer":0,
			"byteLength":34956,
			"byteOffset":1817352,
			"target":34962
		},
		{
			"buffer":0,
			"byteLength":23304,
			"byteOffset":1852308,
			"target":34962
		},
		{
			"buffer":0,
			"byteLength":27648,
			"byteOffset":1875612,
			"target":34963
		},
		{
			"buffer":0,
			"byteLength":41928,
			"byteOffset":1903260,
			"target":34962
		},
		{
			"buffer":0,
			"byteLength":41928,
			"byteOffset":1945188,
			"target":34962
		},
		{
			"buffer":0,
			"byteLength":27952,
			"byteOffset":1987116,
			"target":34962
		},
		{
			"buffer":0,
			"byteLength":13440,
			"byteOffset":2015068,
			"target":34963
		},
		{
			"buffer":0,
			"byteLength":48,
			"byteOffset":2028508,
			"target":34962
		},
		{
			"buffer":0,
			"byteLength":48,
			"byteOffset":2028556,
			"target":34962
		},
		{
			"buffer":0,
			"byteLength":32,
			"byteOffset":2028604,
			"target":34962
		},
		{
			"buffer":0,
			"byteLength":12,
			"byteOffset":2028636,
			"target":34963
		},
		{
			"buffer":0,
			"byteLength":222264,
			"byteOffset":2028648,
			"target":34962
		},
		{
			"buffer":0,
			"byteLength":222264,
			"byteOffset":2250912,
			"target":34962
		},
		{
			"buffer":0,
			"byteLength":148176,
			"byteOffset":2473176,
			"target":34962
		},
		{
			"buffer":0,
			"byteLength":108480,
			"byteOffset":2621352,
			"target":34963
		},
		{
			"buffer":0,
			"byteLength":231264,
			"byteOffset":2729832,
			"target":34962
		},
		{
			"buffer":0,
			"byteLength":231264,
			"byteOffset":2961096,
			"target":34962
		},
		{
			"buffer":0,
			"byteLength":154176,
			"byteOffset":3192360,
			"target":34962
		},
		{
			"buffer":0,
			"byteLength":108480,
			"byteOffset":3346536,
			"target":34963
		}
	],
	"samplers":[
		{
			"magFilter":9728,
			"minFilter":9984
		}
	],
	"buffers":[
		{
			"byteLength":3455016,
			"uri":"lvl1.bin"
		}
	]
}
