{
	"asset":{
		"generator":"Khronos glTF Blender I/O v5.1.18",
		"version":"2.0"
	},
	"scene":0,
	"scenes":[
		{
			"name":"lvl1",
			"nodes":[
				0,
				1,
				2,
				3,
				4,
				8,
				9,
				10,
				11,
				12
			]
		}
	],
	"nodes":[
		{
			"mesh":0,
			"name":"SM_lvl1-col",
			"rotation":[
				0,
				0.7071068286895752,
				0,
				0.7071068286895752
			],
			"translation":[
				-20,
				3.406614065170288,
				0
			]
		},
		{
			"mesh":0,
			"name":"SM_lvl1-col.003",
			"translation":[
				0,
				3.406614065170288,
				-20
			]
		},
		{
			"mesh":0,
			"name":"SM_lvl1-col.004",
			"rotation":[
				0,
				-0.7071068286895752,
				0,
				0.7071068286895752
			],
			"translation":[
				20,
				3.406614065170288,
				0
			]
		},
		{
			"mesh":0,
			"name":"SM_lvl1-col.005",
			"rotation":[
				0,
				-1,
				0,
				1.6292068494294654e-07
			],
			"translation":[
				0,
				3.406614065170288,
				20
			]
		},
		{
			"mesh":1,
			"name":"SM_lvl1-col.001"
		},
		{
			"mesh":2,
			"name":"Plane.001",
			"translation":[
				0,
				-1,
				0.5876421928405762
			]
		},
		{
			"mesh":3,
			"name":"Plane.002",
			"translation":[
				0,
				-1,
				-1
			]
		},
		{
			"mesh":4,
			"name":"Plane.003",
			"translation":[
				0,
				-1,
				-1.076841950416565
			]
		},
		{
			"children":[
				5,
				6,
				7
			],
			"mesh":5,
			"name":"Cube.001",
			"translation":[
				0,
				1,
				0
			]
		},
		{
			"mesh":6,
			"name":"door-col-col",
			"scale":[
				2.897120952606201,
				1,
				1
			]
		},
		{
			"mesh":6,
			"name":"door.005-col",
			"rotation":[
				0,
				0.7071068286895752,
				0,
				0.7071068286895752
			],
			"scale":[
				2.897120952606201,
				1,
				1
			]
		},
		{
			"mesh":6,
			"name":"door.006-col",
			"rotation":[
				0,
				-1,
				0,
				1.6292068494294654e-07
			],
			"scale":[
				2.897120952606201,
				1,
				1
			]
		},
		{
			"mesh":6,
			"name":"door.007-col",
			"rotation":[
				0,
				-0.7071065902709961,
				0,
				0.7071069478988647
			],
			"scale":[
				2.897120952606201,
				1,
				1
			]
		}
	],
	"materials":[
		{
			"doubleSided":true,
			"name":"M_rock_wall_15",
			"normalTexture":{
				"index":0
			},
			"pbrMetallicRoughness":{
				"baseColorTexture":{
					"index":1
				},
				"metallicFactor":0,
				"metallicRoughnessTexture":{
					"index":2
				}
			}
		},
		{
			"doubleSided":true,
			"name":"M_ganges_river_pebbles",
			"normalTexture":{
				"index":3
			},
			"pbrMetallicRoughness":{
				"baseColorTexture":{
					"index":4
				},
				"metallicFactor":0,
				"metallicRoughnessTexture":{
					"index":5
				}
			}
		}
	],
	"meshes":[
		{
			"name":"Cube.014",
			"primitives":[
				{
					"attributes":{
						"POSITION":0,
						"NORMAL":1,
						"TEXCOORD_0":2
					},
					"indices":3,
					"material":0
				}
			]
		},
		{
			"name":"Cube.003",
			"primitives":[
				{
					"attributes":{
						"POSITION":4,
						"NORMAL":5,
						"TEXCOORD_0":6
					},
					"indices":7,
					"material":1
				}
			]
		},
		{
			"name":"Plane.001",
			"primitives":[
				{
					"attributes":{
						"POSITION":8,
						"NORMAL":9,
						"TEXCOORD_0":10
					},
					"indices":11
				}
			]
		},
		{
			"name":"Plane.002",
			"primitives":[
				{
					"attributes":{
						"POSITION":12,
						"NORMAL":13,
						"TEXCOORD_0":14
					},
					"indices":15
				}
			]
		},
		{
			"name":"Plane.003",
			"primitives":[
				{
					"attributes":{
						"POSITION":16,
						"NORMAL":17,
						"TEXCOORD_0":18
					},
					"indices":19
				}
			]
		},
		{
			"name":"Cube.002",
			"primitives":[
				{
					"attributes":{
						"POSITION":20,
						"NORMAL":21,
						"TEXCOORD_0":22
					},
					"indices":23
				}
			]
		},
		{
			"name":"Cube",
			"primitives":[
				{
					"attributes":{
						"POSITION":24,
						"NORMAL":25,
						"TEXCOORD_0":26
					},
					"indices":27,
					"material":0
				}
			]
		}
	],
	"textures":[
		{
			"sampler":0,
			"source":0
		},
		{
			"sampler":0,
			"source":1
		},
		{
			"sampler":0,
			"source":2
		},
		{
			"sampler":0,
			"source":3
		},
		{
			"sampler":0,
			"source":4
		},
		{
			"sampler":0,
			"source":5
		}
	],
	"images":[
		{
			"mimeType":"image/png",
			"name":"T_rock_wall_15_normal",
			"uri":"../texture/T_rock_wall_15_normal.png"
		},
		{
			"mimeType":"image/png",
			"name":"T_rock_wall_15_basecolor",
			"uri":"../texture/T_rock_wall_15_basecolor.png"
		},
		{
			"mimeType":"image/png",
			"name":"T_rock_wall_15_roughness",
			"uri":"../texture/T_rock_wall_15_roughness.png"
		},
		{
			"mimeType":"image/png",
			"name":"T_ganges_river_pebbles_normal",
			"uri":"../texture/T_ganges_river_pebbles_normal.png"
		},
		{
			"mimeType":"image/png",
			"name":"T_ganges_river_pebbles_basecolor",
			"uri":"../texture/T_ganges_river_pebbles_basecolor.png"
		},
		{
			"mimeType":"image/png",
			"name":"T_ganges_river_pebbles_roughness",
			"uri":"../texture/T_ganges_river_pebbles_roughness.png"
		}
	],
	"accessors":[
		{
			"bufferView":0,
			"componentType":5126,
			"count":21,
			"max":[
				20,
				3.406614065170288,
				0
			],
			"min":[
				-20,
				-3.5500214099884033,
				0
			],
			"type":"VEC3"
		},
		{
			"bufferView":1,
			"componentType":5126,
			"count":21,
			"type":"VEC3"
		},
		{
			"bufferView":2,
			"componentType":5126,
			"count":21,
			"type":"VEC2"
		},
		{
			"bufferView":3,
			"componentType":5123,
			"count":48,
			"type":"SCALAR"
		},
		{
			"bufferView":4,
			"componentType":5126,
			"count":28,
			"max":[
				25.000001907348633,
				-0.14340737462043762,
				25
			],
			"min":[
				-25,
				-0.14340737462043762,
				-25
			],
			"type":"VEC3"
		},
		{
			"bufferView":5,
			"componentType":5126,
			"count":28,
			"type":"VEC3"
		},
		{
			"bufferView":6,
			"componentType":5126,
			"count":28,
			"type":"VEC2"
		},
		{
			"bufferView":7,
			"componentType":5123,
			"count":78,
			"type":"SCALAR"
		},
		{
			"bufferView":8,
			"componentType":5126,
			"count":28,
			"max":[
				1.590539813041687,
				3.2059552669525146,
				1.4001743793487549
			],
			"min":[
				-1.590539813041687,
				0,
				-1.4001742601394653
			],
			"type":"VEC3"
		},
		{
			"bufferView":9,
			"componentType":5126,
			"count":28,
			"type":"VEC3"
		},
		{
			"bufferView":10,
			"componentType":5126,
			"count":28,
			"type":"VEC2"
		},
		{
			"bufferView":11,
			"componentType":5123,
			"count":54,
			"type":"SCALAR"
		},
		{
			"bufferView":12,
			"componentType":5126,
			"count":20,
			"max":[
				2.38702392578125,
				3.6457817554473877,
				3.6889724731445312
			],
			"min":[
				-2.38702392578125,
				0,
				-0.8865287899971008
			],
			"type":"VEC3"
		},
		{
			"bufferView":13,
			"componentType":5126,
			"count":20,
			"type":"VEC3"
		},
		{
			"bufferView":14,
			"componentType":5126,
			"count":20,
			"type":"VEC2"
		},
		{
			"bufferView":15,
			"componentType":5123,
			"count":30,
			"type":"SCALAR"
		},
		{
			"bufferView":16,
			"componentType":5126,
			"count":4,
			"max":[
				1.2645930051803589,
				3.6457817554473877,
				-0.8865287899971008
			],
			"min":[
				-1.2645930051803589,
				0,
				-0.8865287899971008
			],
			"type":"VEC3"
		},
		{
			"bufferView":17,
			"componentType":5126,
			"count":4,
			"type":"VEC3"
		},
		{
			"bufferView":18,
			"componentType":5126,
			"count":4,
			"type":"VEC2"
		},
		{
			"bufferView":19,
			"componentType":5123,
			"count":6,
			"type":"SCALAR"
		},
		{
			"bufferView":20,
			"componentType":5126,
			"count":64,
			"max":[
				1.8358694314956665,
				13.277284622192383,
				2.2037832736968994
			],
			"min":[
				-1.8358694314956665,
				-7.293825149536133,
				-1.4679557085037231
			],
			"type":"VEC3"
		},
		{
			"bufferView":21,
			"componentType":5126,
			"count":64,
			"type":"VEC3"
		},
		{
			"bufferView":22,
			"componentType":5126,
			"count":64,
			"type":"VEC2"
		},
		{
			"bufferView":23,
			"componentType":5123,
			"count":138,
			"type":"SCALAR"
		},
		{
			"bufferView":24,
			"componentType":5126,
			"count":24,
			"max":[
				0.8694995045661926,
				3.234145164489746,
				-20
			],
			"min":[
				-0.8694995045661926,
				-0.14340737462043762,
				-25
			],
			"type":"VEC3"
		},
		{
			"bufferView":25,
			"componentType":5126,
			"count":24,
			"type":"VEC3"
		},
		{
			"bufferView":26,
			"componentType":5126,
			"count":24,
			"type":"VEC2"
		},
		{
			"bufferView":27,
			"componentType":5123,
			"count":36,
			"type":"SCALAR"
		}
	],
	"bufferViews":[
		{
			"buffer":0,
			"byteLength":252,
			"byteOffset":0,
			"target":34962
		},
		{
			"buffer":0,
			"byteLength":252,
			"byteOffset":252,
			"target":34962
		},
		{
			"buffer":0,
			"byteLength":168,
			"byteOffset":504,
			"target":34962
		},
		{
			"buffer":0,
			"byteLength":96,
			"byteOffset":672,
			"target":34963
		},
		{
			"buffer":0,
			"byteLength":336,
			"byteOffset":768,
			"target":34962
		},
		{
			"buffer":0,
			"byteLength":336,
			"byteOffset":1104,
			"target":34962
		},
		{
			"buffer":0,
			"byteLength":224,
			"byteOffset":1440,
			"target":34962
		},
		{
			"buffer":0,
			"byteLength":156,
			"byteOffset":1664,
			"target":34963
		},
		{
			"buffer":0,
			"byteLength":336,
			"byteOffset":1820,
			"target":34962
		},
		{
			"buffer":0,
			"byteLength":336,
			"byteOffset":2156,
			"target":34962
		},
		{
			"buffer":0,
			"byteLength":224,
			"byteOffset":2492,
			"target":34962
		},
		{
			"buffer":0,
			"byteLength":108,
			"byteOffset":2716,
			"target":34963
		},
		{
			"buffer":0,
			"byteLength":240,
			"byteOffset":2824,
			"target":34962
		},
		{
			"buffer":0,
			"byteLength":240,
			"byteOffset":3064,
			"target":34962
		},
		{
			"buffer":0,
			"byteLength":160,
			"byteOffset":3304,
			"target":34962
		},
		{
			"buffer":0,
			"byteLength":60,
			"byteOffset":3464,
			"target":34963
		},
		{
			"buffer":0,
			"byteLength":48,
			"byteOffset":3524,
			"target":34962
		},
		{
			"buffer":0,
			"byteLength":48,
			"byteOffset":3572,
			"target":34962
		},
		{
			"buffer":0,
			"byteLength":32,
			"byteOffset":3620,
			"target":34962
		},
		{
			"buffer":0,
			"byteLength":12,
			"byteOffset":3652,
			"target":34963
		},
		{
			"buffer":0,
			"byteLength":768,
			"byteOffset":3664,
			"target":34962
		},
		{
			"buffer":0,
			"byteLength":768,
			"byteOffset":4432,
			"target":34962
		},
		{
			"buffer":0,
			"byteLength":512,
			"byteOffset":5200,
			"target":34962
		},
		{
			"buffer":0,
			"byteLength":276,
			"byteOffset":5712,
			"target":34963
		},
		{
			"buffer":0,
			"byteLength":288,
			"byteOffset":5988,
			"target":34962
		},
		{
			"buffer":0,
			"byteLength":288,
			"byteOffset":6276,
			"target":34962
		},
		{
			"buffer":0,
			"byteLength":192,
			"byteOffset":6564,
			"target":34962
		},
		{
			"buffer":0,
			"byteLength":72,
			"byteOffset":6756,
			"target":34963
		}
	],
	"samplers":[
		{
			"magFilter":9728,
			"minFilter":9984
		}
	],
	"buffers":[
		{
			"byteLength":6828,
			"uri":"lvl1.bin"
		}
	]
}
