{
	"asset":{
		"generator":"Khronos glTF Blender I/O v5.1.18",
		"version":"2.0"
	},
	"scene":0,
	"scenes":[
		{
			"name":"lvl3_mesh.002",
			"nodes":[
				0,
				1,
				2,
				3,
				4,
				5,
				6,
				7,
				8,
				9,
				10,
				11
			]
		}
	],
	"nodes":[
		{
			"mesh":0,
			"name":"walls.011-col",
			"rotation":[
				0,
				0.7071068286895752,
				0,
				0.7071068286895752
			],
			"translation":[
				-20,
				3.406614065170288,
				0
			]
		},
		{
			"mesh":1,
			"name":"walls.012-col",
			"translation":[
				0,
				3.406614065170288,
				-20
			]
		},
		{
			"mesh":2,
			"name":"walls.013-col",
			"rotation":[
				0,
				-0.7071068286895752,
				0,
				0.7071068286895752
			],
			"translation":[
				20,
				3.406614065170288,
				0
			]
		},
		{
			"mesh":3,
			"name":"walls.014-col",
			"rotation":[
				0,
				-1,
				0,
				1.6292068494294654e-07
			],
			"translation":[
				0,
				3.406614065170288,
				20
			]
		},
		{
			"mesh":4,
			"name":"ground.003",
			"rotation":[
				-1,
				0,
				0,
				1.6292068494294654e-07
			],
			"translation":[
				0,
				-0.04777282476425171,
				0
			]
		},
		{
			"name":"NurbsPath.007",
			"translation":[
				11.156477928161621,
				0.04662102088332176,
				1.0363540649414062
			]
		},
		{
			"mesh":5,
			"name":"ground_prop.003",
			"rotation":[
				0,
				0.7071067094802856,
				0,
				0.7071068286895752
			],
			"translation":[
				-0.2960183620452881,
				-0.1441401094198227,
				-0.3651001453399658
			]
		},
		{
			"mesh":6,
			"name":"ceiling.003-col"
		},
		{
			"mesh":7,
			"name":"krapnik.001",
			"rotation":[
				0,
				0.7071067094802856,
				0,
				0.7071068286895752
			],
			"translation":[
				-0.2960183620452881,
				8.111809730529785,
				-0.3651001453399658
			]
		},
		{
			"mesh":8,
			"name":"pillar.002-col",
			"translation":[
				-10.824501991271973,
				4.132321357727051,
				-12.988025665283203
			]
		},
		{
			"mesh":9,
			"name":"ground_coll-convcolonly"
		},
		{
			"mesh":10,
			"name":"door_closed.005",
			"scale":[
				2.131930112838745,
				2.131930112838745,
				2.131930112838745
			],
			"translation":[
				21.5993709564209,
				0.02338150143623352,
				0.879460334777832
			]
		}
	],
	"materials":[
		{
			"doubleSided":true,
			"name":"M_support_walls",
			"pbrMetallicRoughness":{
				"baseColorTexture":{
					"index":0
				},
				"metallicFactor":0
			}
		},
		{
			"doubleSided":true,
			"name":"M_rock_face_03",
			"normalTexture":{
				"index":1
			},
			"pbrMetallicRoughness":{
				"baseColorTexture":{
					"index":2
				},
				"metallicFactor":0,
				"metallicRoughnessTexture":{
					"index":3
				}
			}
		}
	],
	"meshes":[
		{
			"name":"walls.014-col",
			"primitives":[
				{
					"attributes":{
						"POSITION":0,
						"NORMAL":1,
						"TEXCOORD_0":2
					},
					"indices":3,
					"material":0
				},
				{
					"attributes":{
						"POSITION":4,
						"NORMAL":5,
						"TEXCOORD_0":6
					},
					"indices":7,
					"material":1
				}
			]
		},
		{
			"name":"walls.014-col",
			"primitives":[
				{
					"attributes":{
						"POSITION":8,
						"NORMAL":9,
						"TEXCOORD_0":10
					},
					"indices":3,
					"material":0
				},
				{
					"attributes":{
						"POSITION":11,
						"NORMAL":12,
						"TEXCOORD_0":13
					},
					"indices":7,
					"material":1
				}
			]
		},
		{
			"name":"walls.014-col",
			"primitives":[
				{
					"attributes":{
						"POSITION":14,
						"NORMAL":15,
						"TEXCOORD_0":16
					},
					"indices":3,
					"material":0
				},
				{
					"attributes":{
						"POSITION":17,
						"NORMAL":18,
						"TEXCOORD_0":19
					},
					"indices":7,
					"material":1
				}
			]
		},
		{
			"name":"walls.014-col",
			"primitives":[
				{
					"attributes":{
						"POSITION":20,
						"NORMAL":21,
						"TEXCOORD_0":22
					},
					"indices":3,
					"material":0
				},
				{
					"attributes":{
						"POSITION":23,
						"NORMAL":24,
						"TEXCOORD_0":25
					},
					"indices":7,
					"material":1
				}
			]
		},
		{
			"name":"ground.003",
			"primitives":[
				{
					"attributes":{
						"POSITION":26,
						"NORMAL":27,
						"TEXCOORD_0":28
					},
					"indices":29,
					"material":1
				}
			]
		},
		{
			"name":"ground_prop.003",
			"primitives":[
				{
					"attributes":{
						"POSITION":30,
						"NORMAL":31,
						"TEXCOORD_0":32
					},
					"indices":33,
					"material":1
				}
			]
		},
		{
			"name":"ceiling.003-col",
			"primitives":[
				{
					"attributes":{
						"POSITION":34,
						"NORMAL":35,
						"TEXCOORD_0":36
					},
					"indices":37,
					"material":1
				}
			]
		},
		{
			"name":"krapnik.001",
			"primitives":[
				{
					"attributes":{
						"POSITION":38,
						"NORMAL":39,
						"TEXCOORD_0":40
					},
					"indices":41,
					"material":1
				}
			]
		},
		{
			"name":"pillar.002-col",
			"primitives":[
				{
					"attributes":{
						"POSITION":42,
						"NORMAL":43,
						"TEXCOORD_0":44
					},
					"indices":45,
					"material":1
				}
			]
		},
		{
			"name":"ground_coll.003",
			"primitives":[
				{
					"attributes":{
						"POSITION":46,
						"NORMAL":47,
						"TEXCOORD_0":48
					},
					"indices":49
				}
			]
		},
		{
			"name":"door_closed.003",
			"primitives":[
				{
					"attributes":{
						"POSITION":50,
						"NORMAL":51,
						"TEXCOORD_0":52
					},
					"indices":53,
					"material":0
				}
			]
		}
	],
	"textures":[
		{
			"sampler":0,
			"source":0
		},
		{
			"sampler":0,
			"source":1
		},
		{
			"sampler":0,
			"source":2
		},
		{
			"sampler":0,
			"source":3
		}
	],
	"images":[
		{
			"mimeType":"image/png",
			"name":"support_walls",
			"uri":"../texture/support_walls.png"
		},
		{
			"mimeType":"image/png",
			"name":"T_rock_face_03_normal",
			"uri":"../texture/T_rock_face_03_normal.png"
		},
		{
			"mimeType":"image/png",
			"name":"T_rock_face_03_basecolor",
			"uri":"../texture/T_rock_face_03_basecolor.png"
		},
		{
			"mimeType":"image/png",
			"name":"T_rock_face_03_roughness",
			"uri":"../texture/T_rock_face_03_roughness.png"
		}
	],
	"accessors":[
		{
			"bufferView":0,
			"componentType":5126,
			"count":56,
			"max":[
				20,
				0.3471536636352539,
				1.6332823038101196
			],
			"min":[
				-20,
				-3.406614065170288,
				-0.5000038146972656
			],
			"type":"VEC3"
		},
		{
			"bufferView":1,
			"componentType":5126,
			"count":56,
			"type":"VEC3"
		},
		{
			"bufferView":2,
			"componentType":5126,
			"count":56,
			"type":"VEC2"
		},
		{
			"bufferView":3,
			"componentType":5123,
			"count":84,
			"type":"SCALAR"
		},
		{
			"bufferView":4,
			"componentType":5126,
			"count":34,
			"max":[
				2.5190422534942627,
				0.3471536636352539,
				1.6332836151123047
			],
			"min":[
				-2.5190422534942627,
				-0.971207857131958,
				-1.9073486328125e-06
			],
			"type":"VEC3"
		},
		{
			"bufferView":5,
			"componentType":5126,
			"count":34,
			"type":"VEC3"
		},
		{
			"bufferView":6,
			"componentType":5126,
			"count":34,
			"type":"VEC2"
		},
		{
			"bufferView":7,
			"componentType":5123,
			"count":42,
			"type":"SCALAR"
		},
		{
			"bufferView":8,
			"componentType":5126,
			"count":56,
			"max":[
				20,
				0.3471536636352539,
				1.6332823038101196
			],
			"min":[
				-20,
				-3.406614065170288,
				-0.5000038146972656
			],
			"type":"VEC3"
		},
		{
			"bufferView":9,
			"componentType":5126,
			"count":56,
			"type":"VEC3"
		},
		{
			"bufferView":10,
			"componentType":5126,
			"count":56,
			"type":"VEC2"
		},
		{
			"bufferView":11,
			"componentType":5126,
			"count":34,
			"max":[
				2.5190422534942627,
				0.3471536636352539,
				1.6332836151123047
			],
			"min":[
				-2.5190422534942627,
				-0.971207857131958,
				-1.9073486328125e-06
			],
			"type":"VEC3"
		},
		{
			"bufferView":12,
			"componentType":5126,
			"count":34,
			"type":"VEC3"
		},
		{
			"bufferView":13,
			"componentType":5126,
			"count":34,
			"type":"VEC2"
		},
		{
			"bufferView":14,
			"componentType":5126,
			"count":56,
			"max":[
				20,
				0.3471536636352539,
				1.6332823038101196
			],
			"min":[
				-20,
				-3.406614065170288,
				-0.5000038146972656
			],
			"type":"VEC3"
		},
		{
			"bufferView":15,
			"componentType":5126,
			"count":56,
			"type":"VEC3"
		},
		{
			"bufferView":16,
			"componentType":5126,
			"count":56,
			"type":"VEC2"
		},
		{
			"bufferView":17,
			"componentType":5126,
			"count":34,
			"max":[
				2.5190422534942627,
				0.3471536636352539,
				1.6332836151123047
			],
			"min":[
				-2.5190422534942627,
				-0.971207857131958,
				-1.9073486328125e-06
			],
			"type":"VEC3"
		},
		{
			"bufferView":18,
			"componentType":5126,
			"count":34,
			"type":"VEC3"
		},
		{
			"bufferView":19,
			"componentType":5126,
			"count":34,
			"type":"VEC2"
		},
		{
			"bufferView":20,
			"componentType":5126,
			"count":56,
			"max":[
				20,
				0.3471536636352539,
				1.6332823038101196
			],
			"min":[
				-20,
				-3.406614065170288,
				-0.5000038146972656
			],
			"type":"VEC3"
		},
		{
			"bufferView":21,
			"componentType":5126,
			"count":56,
			"type":"VEC3"
		},
		{
			"bufferView":22,
			"componentType":5126,
			"count":56,
			"type":"VEC2"
		},
		{
			"bufferView":23,
			"componentType":5126,
			"count":34,
			"max":[
				2.5190422534942627,
				0.3471536636352539,
				1.6332836151123047
			],
			"min":[
				-2.5190422534942627,
				-0.971207857131958,
				-1.9073486328125e-06
			],
			"type":"VEC3"
		},
		{
			"bufferView":24,
			"componentType":5126,
			"count":34,
			"type":"VEC3"
		},
		{
			"bufferView":25,
			"componentType":5126,
			"count":34,
			"type":"VEC2"
		},
		{
			"bufferView":26,
			"componentType":5126,
			"count":38180,
			"max":[
				20.500001907348633,
				0.03713398426771164,
				20.500003814697266
			],
			"min":[
				-20.500001907348633,
				-0.12490135431289673,
				-20.500003814697266
			],
			"type":"VEC3"
		},
		{
			"bufferView":27,
			"componentType":5126,
			"count":38180,
			"type":"VEC3"
		},
		{
			"bufferView":28,
			"componentType":5126,
			"count":38180,
			"type":"VEC2"
		},
		{
			"bufferView":29,
			"componentType":5123,
			"count":221184,
			"type":"SCALAR"
		},
		{
			"bufferView":30,
			"componentType":5126,
			"count":1344,
			"max":[
				17.1075439453125,
				1.1248588562011719,
				16.573583602905273
			],
			"min":[
				-20.3342342376709,
				-0.5991331934928894,
				-15.464507102966309
			],
			"type":"VEC3"
		},
		{
			"bufferView":31,
			"componentType":5126,
			"count":1344,
			"type":"VEC3"
		},
		{
			"bufferView":32,
			"componentType":5126,
			"count":1344,
			"type":"VEC2"
		},
		{
			"bufferView":33,
			"componentType":5123,
			"count":2016,
			"type":"SCALAR"
		},
		{
			"bufferView":34,
			"componentType":5126,
			"count":2862,
			"max":[
				19.82872200012207,
				10.097450256347656,
				19.829221725463867
			],
			"min":[
				-20.174306869506836,
				-2.3922009468078613,
				-21.25116729736328
			],
			"type":"VEC3"
		},
		{
			"bufferView":35,
			"componentType":5126,
			"count":2862,
			"type":"VEC3"
		},
		{
			"bufferView":36,
			"componentType":5126,
			"count":2862,
			"type":"VEC2"
		},
		{
			"bufferView":37,
			"componentType":5123,
			"count":13824,
			"type":"SCALAR"
		},
		{
			"bufferView":38,
			"componentType":5126,
			"count":1496,
			"max":[
				15.005204200744629,
				1.4834094047546387,
				15.649897575378418
			],
			"min":[
				-14.745537757873535,
				-4.360454559326172,
				-13.961315155029297
			],
			"type":"VEC3"
		},
		{
			"bufferView":39,
			"componentType":5126,
			"count":1496,
			"type":"VEC3"
		},
		{
			"bufferView":40,
			"componentType":5126,
			"count":1496,
			"type":"VEC2"
		},
		{
			"bufferView":41,
			"componentType":5123,
			"count":3936,
			"type":"SCALAR"
		},
		{
			"bufferView":42,
			"componentType":5126,
			"count":2618,
			"max":[
				27.16376495361328,
				9.165919303894043,
				29.880624771118164
			],
			"min":[
				-6.333146095275879,
				-9.764378547668457,
				-2.6910877227783203
			],
			"type":"VEC3"
		},
		{
			"bufferView":43,
			"componentType":5126,
			"count":2618,
			"type":"VEC3"
		},
		{
			"bufferView":44,
			"componentType":5126,
			"count":2618,
			"type":"VEC2"
		},
		{
			"bufferView":45,
			"componentType":5123,
			"count":8064,
			"type":"SCALAR"
		},
		{
			"bufferView":46,
			"componentType":5126,
			"count":4,
			"max":[
				20.5,
				0,
				20.5
			],
			"min":[
				-20.5,
				0,
				-20.5
			],
			"type":"VEC3"
		},
		{
			"bufferView":47,
			"componentType":5126,
			"count":4,
			"type":"VEC3"
		},
		{
			"bufferView":48,
			"componentType":5126,
			"count":4,
			"type":"VEC2"
		},
		{
			"bufferView":49,
			"componentType":5123,
			"count":6,
			"type":"SCALAR"
		},
		{
			"bufferView":50,
			"componentType":5126,
			"count":35082,
			"max":[
				-3.2972793579101562,
				0.04481480270624161,
				4.4243083000183105
			],
			"min":[
				-15.679048538208008,
				-0.0448148213326931,
				-8.680915832519531
			],
			"type":"VEC3"
		},
		{
			"bufferView":51,
			"componentType":5126,
			"count":35082,
			"type":"VEC3"
		},
		{
			"bufferView":52,
			"componentType":5126,
			"count":35082,
			"type":"VEC2"
		},
		{
			"bufferView":53,
			"componentType":5123,
			"count":108480,
			"type":"SCALAR"
		}
	],
	"bufferViews":[
		{
			"buffer":0,
			"byteLength":672,
			"byteOffset":0,
			"target":34962
		},
		{
			"buffer":0,
			"byteLength":672,
			"byteOffset":672,
			"target":34962
		},
		{
			"buffer":0,
			"byteLength":448,
			"byteOffset":1344,
			"target":34962
		},
		{
			"buffer":0,
			"byteLength":168,
			"byteOffset":1792,
			"target":34963
		},
		{
			"buffer":0,
			"byteLength":408,
			"byteOffset":1960,
			"target":34962
		},
		{
			"buffer":0,
			"byteLength":408,
			"byteOffset":2368,
			"target":34962
		},
		{
			"buffer":0,
			"byteLength":272,
			"byteOffset":2776,
			"target":34962
		},
		{
			"buffer":0,
			"byteLength":84,
			"byteOffset":3048,
			"target":34963
		},
		{
			"buffer":0,
			"byteLength":672,
			"byteOffset":3132,
			"target":34962
		},
		{
			"buffer":0,
			"byteLength":672,
			"byteOffset":3804,
			"target":34962
		},
		{
			"buffer":0,
			"byteLength":448,
			"byteOffset":4476,
			"target":34962
		},
		{
			"buffer":0,
			"byteLength":408,
			"byteOffset":4924,
			"target":34962
		},
		{
			"buffer":0,
			"byteLength":408,
			"byteOffset":5332,
			"target":34962
		},
		{
			"buffer":0,
			"byteLength":272,
			"byteOffset":5740,
			"target":34962
		},
		{
			"buffer":0,
			"byteLength":672,
			"byteOffset":6012,
			"target":34962
		},
		{
			"buffer":0,
			"byteLength":672,
			"byteOffset":6684,
			"target":34962
		},
		{
			"buffer":0,
			"byteLength":448,
			"byteOffset":7356,
			"target":34962
		},
		{
			"buffer":0,
			"byteLength":408,
			"byteOffset":7804,
			"target":34962
		},
		{
			"buffer":0,
			"byteLength":408,
			"byteOffset":8212,
			"target":34962
		},
		{
			"buffer":0,
			"byteLength":272,
			"byteOffset":8620,
			"target":34962
		},
		{
			"buffer":0,
			"byteLength":672,
			"byteOffset":8892,
			"target":34962
		},
		{
			"buffer":0,
			"byteLength":672,
			"byteOffset":9564,
			"target":34962
		},
		{
			"buffer":0,
			"byteLength":448,
			"byteOffset":10236,
			"target":34962
		},
		{
			"buffer":0,
			"byteLength":408,
			"byteOffset":10684,
			"target":34962
		},
		{
			"buffer":0,
			"byteLength":408,
			"byteOffset":11092,
			"target":34962
		},
		{
			"buffer":0,
			"byteLength":272,
			"byteOffset":11500,
			"target":34962
		},
		{
			"buffer":0,
			"byteLength":458160,
			"byteOffset":11772,
			"target":34962
		},
		{
			"buffer":0,
			"byteLength":458160,
			"byteOffset":469932,
			"target":34962
		},
		{
			"buffer":0,
			"byteLength":305440,
			"byteOffset":928092,
			"target":34962
		},
		{
			"buffer":0,
			"byteLength":442368,
			"byteOffset":1233532,
			"target":34963
		},
		{
			"buffer":0,
			"byteLength":16128,
			"byteOffset":1675900,
			"target":34962
		},
		{
			"buffer":0,
			"byteLength":16128,
			"byteOffset":1692028,
			"target":34962
		},
		{
			"buffer":0,
			"byteLength":10752,
			"byteOffset":1708156,
			"target":34962
		},
		{
			"buffer":0,
			"byteLength":4032,
			"byteOffset":1718908,
			"target":34963
		},
		{
			"buffer":0,
			"byteLength":34344,
			"byteOffset":1722940,
			"target":34962
		},
		{
			"buffer":0,
			"byteLength":34344,
			"byteOffset":1757284,
			"target":34962
		},
		{
			"buffer":0,
			"byteLength":22896,
			"byteOffset":1791628,
			"target":34962
		},
		{
			"buffer":0,
			"byteLength":27648,
			"byteOffset":1814524,
			"target":34963
		},
		{
			"buffer":0,
			"byteLength":17952,
			"byteOffset":1842172,
			"target":34962
		},
		{
			"buffer":0,
			"byteLength":17952,
			"byteOffset":1860124,
			"target":34962
		},
		{
			"buffer":0,
			"byteLength":11968,
			"byteOffset":1878076,
			"target":34962
		},
		{
			"buffer":0,
			"byteLength":7872,
			"byteOffset":1890044,
			"target":34963
		},
		{
			"buffer":0,
			"byteLength":31416,
			"byteOffset":1897916,
			"target":34962
		},
		{
			"buffer":0,
			"byteLength":31416,
			"byteOffset":1929332,
			"target":34962
		},
		{
			"buffer":0,
			"byteLength":20944,
			"byteOffset":1960748,
			"target":34962
		},
		{
			"buffer":0,
			"byteLength":16128,
			"byteOffset":1981692,
			"target":34963
		},
		{
			"buffer":0,
			"byteLength":48,
			"byteOffset":1997820,
			"target":34962
		},
		{
			"buffer":0,
			"byteLength":48,
			"byteOffset":1997868,
			"target":34962
		},
		{
			"buffer":0,
			"byteLength":32,
			"byteOffset":1997916,
			"target":34962
		},
		{
			"buffer":0,
			"byteLength":12,
			"byteOffset":1997948,
			"target":34963
		},
		{
			"buffer":0,
			"byteLength":420984,
			"byteOffset":1997960,
			"target":34962
		},
		{
			"buffer":0,
			"byteLength":420984,
			"byteOffset":2418944,
			"target":34962
		},
		{
			"buffer":0,
			"byteLength":280656,
			"byteOffset":2839928,
			"target":34962
		},
		{
			"buffer":0,
			"byteLength":216960,
			"byteOffset":3120584,
			"target":34963
		}
	],
	"samplers":[
		{
			"magFilter":9728,
			"minFilter":9984
		}
	],
	"buffers":[
		{
			"byteLength":3337544,
			"uri":"lvl3.bin"
		}
	]
}
