{
	"asset":{
		"generator":"Khronos glTF Blender I/O v5.1.18",
		"version":"2.0"
	},
	"scene":0,
	"scenes":[
		{
			"name":"uhlopal",
			"nodes":[
				0
			]
		}
	],
	"nodes":[
		{
			"mesh":0,
			"name":"Cube.006",
			"rotation":[
				0.7936648726463318,
				-0.1467951387166977,
				0.5709933042526245,
				0.15004636347293854
			],
			"scale":[
				-0.016170071437954903,
				-0.016170071437954903,
				-0.016170071437954903
			],
			"translation":[
				0.010345982387661934,
				0.16311055421829224,
				0.6997278332710266
			]
		}
	],
	"materials":[
		{
			"doubleSided":true,
			"name":"M_black_painted_planks",
			"normalTexture":{
				"index":0
			},
			"pbrMetallicRoughness":{
				"baseColorTexture":{
					"index":1
				},
				"metallicFactor":0,
				"metallicRoughnessTexture":{
					"index":2
				}
			}
		},
		{
			"doubleSided":true,
			"name":"M_metal_plate_02",
			"normalTexture":{
				"index":3
			},
			"pbrMetallicRoughness":{
				"baseColorTexture":{
					"index":4
				},
				"metallicFactor":0,
				"metallicRoughnessTexture":{
					"index":5
				}
			}
		},
		{
			"doubleSided":true,
			"name":"M_wood_table_worn",
			"normalTexture":{
				"index":6
			},
			"pbrMetallicRoughness":{
				"baseColorTexture":{
					"index":7
				},
				"metallicFactor":0,
				"metallicRoughnessTexture":{
					"index":8
				}
			}
		},
		{
			"doubleSided":true,
			"name":"M_hangar_concrete_floor",
			"normalTexture":{
				"index":9
			},
			"pbrMetallicRoughness":{
				"baseColorTexture":{
					"index":10
				},
				"metallicFactor":0,
				"metallicRoughnessTexture":{
					"index":11
				}
			}
		}
	],
	"meshes":[
		{
			"name":"Cube.004",
			"primitives":[
				{
					"attributes":{
						"POSITION":0,
						"NORMAL":1,
						"TEXCOORD_0":2
					},
					"indices":3,
					"material":0
				},
				{
					"attributes":{
						"POSITION":4,
						"NORMAL":5,
						"TEXCOORD_0":6
					},
					"indices":7,
					"material":1
				},
				{
					"attributes":{
						"POSITION":8,
						"NORMAL":9,
						"TEXCOORD_0":10
					},
					"indices":11,
					"material":2
				},
				{
					"attributes":{
						"POSITION":12,
						"NORMAL":13,
						"TEXCOORD_0":14
					},
					"indices":15,
					"material":3
				}
			]
		}
	],
	"textures":[
		{
			"sampler":0,
			"source":0
		},
		{
			"sampler":0,
			"source":1
		},
		{
			"sampler":0,
			"source":2
		},
		{
			"sampler":0,
			"source":3
		},
		{
			"sampler":0,
			"source":4
		},
		{
			"sampler":0,
			"source":5
		},
		{
			"sampler":0,
			"source":6
		},
		{
			"sampler":0,
			"source":7
		},
		{
			"sampler":0,
			"source":8
		},
		{
			"sampler":0,
			"source":9
		},
		{
			"sampler":0,
			"source":10
		},
		{
			"sampler":0,
			"source":11
		}
	],
	"images":[
		{
			"mimeType":"image/png",
			"name":"T_black_painted_planks_normal",
			"uri":"T_black_painted_planks_normal.png"
		},
		{
			"mimeType":"image/png",
			"name":"T_black_painted_planks_basecolor",
			"uri":"T_black_painted_planks_basecolor.png"
		},
		{
			"mimeType":"image/png",
			"name":"T_black_painted_planks_roughness",
			"uri":"T_black_painted_planks_roughness.png"
		},
		{
			"mimeType":"image/png",
			"name":"T_metal_plate_02_normal",
			"uri":"T_metal_plate_02_normal.png"
		},
		{
			"mimeType":"image/png",
			"name":"T_metal_plate_02_basecolor",
			"uri":"T_metal_plate_02_basecolor.png"
		},
		{
			"mimeType":"image/png",
			"name":"T_metal_plate_02_roughness",
			"uri":"T_metal_plate_02_roughness.png"
		},
		{
			"mimeType":"image/png",
			"name":"T_wood_table_worn_normal",
			"uri":"T_wood_table_worn_normal.png"
		},
		{
			"mimeType":"image/png",
			"name":"T_wood_table_worn_basecolor",
			"uri":"T_wood_table_worn_basecolor.png"
		},
		{
			"mimeType":"image/png",
			"name":"T_wood_table_worn_roughness",
			"uri":"T_wood_table_worn_roughness.png"
		},
		{
			"mimeType":"image/png",
			"name":"T_hangar_concrete_floor_normal",
			"uri":"T_hangar_concrete_floor_normal.png"
		},
		{
			"mimeType":"image/png",
			"name":"T_hangar_concrete_floor_basecolor",
			"uri":"T_hangar_concrete_floor_basecolor.png"
		},
		{
			"mimeType":"image/png",
			"name":"T_hangar_concrete_floor_roughness",
			"uri":"T_hangar_concrete_floor_roughness.png"
		}
	],
	"accessors":[
		{
			"bufferView":0,
			"componentType":5126,
			"count":368,
			"max":[
				5.1572113037109375,
				2.0995395183563232,
				2.3914875984191895
			],
			"min":[
				-1.2617051601409912,
				-1.8351367712020874,
				-3.139763832092285
			],
			"type":"VEC3"
		},
		{
			"bufferView":1,
			"componentType":5126,
			"count":368,
			"type":"VEC3"
		},
		{
			"bufferView":2,
			"componentType":5126,
			"count":368,
			"type":"VEC2"
		},
		{
			"bufferView":3,
			"componentType":5123,
			"count":552,
			"type":"SCALAR"
		},
		{
			"bufferView":4,
			"componentType":5126,
			"count":1940,
			"max":[
				9.068992614746094,
				2.8482861518859863,
				7.106793403625488
			],
			"min":[
				-12.613714218139648,
				-8.000762939453125,
				-5.108933925628662
			],
			"type":"VEC3"
		},
		{
			"bufferView":5,
			"componentType":5126,
			"count":1940,
			"type":"VEC3"
		},
		{
			"bufferView":6,
			"componentType":5126,
			"count":1940,
			"type":"VEC2"
		},
		{
			"bufferView":7,
			"componentType":5123,
			"count":3354,
			"type":"SCALAR"
		},
		{
			"bufferView":8,
			"componentType":5126,
			"count":236,
			"max":[
				14.01883602142334,
				0.010521173477172852,
				-0.0038144588470458984
			],
			"min":[
				4.7670416831970215,
				-12.266014099121094,
				-10.056455612182617
			],
			"type":"VEC3"
		},
		{
			"bufferView":9,
			"componentType":5126,
			"count":236,
			"type":"VEC3"
		},
		{
			"bufferView":10,
			"componentType":5126,
			"count":236,
			"type":"VEC2"
		},
		{
			"bufferView":11,
			"componentType":5123,
			"count":393,
			"type":"SCALAR"
		},
		{
			"bufferView":12,
			"componentType":5126,
			"count":291,
			"max":[
				7.208391189575195,
				0.8641595840454102,
				3.3899927139282227
			],
			"min":[
				-2.9918413162231445,
				-6.757178783416748,
				-5.879021167755127
			],
			"type":"VEC3"
		},
		{
			"bufferView":13,
			"componentType":5126,
			"count":291,
			"type":"VEC3"
		},
		{
			"bufferView":14,
			"componentType":5126,
			"count":291,
			"type":"VEC2"
		},
		{
			"bufferView":15,
			"componentType":5123,
			"count":537,
			"type":"SCALAR"
		}
	],
	"bufferViews":[
		{
			"buffer":0,
			"byteLength":4416,
			"byteOffset":0,
			"target":34962
		},
		{
			"buffer":0,
			"byteLength":4416,
			"byteOffset":4416,
			"target":34962
		},
		{
			"buffer":0,
			"byteLength":2944,
			"byteOffset":8832,
			"target":34962
		},
		{
			"buffer":0,
			"byteLength":1104,
			"byteOffset":11776,
			"target":34963
		},
		{
			"buffer":0,
			"byteLength":23280,
			"byteOffset":12880,
			"target":34962
		},
		{
			"buffer":0,
			"byteLength":23280,
			"byteOffset":36160,
			"target":34962
		},
		{
			"buffer":0,
			"byteLength":15520,
			"byteOffset":59440,
			"target":34962
		},
		{
			"buffer":0,
			"byteLength":6708,
			"byteOffset":74960,
			"target":34963
		},
		{
			"buffer":0,
			"byteLength":2832,
			"byteOffset":81668,
			"target":34962
		},
		{
			"buffer":0,
			"byteLength":2832,
			"byteOffset":84500,
			"target":34962
		},
		{
			"buffer":0,
			"byteLength":1888,
			"byteOffset":87332,
			"target":34962
		},
		{
			"buffer":0,
			"byteLength":786,
			"byteOffset":89220,
			"target":34963
		},
		{
			"buffer":0,
			"byteLength":3492,
			"byteOffset":90008,
			"target":34962
		},
		{
			"buffer":0,
			"byteLength":3492,
			"byteOffset":93500,
			"target":34962
		},
		{
			"buffer":0,
			"byteLength":2328,
			"byteOffset":96992,
			"target":34962
		},
		{
			"buffer":0,
			"byteLength":1074,
			"byteOffset":99320,
			"target":34963
		}
	],
	"samplers":[
		{
			"magFilter":9728,
			"minFilter":9984
		}
	],
	"buffers":[
		{
			"byteLength":100396,
			"uri":"Handcannon.bin"
		}
	]
}
