{
	"asset":{
		"generator":"Khronos glTF Blender I/O v5.1.18",
		"version":"2.0"
	},
	"scene":0,
	"scenes":[
		{
			"name":"lvl5_mesh",
			"nodes":[
				0,
				1,
				2,
				3,
				4,
				5,
				6,
				7,
				8,
				9,
				10,
				11,
				12,
				13
			]
		}
	],
	"nodes":[
		{
			"mesh":0,
			"name":"walls.019-col",
			"rotation":[
				0,
				0.7071068286895752,
				0,
				0.7071068286895752
			],
			"translation":[
				-20,
				3.406614065170288,
				0
			]
		},
		{
			"mesh":1,
			"name":"walls.001-col.001",
			"translation":[
				0,
				3.406614065170288,
				-20
			]
		},
		{
			"mesh":2,
			"name":"walls.020-col",
			"rotation":[
				0,
				-0.7071068286895752,
				0,
				0.7071068286895752
			],
			"translation":[
				20,
				3.406614065170288,
				0
			]
		},
		{
			"mesh":3,
			"name":"walls.021-col",
			"rotation":[
				0,
				-1,
				0,
				1.6292068494294654e-07
			],
			"translation":[
				0,
				3.406614065170288,
				20
			]
		},
		{
			"mesh":4,
			"name":"ground.005",
			"rotation":[
				-1,
				0,
				0,
				1.6292068494294654e-07
			],
			"translation":[
				0,
				-0.04777282476425171,
				0
			]
		},
		{
			"name":"NurbsPath.008",
			"translation":[
				11.156477928161621,
				0.04662102088332176,
				-1.9807968139648438
			]
		},
		{
			"name":"NurbsPath.009",
			"translation":[
				11.156477928161621,
				0.04662102088332176,
				1.0363540649414062
			]
		},
		{
			"mesh":5,
			"name":"ground_prop.005",
			"rotation":[
				0,
				0.7071067094802856,
				0,
				0.7071068286895752
			],
			"translation":[
				-0.2960183620452881,
				-0.1441401094198227,
				-0.3651001453399658
			]
		},
		{
			"mesh":6,
			"name":"ceiling-col.001"
		},
		{
			"mesh":7,
			"name":"pillar.010",
			"translation":[
				-10.824501991271973,
				4.132321357727051,
				-12.988025665283203
			]
		},
		{
			"name":"pillar.011",
			"translation":[
				40.75959777832031,
				2.647106885910034,
				1.89788019657135
			]
		},
		{
			"mesh":8,
			"name":"ground_coll-convcolonly.001"
		},
		{
			"mesh":9,
			"name":"door_closed.007",
			"scale":[
				2.131930112838745,
				2.131930112838745,
				2.131930112838745
			],
			"translation":[
				17.548797607421875,
				0.02338150143623352,
				-2.137690544128418
			]
		},
		{
			"mesh":10,
			"name":"door_closed.008",
			"scale":[
				2.131930112838745,
				2.131930112838745,
				2.131930112838745
			],
			"translation":[
				28.702838897705078,
				0.02338150143623352,
				0.879460334777832
			]
		}
	],
	"materials":[
		{
			"doubleSided":true,
			"name":"M_support_walls",
			"pbrMetallicRoughness":{
				"baseColorTexture":{
					"index":0
				},
				"metallicFactor":0
			}
		},
		{
			"doubleSided":true,
			"name":"M_rock_face_03",
			"normalTexture":{
				"index":1
			},
			"pbrMetallicRoughness":{
				"baseColorTexture":{
					"index":2
				},
				"metallicFactor":0,
				"metallicRoughnessTexture":{
					"index":3
				}
			}
		}
	],
	"meshes":[
		{
			"name":"walls.021-col",
			"primitives":[
				{
					"attributes":{
						"POSITION":0,
						"NORMAL":1,
						"TEXCOORD_0":2
					},
					"indices":3,
					"material":0
				},
				{
					"attributes":{
						"POSITION":4,
						"NORMAL":5,
						"TEXCOORD_0":6
					},
					"indices":7,
					"material":1
				}
			]
		},
		{
			"name":"walls.021-col",
			"primitives":[
				{
					"attributes":{
						"POSITION":8,
						"NORMAL":9,
						"TEXCOORD_0":10
					},
					"indices":3,
					"material":0
				},
				{
					"attributes":{
						"POSITION":11,
						"NORMAL":12,
						"TEXCOORD_0":13
					},
					"indices":7,
					"material":1
				}
			]
		},
		{
			"name":"walls.021-col",
			"primitives":[
				{
					"attributes":{
						"POSITION":14,
						"NORMAL":15,
						"TEXCOORD_0":16
					},
					"indices":3,
					"material":0
				},
				{
					"attributes":{
						"POSITION":17,
						"NORMAL":18,
						"TEXCOORD_0":19
					},
					"indices":7,
					"material":1
				}
			]
		},
		{
			"name":"walls.021-col",
			"primitives":[
				{
					"attributes":{
						"POSITION":20,
						"NORMAL":21,
						"TEXCOORD_0":22
					},
					"indices":3,
					"material":0
				},
				{
					"attributes":{
						"POSITION":23,
						"NORMAL":24,
						"TEXCOORD_0":25
					},
					"indices":7,
					"material":1
				}
			]
		},
		{
			"name":"ground.005",
			"primitives":[
				{
					"attributes":{
						"POSITION":26,
						"NORMAL":27,
						"TEXCOORD_0":28
					},
					"indices":29,
					"material":1
				}
			]
		},
		{
			"name":"ground_prop.005",
			"primitives":[
				{
					"attributes":{
						"POSITION":30,
						"NORMAL":31,
						"TEXCOORD_0":32
					},
					"indices":33,
					"material":1
				}
			]
		},
		{
			"name":"ceiling-col.001",
			"primitives":[
				{
					"attributes":{
						"POSITION":34,
						"NORMAL":35,
						"TEXCOORD_0":36
					},
					"indices":37,
					"material":1
				}
			]
		},
		{
			"name":"pillar.009",
			"primitives":[
				{
					"attributes":{
						"POSITION":38,
						"NORMAL":39,
						"TEXCOORD_0":40
					},
					"indices":41,
					"material":1
				}
			]
		},
		{
			"name":"ground_coll-colonly.001",
			"primitives":[
				{
					"attributes":{
						"POSITION":42,
						"NORMAL":43,
						"TEXCOORD_0":44
					},
					"indices":45
				}
			]
		},
		{
			"name":"door_closed.005",
			"primitives":[
				{
					"attributes":{
						"POSITION":46,
						"NORMAL":47,
						"TEXCOORD_0":48
					},
					"indices":49,
					"material":0
				}
			]
		},
		{
			"name":"door_closed.005",
			"primitives":[
				{
					"attributes":{
						"POSITION":50,
						"NORMAL":51,
						"TEXCOORD_0":52
					},
					"indices":53,
					"material":0
				}
			]
		}
	],
	"textures":[
		{
			"sampler":0,
			"source":0
		},
		{
			"sampler":0,
			"source":1
		},
		{
			"sampler":0,
			"source":2
		},
		{
			"sampler":0,
			"source":3
		}
	],
	"images":[
		{
			"mimeType":"image/png",
			"name":"support_walls",
			"uri":"../texture/support_walls.png"
		},
		{
			"mimeType":"image/png",
			"name":"T_rock_face_03_normal",
			"uri":"../texture/T_rock_face_03_normal.png"
		},
		{
			"mimeType":"image/png",
			"name":"T_rock_face_03_basecolor",
			"uri":"../texture/T_rock_face_03_basecolor.png"
		},
		{
			"mimeType":"image/png",
			"name":"T_rock_face_03_roughness",
			"uri":"../texture/T_rock_face_03_roughness.png"
		}
	],
	"accessors":[
		{
			"bufferView":0,
			"componentType":5126,
			"count":56,
			"max":[
				20,
				0.3471536636352539,
				1.6332823038101196
			],
			"min":[
				-20,
				-3.406614065170288,
				-0.5000038146972656
			],
			"type":"VEC3"
		},
		{
			"bufferView":1,
			"componentType":5126,
			"count":56,
			"type":"VEC3"
		},
		{
			"bufferView":2,
			"componentType":5126,
			"count":56,
			"type":"VEC2"
		},
		{
			"bufferView":3,
			"componentType":5123,
			"count":84,
			"type":"SCALAR"
		},
		{
			"bufferView":4,
			"componentType":5126,
			"count":34,
			"max":[
				2.5190422534942627,
				0.3471536636352539,
				1.6332836151123047
			],
			"min":[
				-2.5190422534942627,
				-0.971207857131958,
				-1.9073486328125e-06
			],
			"type":"VEC3"
		},
		{
			"bufferView":5,
			"componentType":5126,
			"count":34,
			"type":"VEC3"
		},
		{
			"bufferView":6,
			"componentType":5126,
			"count":34,
			"type":"VEC2"
		},
		{
			"bufferView":7,
			"componentType":5123,
			"count":42,
			"type":"SCALAR"
		},
		{
			"bufferView":8,
			"componentType":5126,
			"count":56,
			"max":[
				20,
				0.3471536636352539,
				1.6332823038101196
			],
			"min":[
				-20,
				-3.406614065170288,
				-0.5000038146972656
			],
			"type":"VEC3"
		},
		{
			"bufferView":9,
			"componentType":5126,
			"count":56,
			"type":"VEC3"
		},
		{
			"bufferView":10,
			"componentType":5126,
			"count":56,
			"type":"VEC2"
		},
		{
			"bufferView":11,
			"componentType":5126,
			"count":34,
			"max":[
				2.5190422534942627,
				0.3471536636352539,
				1.6332836151123047
			],
			"min":[
				-2.5190422534942627,
				-0.971207857131958,
				-1.9073486328125e-06
			],
			"type":"VEC3"
		},
		{
			"bufferView":12,
			"componentType":5126,
			"count":34,
			"type":"VEC3"
		},
		{
			"bufferView":13,
			"componentType":5126,
			"count":34,
			"type":"VEC2"
		},
		{
			"bufferView":14,
			"componentType":5126,
			"count":56,
			"max":[
				20,
				0.3471536636352539,
				1.6332823038101196
			],
			"min":[
				-20,
				-3.406614065170288,
				-0.5000038146972656
			],
			"type":"VEC3"
		},
		{
			"bufferView":15,
			"componentType":5126,
			"count":56,
			"type":"VEC3"
		},
		{
			"bufferView":16,
			"componentType":5126,
			"count":56,
			"type":"VEC2"
		},
		{
			"bufferView":17,
			"componentType":5126,
			"count":34,
			"max":[
				2.5190422534942627,
				0.3471536636352539,
				1.6332836151123047
			],
			"min":[
				-2.5190422534942627,
				-0.971207857131958,
				-1.9073486328125e-06
			],
			"type":"VEC3"
		},
		{
			"bufferView":18,
			"componentType":5126,
			"count":34,
			"type":"VEC3"
		},
		{
			"bufferView":19,
			"componentType":5126,
			"count":34,
			"type":"VEC2"
		},
		{
			"bufferView":20,
			"componentType":5126,
			"count":56,
			"max":[
				20,
				0.3471536636352539,
				1.6332823038101196
			],
			"min":[
				-20,
				-3.406614065170288,
				-0.5000038146972656
			],
			"type":"VEC3"
		},
		{
			"bufferView":21,
			"componentType":5126,
			"count":56,
			"type":"VEC3"
		},
		{
			"bufferView":22,
			"componentType":5126,
			"count":56,
			"type":"VEC2"
		},
		{
			"bufferView":23,
			"componentType":5126,
			"count":34,
			"max":[
				2.5190422534942627,
				0.3471536636352539,
				1.6332836151123047
			],
			"min":[
				-2.5190422534942627,
				-0.971207857131958,
				-1.9073486328125e-06
			],
			"type":"VEC3"
		},
		{
			"bufferView":24,
			"componentType":5126,
			"count":34,
			"type":"VEC3"
		},
		{
			"bufferView":25,
			"componentType":5126,
			"count":34,
			"type":"VEC2"
		},
		{
			"bufferView":26,
			"componentType":5126,
			"count":186322,
			"max":[
				22.855304718017578,
				15.273096084594727,
				20.5000057220459
			],
			"min":[
				-20.500003814697266,
				-0.12490133941173553,
				-20.5000057220459
			],
			"type":"VEC3"
		},
		{
			"bufferView":27,
			"componentType":5126,
			"count":186322,
			"type":"VEC3"
		},
		{
			"bufferView":28,
			"componentType":5126,
			"count":186322,
			"type":"VEC2"
		},
		{
			"bufferView":29,
			"componentType":5125,
			"count":279552,
			"type":"SCALAR"
		},
		{
			"bufferView":30,
			"componentType":5126,
			"count":1176,
			"max":[
				17.1075439453125,
				1.1980537176132202,
				16.573583602905273
			],
			"min":[
				-20.3342342376709,
				-0.2625533938407898,
				-15.998017311096191
			],
			"type":"VEC3"
		},
		{
			"bufferView":31,
			"componentType":5126,
			"count":1176,
			"type":"VEC3"
		},
		{
			"bufferView":32,
			"componentType":5126,
			"count":1176,
			"type":"VEC2"
		},
		{
			"bufferView":33,
			"componentType":5123,
			"count":1764,
			"type":"SCALAR"
		},
		{
			"bufferView":34,
			"componentType":5126,
			"count":4310,
			"max":[
				19.82872200012207,
				19.211416244506836,
				19.829221725463867
			],
			"min":[
				-19.82898712158203,
				3.475447416305542,
				-19.828493118286133
			],
			"type":"VEC3"
		},
		{
			"bufferView":35,
			"componentType":5126,
			"count":4310,
			"type":"VEC3"
		},
		{
			"bufferView":36,
			"componentType":5126,
			"count":4310,
			"type":"VEC2"
		},
		{
			"bufferView":37,
			"componentType":5123,
			"count":20736,
			"type":"SCALAR"
		},
		{
			"bufferView":38,
			"componentType":5126,
			"count":448,
			"max":[
				20.413230895996094,
				3.742097854614258,
				1.463667869567871
			],
			"min":[
				16.858810424804688,
				-7.530536651611328,
				-2.6910877227783203
			],
			"type":"VEC3"
		},
		{
			"bufferView":39,
			"componentType":5126,
			"count":448,
			"type":"VEC3"
		},
		{
			"bufferView":40,
			"componentType":5126,
			"count":448,
			"type":"VEC2"
		},
		{
			"bufferView":41,
			"componentType":5123,
			"count":672,
			"type":"SCALAR"
		},
		{
			"bufferView":42,
			"componentType":5126,
			"count":4,
			"max":[
				20.5,
				0,
				20.5
			],
			"min":[
				-20.5,
				0,
				-20.5
			],
			"type":"VEC3"
		},
		{
			"bufferView":43,
			"componentType":5126,
			"count":4,
			"type":"VEC3"
		},
		{
			"bufferView":44,
			"componentType":5126,
			"count":4,
			"type":"VEC2"
		},
		{
			"bufferView":45,
			"componentType":5123,
			"count":6,
			"type":"SCALAR"
		},
		{
			"bufferView":46,
			"componentType":5126,
			"count":15016,
			"max":[
				-2.4943323135375977,
				0.04566023498773575,
				0.8182623386383057
			],
			"min":[
				-8.426748275756836,
				-0.10972169786691666,
				-7.648264408111572
			],
			"type":"VEC3"
		},
		{
			"bufferView":47,
			"componentType":5126,
			"count":15016,
			"type":"VEC3"
		},
		{
			"bufferView":48,
			"componentType":5126,
			"count":15016,
			"type":"VEC2"
		},
		{
			"bufferView":49,
			"componentType":5123,
			"count":43392,
			"type":"SCALAR"
		},
		{
			"bufferView":50,
			"componentType":5126,
			"count":15536,
			"max":[
				-7.707719326019287,
				0.052255574613809586,
				3.388770580291748
			],
			"min":[
				-15.815390586853027,
				-0.10730922967195511,
				-1.5545315742492676
			],
			"type":"VEC3"
		},
		{
			"bufferView":51,
			"componentType":5126,
			"count":15536,
			"type":"VEC3"
		},
		{
			"bufferView":52,
			"componentType":5126,
			"count":15536,
			"type":"VEC2"
		},
		{
			"bufferView":53,
			"componentType":5123,
			"count":43392,
			"type":"SCALAR"
		}
	],
	"bufferViews":[
		{
			"buffer":0,
			"byteLength":672,
			"byteOffset":0,
			"target":34962
		},
		{
			"buffer":0,
			"byteLength":672,
			"byteOffset":672,
			"target":34962
		},
		{
			"buffer":0,
			"byteLength":448,
			"byteOffset":1344,
			"target":34962
		},
		{
			"buffer":0,
			"byteLength":168,
			"byteOffset":1792,
			"target":34963
		},
		{
			"buffer":0,
			"byteLength":408,
			"byteOffset":1960,
			"target":34962
		},
		{
			"buffer":0,
			"byteLength":408,
			"byteOffset":2368,
			"target":34962
		},
		{
			"buffer":0,
			"byteLength":272,
			"byteOffset":2776,
			"target":34962
		},
		{
			"buffer":0,
			"byteLength":84,
			"byteOffset":3048,
			"target":34963
		},
		{
			"buffer":0,
			"byteLength":672,
			"byteOffset":3132,
			"target":34962
		},
		{
			"buffer":0,
			"byteLength":672,
			"byteOffset":3804,
			"target":34962
		},
		{
			"buffer":0,
			"byteLength":448,
			"byteOffset":4476,
			"target":34962
		},
		{
			"buffer":0,
			"byteLength":408,
			"byteOffset":4924,
			"target":34962
		},
		{
			"buffer":0,
			"byteLength":408,
			"byteOffset":5332,
			"target":34962
		},
		{
			"buffer":0,
			"byteLength":272,
			"byteOffset":5740,
			"target":34962
		},
		{
			"buffer":0,
			"byteLength":672,
			"byteOffset":6012,
			"target":34962
		},
		{
			"buffer":0,
			"byteLength":672,
			"byteOffset":6684,
			"target":34962
		},
		{
			"buffer":0,
			"byteLength":448,
			"byteOffset":7356,
			"target":34962
		},
		{
			"buffer":0,
			"byteLength":408,
			"byteOffset":7804,
			"target":34962
		},
		{
			"buffer":0,
			"byteLength":408,
			"byteOffset":8212,
			"target":34962
		},
		{
			"buffer":0,
			"byteLength":272,
			"byteOffset":8620,
			"target":34962
		},
		{
			"buffer":0,
			"byteLength":672,
			"byteOffset":8892,
			"target":34962
		},
		{
			"buffer":0,
			"byteLength":672,
			"byteOffset":9564,
			"target":34962
		},
		{
			"buffer":0,
			"byteLength":448,
			"byteOffset":10236,
			"target":34962
		},
		{
			"buffer":0,
			"byteLength":408,
			"byteOffset":10684,
			"target":34962
		},
		{
			"buffer":0,
			"byteLength":408,
			"byteOffset":11092,
			"target":34962
		},
		{
			"buffer":0,
			"byteLength":272,
			"byteOffset":11500,
			"target":34962
		},
		{
			"buffer":0,
			"byteLength":2235864,
			"byteOffset":11772,
			"target":34962
		},
		{
			"buffer":0,
			"byteLength":2235864,
			"byteOffset":2247636,
			"target":34962
		},
		{
			"buffer":0,
			"byteLength":1490576,
			"byteOffset":4483500,
			"target":34962
		},
		{
			"buffer":0,
			"byteLength":1118208,
			"byteOffset":5974076,
			"target":34963
		},
		{
			"buffer":0,
			"byteLength":14112,
			"byteOffset":7092284,
			"target":34962
		},
		{
			"buffer":0,
			"byteLength":14112,
			"byteOffset":7106396,
			"target":34962
		},
		{
			"buffer":0,
			"byteLength":9408,
			"byteOffset":7120508,
			"target":34962
		},
		{
			"buffer":0,
			"byteLength":3528,
			"byteOffset":7129916,
			"target":34963
		},
		{
			"buffer":0,
			"byteLength":51720,
			"byteOffset":7133444,
			"target":34962
		},
		{
			"buffer":0,
			"byteLength":51720,
			"byteOffset":7185164,
			"target":34962
		},
		{
			"buffer":0,
			"byteLength":34480,
			"byteOffset":7236884,
			"target":34962
		},
		{
			"buffer":0,
			"byteLength":41472,
			"byteOffset":7271364,
			"target":34963
		},
		{
			"buffer":0,
			"byteLength":5376,
			"byteOffset":7312836,
			"target":34962
		},
		{
			"buffer":0,
			"byteLength":5376,
			"byteOffset":7318212,
			"target":34962
		},
		{
			"buffer":0,
			"byteLength":3584,
			"byteOffset":7323588,
			"target":34962
		},
		{
			"buffer":0,
			"byteLength":1344,
			"byteOffset":7327172,
			"target":34963
		},
		{
			"buffer":0,
			"byteLength":48,
			"byteOffset":7328516,
			"target":34962
		},
		{
			"buffer":0,
			"byteLength":48,
			"byteOffset":7328564,
			"target":34962
		},
		{
			"buffer":0,
			"byteLength":32,
			"byteOffset":7328612,
			"target":34962
		},
		{
			"buffer":0,
			"byteLength":12,
			"byteOffset":7328644,
			"target":34963
		},
		{
			"buffer":0,
			"byteLength":180192,
			"byteOffset":7328656,
			"target":34962
		},
		{
			"buffer":0,
			"byteLength":180192,
			"byteOffset":7508848,
			"target":34962
		},
		{
			"buffer":0,
			"byteLength":120128,
			"byteOffset":7689040,
			"target":34962
		},
		{
			"buffer":0,
			"byteLength":86784,
			"byteOffset":7809168,
			"target":34963
		},
		{
			"buffer":0,
			"byteLength":186432,
			"byteOffset":7895952,
			"target":34962
		},
		{
			"buffer":0,
			"byteLength":186432,
			"byteOffset":8082384,
			"target":34962
		},
		{
			"buffer":0,
			"byteLength":124288,
			"byteOffset":8268816,
			"target":34962
		},
		{
			"buffer":0,
			"byteLength":86784,
			"byteOffset":8393104,
			"target":34963
		}
	],
	"samplers":[
		{
			"magFilter":9728,
			"minFilter":9984
		}
	],
	"buffers":[
		{
			"byteLength":8479888,
			"uri":"lvl5.bin"
		}
	]
}
