{
	"asset":{
		"generator":"Khronos glTF Blender I/O v5.1.18",
		"version":"2.0"
	},
	"scene":0,
	"scenes":[
		{
			"name":"lvl5_mesh",
			"nodes":[
				0,
				1,
				2,
				3,
				4,
				5,
				6,
				7,
				8,
				9,
				10,
				11,
				12,
				13,
				14,
				15,
				16
			]
		}
	],
	"nodes":[
		{
			"mesh":0,
			"name":"walls.019-col",
			"rotation":[
				0,
				0.7071068286895752,
				0,
				0.7071068286895752
			],
			"translation":[
				-20,
				3.406614065170288,
				0
			]
		},
		{
			"mesh":1,
			"name":"walls.001-col.001",
			"translation":[
				0,
				3.406614065170288,
				-20
			]
		},
		{
			"mesh":2,
			"name":"walls.020-col",
			"rotation":[
				0,
				-0.7071068286895752,
				0,
				0.7071068286895752
			],
			"translation":[
				20,
				3.406614065170288,
				0
			]
		},
		{
			"mesh":3,
			"name":"walls.021-col",
			"rotation":[
				0,
				-1,
				0,
				1.6292068494294654e-07
			],
			"translation":[
				0,
				3.406614065170288,
				20
			]
		},
		{
			"mesh":4,
			"name":"walls.021-col.001",
			"rotation":[
				0,
				-1,
				0,
				1.6292068494294654e-07
			],
			"translation":[
				0,
				3.406614065170288,
				18.41667938232422
			]
		},
		{
			"mesh":5,
			"name":"walls.021-col.002",
			"rotation":[
				0,
				0.9396927952766418,
				0,
				0.3420199751853943
			],
			"translation":[
				-11.861000061035156,
				1.8768839836120605,
				13.824804306030273
			]
		},
		{
			"mesh":6,
			"name":"walls.021-col.003",
			"rotation":[
				0,
				0.3007059693336487,
				0,
				0.9537169337272644
			],
			"translation":[
				-16.496273040771484,
				1.8768839836120605,
				-9.759140968322754
			]
		},
		{
			"mesh":7,
			"name":"ground.005",
			"rotation":[
				-1,
				0,
				0,
				1.6292068494294654e-07
			],
			"translation":[
				0,
				-0.04777282476425171,
				0
			]
		},
		{
			"name":"NurbsPath.008",
			"translation":[
				11.156477928161621,
				0.04662102088332176,
				-1.9807968139648438
			]
		},
		{
			"name":"NurbsPath.009",
			"translation":[
				11.156477928161621,
				0.04662102088332176,
				1.0363540649414062
			]
		},
		{
			"mesh":8,
			"name":"ground_prop.005",
			"rotation":[
				0,
				0.7071067094802856,
				0,
				0.7071068286895752
			],
			"translation":[
				-0.2960183620452881,
				-0.1441401094198227,
				-0.3651001453399658
			]
		},
		{
			"mesh":9,
			"name":"ceiling-col.001"
		},
		{
			"mesh":10,
			"name":"pillar.010",
			"translation":[
				-10.824501991271973,
				4.132321357727051,
				-12.988025665283203
			]
		},
		{
			"name":"pillar.011",
			"translation":[
				40.75959777832031,
				2.647106885910034,
				1.89788019657135
			]
		},
		{
			"mesh":11,
			"name":"ground_coll-convcolonly.001"
		},
		{
			"mesh":12,
			"name":"door_closed.007",
			"scale":[
				2.131930112838745,
				2.131930112838745,
				2.131930112838745
			],
			"translation":[
				17.548797607421875,
				0.02338150143623352,
				-2.137690544128418
			]
		},
		{
			"mesh":13,
			"name":"door_closed.008",
			"scale":[
				2.131930112838745,
				2.131930112838745,
				2.131930112838745
			],
			"translation":[
				28.702838897705078,
				0.02338150143623352,
				0.879460334777832
			]
		}
	],
	"materials":[
		{
			"doubleSided":true,
			"name":"M_support_walls",
			"pbrMetallicRoughness":{
				"baseColorTexture":{
					"index":0
				},
				"metallicFactor":0
			}
		},
		{
			"doubleSided":true,
			"name":"M_rock_face_03",
			"normalTexture":{
				"index":1
			},
			"pbrMetallicRoughness":{
				"baseColorTexture":{
					"index":2
				},
				"metallicFactor":0,
				"metallicRoughnessTexture":{
					"index":3
				}
			}
		}
	],
	"meshes":[
		{
			"name":"walls.021-col",
			"primitives":[
				{
					"attributes":{
						"POSITION":0,
						"NORMAL":1,
						"TEXCOORD_0":2
					},
					"indices":3,
					"material":0
				},
				{
					"attributes":{
						"POSITION":4,
						"NORMAL":5,
						"TEXCOORD_0":6
					},
					"indices":7,
					"material":1
				}
			]
		},
		{
			"name":"walls.021-col",
			"primitives":[
				{
					"attributes":{
						"POSITION":8,
						"NORMAL":9,
						"TEXCOORD_0":10
					},
					"indices":3,
					"material":0
				},
				{
					"attributes":{
						"POSITION":11,
						"NORMAL":12,
						"TEXCOORD_0":13
					},
					"indices":7,
					"material":1
				}
			]
		},
		{
			"name":"walls.021-col",
			"primitives":[
				{
					"attributes":{
						"POSITION":14,
						"NORMAL":15,
						"TEXCOORD_0":16
					},
					"indices":3,
					"material":0
				},
				{
					"attributes":{
						"POSITION":17,
						"NORMAL":18,
						"TEXCOORD_0":19
					},
					"indices":7,
					"material":1
				}
			]
		},
		{
			"name":"walls.021-col",
			"primitives":[
				{
					"attributes":{
						"POSITION":20,
						"NORMAL":21,
						"TEXCOORD_0":22
					},
					"indices":3,
					"material":0
				},
				{
					"attributes":{
						"POSITION":23,
						"NORMAL":24,
						"TEXCOORD_0":25
					},
					"indices":7,
					"material":1
				}
			]
		},
		{
			"name":"walls.021-col.001",
			"primitives":[
				{
					"attributes":{
						"POSITION":26,
						"NORMAL":27,
						"TEXCOORD_0":28
					},
					"indices":29,
					"material":0
				}
			]
		},
		{
			"name":"walls.021-col.002",
			"primitives":[
				{
					"attributes":{
						"POSITION":30,
						"NORMAL":31,
						"TEXCOORD_0":32
					},
					"indices":33,
					"material":0
				}
			]
		},
		{
			"name":"walls.021-col.003",
			"primitives":[
				{
					"attributes":{
						"POSITION":34,
						"NORMAL":35,
						"TEXCOORD_0":36
					},
					"indices":33,
					"material":0
				}
			]
		},
		{
			"name":"ground.005",
			"primitives":[
				{
					"attributes":{
						"POSITION":37,
						"NORMAL":38,
						"TEXCOORD_0":39
					},
					"indices":40,
					"material":1
				}
			]
		},
		{
			"name":"ground_prop.005",
			"primitives":[
				{
					"attributes":{
						"POSITION":41,
						"NORMAL":42,
						"TEXCOORD_0":43
					},
					"indices":44,
					"material":1
				}
			]
		},
		{
			"name":"ceiling-col.001",
			"primitives":[
				{
					"attributes":{
						"POSITION":45,
						"NORMAL":46,
						"TEXCOORD_0":47
					},
					"indices":48,
					"material":1
				}
			]
		},
		{
			"name":"pillar.009",
			"primitives":[
				{
					"attributes":{
						"POSITION":49,
						"NORMAL":50,
						"TEXCOORD_0":51
					},
					"indices":52,
					"material":1
				}
			]
		},
		{
			"name":"ground_coll-colonly.001",
			"primitives":[
				{
					"attributes":{
						"POSITION":53,
						"NORMAL":54,
						"TEXCOORD_0":55
					},
					"indices":56
				}
			]
		},
		{
			"name":"door_closed.005",
			"primitives":[
				{
					"attributes":{
						"POSITION":57,
						"NORMAL":58,
						"TEXCOORD_0":59
					},
					"indices":60,
					"material":0
				}
			]
		},
		{
			"name":"door_closed.005",
			"primitives":[
				{
					"attributes":{
						"POSITION":61,
						"NORMAL":62,
						"TEXCOORD_0":63
					},
					"indices":64,
					"material":0
				}
			]
		}
	],
	"textures":[
		{
			"sampler":0,
			"source":0
		},
		{
			"sampler":0,
			"source":1
		},
		{
			"sampler":0,
			"source":2
		},
		{
			"sampler":0,
			"source":3
		}
	],
	"images":[
		{
			"mimeType":"image/png",
			"name":"support_walls",
			"uri":"../texture/support_walls.png"
		},
		{
			"mimeType":"image/png",
			"name":"T_rock_face_03_normal",
			"uri":"../texture/T_rock_face_03_normal.png"
		},
		{
			"mimeType":"image/png",
			"name":"T_rock_face_03_basecolor",
			"uri":"../texture/T_rock_face_03_basecolor.png"
		},
		{
			"mimeType":"image/png",
			"name":"T_rock_face_03_roughness",
			"uri":"../texture/T_rock_face_03_roughness.png"
		}
	],
	"accessors":[
		{
			"bufferView":0,
			"componentType":5126,
			"count":64,
			"max":[
				20,
				0.3471536636352539,
				1.6332823038101196
			],
			"min":[
				-20,
				-3.406614065170288,
				-0.5000038146972656
			],
			"type":"VEC3"
		},
		{
			"bufferView":1,
			"componentType":5126,
			"count":64,
			"type":"VEC3"
		},
		{
			"bufferView":2,
			"componentType":5126,
			"count":64,
			"type":"VEC2"
		},
		{
			"bufferView":3,
			"componentType":5123,
			"count":108,
			"type":"SCALAR"
		},
		{
			"bufferView":4,
			"componentType":5126,
			"count":34,
			"max":[
				2.5190422534942627,
				0.3471536636352539,
				1.6332836151123047
			],
			"min":[
				-2.5190422534942627,
				-0.971207857131958,
				-1.9073486328125e-06
			],
			"type":"VEC3"
		},
		{
			"bufferView":5,
			"componentType":5126,
			"count":34,
			"type":"VEC3"
		},
		{
			"bufferView":6,
			"componentType":5126,
			"count":34,
			"type":"VEC2"
		},
		{
			"bufferView":7,
			"componentType":5123,
			"count":42,
			"type":"SCALAR"
		},
		{
			"bufferView":8,
			"componentType":5126,
			"count":64,
			"max":[
				20,
				0.3471536636352539,
				1.6332823038101196
			],
			"min":[
				-20,
				-3.406614065170288,
				-0.5000038146972656
			],
			"type":"VEC3"
		},
		{
			"bufferView":9,
			"componentType":5126,
			"count":64,
			"type":"VEC3"
		},
		{
			"bufferView":10,
			"componentType":5126,
			"count":64,
			"type":"VEC2"
		},
		{
			"bufferView":11,
			"componentType":5126,
			"count":34,
			"max":[
				2.5190422534942627,
				0.3471536636352539,
				1.6332836151123047
			],
			"min":[
				-2.5190422534942627,
				-0.971207857131958,
				-1.9073486328125e-06
			],
			"type":"VEC3"
		},
		{
			"bufferView":12,
			"componentType":5126,
			"count":34,
			"type":"VEC3"
		},
		{
			"bufferView":13,
			"componentType":5126,
			"count":34,
			"type":"VEC2"
		},
		{
			"bufferView":14,
			"componentType":5126,
			"count":64,
			"max":[
				20,
				0.3471536636352539,
				1.6332823038101196
			],
			"min":[
				-20,
				-3.406614065170288,
				-0.5000038146972656
			],
			"type":"VEC3"
		},
		{
			"bufferView":15,
			"componentType":5126,
			"count":64,
			"type":"VEC3"
		},
		{
			"bufferView":16,
			"componentType":5126,
			"count":64,
			"type":"VEC2"
		},
		{
			"bufferView":17,
			"componentType":5126,
			"count":34,
			"max":[
				2.5190422534942627,
				0.3471536636352539,
				1.6332836151123047
			],
			"min":[
				-2.5190422534942627,
				-0.971207857131958,
				-1.9073486328125e-06
			],
			"type":"VEC3"
		},
		{
			"bufferView":18,
			"componentType":5126,
			"count":34,
			"type":"VEC3"
		},
		{
			"bufferView":19,
			"componentType":5126,
			"count":34,
			"type":"VEC2"
		},
		{
			"bufferView":20,
			"componentType":5126,
			"count":64,
			"max":[
				20,
				0.3471536636352539,
				1.6332823038101196
			],
			"min":[
				-20,
				-3.406614065170288,
				-0.5000038146972656
			],
			"type":"VEC3"
		},
		{
			"bufferView":21,
			"componentType":5126,
			"count":64,
			"type":"VEC3"
		},
		{
			"bufferView":22,
			"componentType":5126,
			"count":64,
			"type":"VEC2"
		},
		{
			"bufferView":23,
			"componentType":5126,
			"count":34,
			"max":[
				2.5190422534942627,
				0.3471536636352539,
				1.6332836151123047
			],
			"min":[
				-2.5190422534942627,
				-0.971207857131958,
				-1.9073486328125e-06
			],
			"type":"VEC3"
		},
		{
			"bufferView":24,
			"componentType":5126,
			"count":34,
			"type":"VEC3"
		},
		{
			"bufferView":25,
			"componentType":5126,
			"count":34,
			"type":"VEC2"
		},
		{
			"bufferView":26,
			"componentType":5126,
			"count":8,
			"max":[
				7.659078121185303,
				0.3471536636352539,
				1.6332820653915405
			],
			"min":[
				3.0321567058563232,
				-3.406614065170288,
				-1.7621815204620361
			],
			"type":"VEC3"
		},
		{
			"bufferView":27,
			"componentType":5126,
			"count":8,
			"type":"VEC3"
		},
		{
			"bufferView":28,
			"componentType":5126,
			"count":8,
			"type":"VEC2"
		},
		{
			"bufferView":29,
			"componentType":5123,
			"count":12,
			"type":"SCALAR"
		},
		{
			"bufferView":30,
			"componentType":5126,
			"count":8,
			"max":[
				10.361309051513672,
				1.876883864402771,
				0.8166415095329285
			],
			"min":[
				-6.170461177825928,
				-1.876883864402771,
				-0.8166415095329285
			],
			"type":"VEC3"
		},
		{
			"bufferView":31,
			"componentType":5126,
			"count":8,
			"type":"VEC3"
		},
		{
			"bufferView":32,
			"componentType":5126,
			"count":8,
			"type":"VEC2"
		},
		{
			"bufferView":33,
			"componentType":5123,
			"count":12,
			"type":"SCALAR"
		},
		{
			"bufferView":34,
			"componentType":5126,
			"count":8,
			"max":[
				17.124465942382812,
				1.876883864402771,
				0.8166415095329285
			],
			"min":[
				-3.7140984535217285,
				-1.876883864402771,
				-0.8166415095329285
			],
			"type":"VEC3"
		},
		{
			"bufferView":35,
			"componentType":5126,
			"count":8,
			"type":"VEC3"
		},
		{
			"bufferView":36,
			"componentType":5126,
			"count":8,
			"type":"VEC2"
		},
		{
			"bufferView":37,
			"componentType":5126,
			"count":202706,
			"max":[
				25.107616424560547,
				15.270795822143555,
				20.5000057220459
			],
			"min":[
				-20.500003814697266,
				-0.12490133941173553,
				-23.376455307006836
			],
			"type":"VEC3"
		},
		{
			"bufferView":38,
			"componentType":5126,
			"count":202706,
			"type":"VEC3"
		},
		{
			"bufferView":39,
			"componentType":5126,
			"count":202706,
			"type":"VEC2"
		},
		{
			"bufferView":40,
			"componentType":5125,
			"count":304128,
			"type":"SCALAR"
		},
		{
			"bufferView":41,
			"componentType":5126,
			"count":1596,
			"max":[
				17.1075439453125,
				1.1248588562011719,
				19.91326141357422
			],
			"min":[
				-20.3342342376709,
				-2.1366896629333496,
				-15.998017311096191
			],
			"type":"VEC3"
		},
		{
			"bufferView":42,
			"componentType":5126,
			"count":1596,
			"type":"VEC3"
		},
		{
			"bufferView":43,
			"componentType":5126,
			"count":1596,
			"type":"VEC2"
		},
		{
			"bufferView":44,
			"componentType":5123,
			"count":2430,
			"type":"SCALAR"
		},
		{
			"bufferView":45,
			"componentType":5126,
			"count":4206,
			"max":[
				19.82872200012207,
				25.9418888092041,
				19.829221725463867
			],
			"min":[
				-19.955795288085938,
				-1.9127047061920166,
				-19.828493118286133
			],
			"type":"VEC3"
		},
		{
			"bufferView":46,
			"componentType":5126,
			"count":4206,
			"type":"VEC3"
		},
		{
			"bufferView":47,
			"componentType":5126,
			"count":4206,
			"type":"VEC2"
		},
		{
			"bufferView":48,
			"componentType":5123,
			"count":19968,
			"type":"SCALAR"
		},
		{
			"bufferView":49,
			"componentType":5126,
			"count":448,
			"max":[
				20.413230895996094,
				3.742097854614258,
				1.463667869567871
			],
			"min":[
				16.858810424804688,
				-7.530536651611328,
				-2.6910877227783203
			],
			"type":"VEC3"
		},
		{
			"bufferView":50,
			"componentType":5126,
			"count":448,
			"type":"VEC3"
		},
		{
			"bufferView":51,
			"componentType":5126,
			"count":448,
			"type":"VEC2"
		},
		{
			"bufferView":52,
			"componentType":5123,
			"count":672,
			"type":"SCALAR"
		},
		{
			"bufferView":53,
			"componentType":5126,
			"count":4,
			"max":[
				20.5,
				0,
				20.5
			],
			"min":[
				-20.5,
				0,
				-20.5
			],
			"type":"VEC3"
		},
		{
			"bufferView":54,
			"componentType":5126,
			"count":4,
			"type":"VEC3"
		},
		{
			"bufferView":55,
			"componentType":5126,
			"count":4,
			"type":"VEC2"
		},
		{
			"bufferView":56,
			"componentType":5123,
			"count":6,
			"type":"SCALAR"
		},
		{
			"bufferView":57,
			"componentType":5126,
			"count":15016,
			"max":[
				-2.4943323135375977,
				0.04566023498773575,
				0.8182623386383057
			],
			"min":[
				-8.426748275756836,
				-0.10972169786691666,
				-7.648264408111572
			],
			"type":"VEC3"
		},
		{
			"bufferView":58,
			"componentType":5126,
			"count":15016,
			"type":"VEC3"
		},
		{
			"bufferView":59,
			"componentType":5126,
			"count":15016,
			"type":"VEC2"
		},
		{
			"bufferView":60,
			"componentType":5123,
			"count":43392,
			"type":"SCALAR"
		},
		{
			"bufferView":61,
			"componentType":5126,
			"count":23197,
			"max":[
				-5.0526862144470215,
				0.08842132985591888,
				4.652604579925537
			],
			"min":[
				-15.801185607910156,
				-1.6224501132965088,
				-1.5524263381958008
			],
			"type":"VEC3"
		},
		{
			"bufferView":62,
			"componentType":5126,
			"count":23197,
			"type":"VEC3"
		},
		{
			"bufferView":63,
			"componentType":5126,
			"count":23197,
			"type":"VEC2"
		},
		{
			"bufferView":64,
			"componentType":5123,
			"count":65088,
			"type":"SCALAR"
		}
	],
	"bufferViews":[
		{
			"buffer":0,
			"byteLength":768,
			"byteOffset":0,
			"target":34962
		},
		{
			"buffer":0,
			"byteLength":768,
			"byteOffset":768,
			"target":34962
		},
		{
			"buffer":0,
			"byteLength":512,
			"byteOffset":1536,
			"target":34962
		},
		{
			"buffer":0,
			"byteLength":216,
			"byteOffset":2048,
			"target":34963
		},
		{
			"buffer":0,
			"byteLength":408,
			"byteOffset":2264,
			"target":34962
		},
		{
			"buffer":0,
			"byteLength":408,
			"byteOffset":2672,
			"target":34962
		},
		{
			"buffer":0,
			"byteLength":272,
			"byteOffset":3080,
			"target":34962
		},
		{
			"buffer":0,
			"byteLength":84,
			"byteOffset":3352,
			"target":34963
		},
		{
			"buffer":0,
			"byteLength":768,
			"byteOffset":3436,
			"target":34962
		},
		{
			"buffer":0,
			"byteLength":768,
			"byteOffset":4204,
			"target":34962
		},
		{
			"buffer":0,
			"byteLength":512,
			"byteOffset":4972,
			"target":34962
		},
		{
			"buffer":0,
			"byteLength":408,
			"byteOffset":5484,
			"target":34962
		},
		{
			"buffer":0,
			"byteLength":408,
			"byteOffset":5892,
			"target":34962
		},
		{
			"buffer":0,
			"byteLength":272,
			"byteOffset":6300,
			"target":34962
		},
		{
			"buffer":0,
			"byteLength":768,
			"byteOffset":6572,
			"target":34962
		},
		{
			"buffer":0,
			"byteLength":768,
			"byteOffset":7340,
			"target":34962
		},
		{
			"buffer":0,
			"byteLength":512,
			"byteOffset":8108,
			"target":34962
		},
		{
			"buffer":0,
			"byteLength":408,
			"byteOffset":8620,
			"target":34962
		},
		{
			"buffer":0,
			"byteLength":408,
			"byteOffset":9028,
			"target":34962
		},
		{
			"buffer":0,
			"byteLength":272,
			"byteOffset":9436,
			"target":34962
		},
		{
			"buffer":0,
			"byteLength":768,
			"byteOffset":9708,
			"target":34962
		},
		{
			"buffer":0,
			"byteLength":768,
			"byteOffset":10476,
			"target":34962
		},
		{
			"buffer":0,
			"byteLength":512,
			"byteOffset":11244,
			"target":34962
		},
		{
			"buffer":0,
			"byteLength":408,
			"byteOffset":11756,
			"target":34962
		},
		{
			"buffer":0,
			"byteLength":408,
			"byteOffset":12164,
			"target":34962
		},
		{
			"buffer":0,
			"byteLength":272,
			"byteOffset":12572,
			"target":34962
		},
		{
			"buffer":0,
			"byteLength":96,
			"byteOffset":12844,
			"target":34962
		},
		{
			"buffer":0,
			"byteLength":96,
			"byteOffset":12940,
			"target":34962
		},
		{
			"buffer":0,
			"byteLength":64,
			"byteOffset":13036,
			"target":34962
		},
		{
			"buffer":0,
			"byteLength":24,
			"byteOffset":13100,
			"target":34963
		},
		{
			"buffer":0,
			"byteLength":96,
			"byteOffset":13124,
			"target":34962
		},
		{
			"buffer":0,
			"byteLength":96,
			"byteOffset":13220,
			"target":34962
		},
		{
			"buffer":0,
			"byteLength":64,
			"byteOffset":13316,
			"target":34962
		},
		{
			"buffer":0,
			"byteLength":24,
			"byteOffset":13380,
			"target":34963
		},
		{
			"buffer":0,
			"byteLength":96,
			"byteOffset":13404,
			"target":34962
		},
		{
			"buffer":0,
			"byteLength":96,
			"byteOffset":13500,
			"target":34962
		},
		{
			"buffer":0,
			"byteLength":64,
			"byteOffset":13596,
			"target":34962
		},
		{
			"buffer":0,
			"byteLength":2432472,
			"byteOffset":13660,
			"target":34962
		},
		{
			"buffer":0,
			"byteLength":2432472,
			"byteOffset":2446132,
			"target":34962
		},
		{
			"buffer":0,
			"byteLength":1621648,
			"byteOffset":4878604,
			"target":34962
		},
		{
			"buffer":0,
			"byteLength":1216512,
			"byteOffset":6500252,
			"target":34963
		},
		{
			"buffer":0,
			"byteLength":19152,
			"byteOffset":7716764,
			"target":34962
		},
		{
			"buffer":0,
			"byteLength":19152,
			"byteOffset":7735916,
			"target":34962
		},
		{
			"buffer":0,
			"byteLength":12768,
			"byteOffset":7755068,
			"target":34962
		},
		{
			"buffer":0,
			"byteLength":4860,
			"byteOffset":7767836,
			"target":34963
		},
		{
			"buffer":0,
			"byteLength":50472,
			"byteOffset":7772696,
			"target":34962
		},
		{
			"buffer":0,
			"byteLength":50472,
			"byteOffset":7823168,
			"target":34962
		},
		{
			"buffer":0,
			"byteLength":33648,
			"byteOffset":7873640,
			"target":34962
		},
		{
			"buffer":0,
			"byteLength":39936,
			"byteOffset":7907288,
			"target":34963
		},
		{
			"buffer":0,
			"byteLength":5376,
			"byteOffset":7947224,
			"target":34962
		},
		{
			"buffer":0,
			"byteLength":5376,
			"byteOffset":7952600,
			"target":34962
		},
		{
			"buffer":0,
			"byteLength":3584,
			"byteOffset":7957976,
			"target":34962
		},
		{
			"buffer":0,
			"byteLength":1344,
			"byteOffset":7961560,
			"target":34963
		},
		{
			"buffer":0,
			"byteLength":48,
			"byteOffset":7962904,
			"target":34962
		},
		{
			"buffer":0,
			"byteLength":48,
			"byteOffset":7962952,
			"target":34962
		},
		{
			"buffer":0,
			"byteLength":32,
			"byteOffset":7963000,
			"target":34962
		},
		{
			"buffer":0,
			"byteLength":12,
			"byteOffset":7963032,
			"target":34963
		},
		{
			"buffer":0,
			"byteLength":180192,
			"byteOffset":7963044,
			"target":34962
		},
		{
			"buffer":0,
			"byteLength":180192,
			"byteOffset":8143236,
			"target":34962
		},
		{
			"buffer":0,
			"byteLength":120128,
			"byteOffset":8323428,
			"target":34962
		},
		{
			"buffer":0,
			"byteLength":86784,
			"byteOffset":8443556,
			"target":34963
		},
		{
			"buffer":0,
			"byteLength":278364,
			"byteOffset":8530340,
			"target":34962
		},
		{
			"buffer":0,
			"byteLength":278364,
			"byteOffset":8808704,
			"target":34962
		},
		{
			"buffer":0,
			"byteLength":185576,
			"byteOffset":9087068,
			"target":34962
		},
		{
			"buffer":0,
			"byteLength":130176,
			"byteOffset":9272644,
			"target":34963
		}
	],
	"samplers":[
		{
			"magFilter":9728,
			"minFilter":9984
		}
	],
	"buffers":[
		{
			"byteLength":9402820,
			"uri":"lvl5.bin"
		}
	]
}
